<?xml version="1.0" encoding="UTF-8" standalone="no"?>
<svg
   xmlns:dc="http://purl.org/dc/elements/1.1/"
   xmlns:cc="http://creativecommons.org/ns#"
   xmlns:rdf="http://www.w3.org/1999/02/22-rdf-syntax-ns#"
   xmlns:svg="http://www.w3.org/2000/svg"
   xmlns="http://www.w3.org/2000/svg"
   xmlns:sodipodi="http://sodipodi.sourceforge.net/DTD/sodipodi-0.dtd"
   xmlns:inkscape="http://www.inkscape.org/namespaces/inkscape"
   sodipodi:docname="deutsch_icon.svg"
   inkscape:version="1.0 (4035a4fb49, 2020-05-01)"
   id="svg8"
   version="1.1"
   viewBox="0 0 135.46666 135.46666"
   height="512"
   width="512">
  <defs
     id="defs2" />
  <sodipodi:namedview
     inkscape:snap-others="false"
     inkscape:snap-text-baseline="true"
     inkscape:snap-center="true"
     inkscape:snap-object-midpoints="true"
     inkscape:snap-midpoints="true"
     inkscape:snap-smooth-nodes="true"
     inkscape:snap-intersection-paths="true"
     inkscape:object-paths="true"
     inkscape:snap-bbox-midpoints="true"
     inkscape:snap-bbox-edge-midpoints="true"
     inkscape:bbox-nodes="true"
     inkscape:bbox-paths="true"
     inkscape:snap-bbox="true"
     units="px"
     inkscape:window-maximized="1"
     inkscape:window-y="-8"
     inkscape:window-x="1912"
     inkscape:window-height="1027"
     inkscape:window-width="1920"
     showgrid="false"
     inkscape:document-rotation="0"
     inkscape:current-layer="layer2"
     inkscape:document-units="mm"
     inkscape:cy="218.74381"
     inkscape:cx="222.44036"
     inkscape:zoom="0.98994951"
     inkscape:pageshadow="2"
     inkscape:pageopacity="0.0"
     borderopacity="1.0"
     bordercolor="#666666"
     pagecolor="#ffffff"
     id="base"
     inkscape:snap-global="false" />
  <metadata
     id="metadata5">
    <rdf:RDF>
      <cc:Work
         rdf:about="">
        <dc:format>image/svg+xml</dc:format>
        <dc:type
           rdf:resource="http://purl.org/dc/dcmitype/StillImage" />
        <dc:title />
      </cc:Work>
    </rdf:RDF>
  </metadata>
  <g
     inkscape:label="Background"
     id="layer1"
     inkscape:groupmode="layer" />
  <g
     inkscape:groupmode="layer"
     id="layer2"
     inkscape:label="Icon">
    <g
       style="font-style:normal;font-weight:normal;font-size:87.8756px;line-height:1.25;font-family:sans-serif;fill:#e6e6e6;fill-opacity:1;stroke:none;stroke-width:2.19689"
       id="text870"
       aria-label="a">
      <path
         id="path840"
         style="font-style:normal;font-variant:normal;font-weight:normal;font-stretch:normal;font-family:'Berlin Sans FB Demi';-inkscape-font-specification:'Berlin Sans FB Demi';fill:#e6e6e6;fill-opacity:1;stroke-width:2.19689"
         d="m 60.411349,41.052358 q 0,3.303917 0.386172,9.825934 0.386172,6.522018 0.386172,9.783027 0,1.71632 -1.50178,1.845044 -5.320594,0.386172 -12.185875,0.386172 -0.815252,0 -1.115608,-2.445757 -0.257448,-2.488664 -0.64362,-2.531572 -0.343265,0.171632 -0.901069,0.729436 -4.805697,4.848605 -10.297922,4.848605 -8.367062,0 -13.859287,-6.607833 -5.191869,-6.178754 -5.191869,-14.760355 0,-9.911751 5.363501,-15.96178 5.578041,-6.264569 15.275252,-6.264569 6.736557,0 10.641186,4.719881 0.171632,0.21454 0.300356,0.21454 0.386172,0 0.85816,-2.059585 0.514896,-2.102492 1.201424,-2.102492 1.587597,0 6.05003,0.901068 4.247892,0.85816 6.092937,1.458873 0.64362,0.257448 0.64362,0.686528 0,0.171632 -0.128724,0.901068 -1.373056,7.766349 -1.373056,16.433767 z M 46.59497,41.309806 q 0,-3.64718 -2.317033,-6.007121 -2.274124,-2.402848 -5.964213,-2.402848 -3.690089,0 -5.964213,2.35994 -2.274125,2.359941 -2.274125,6.050029 0,3.475549 2.402849,5.964214 2.402848,2.488664 5.835489,2.488664 3.647181,0 5.964213,-2.35994 2.317033,-2.402849 2.317033,-6.092938 z" />
    </g>
    <g
       style="font-style:normal;font-weight:normal;font-size:86.1029px;line-height:1.25;font-family:sans-serif;fill:#e6e6e6;fill-opacity:1;stroke:none;stroke-width:2.15257"
       id="text886"
       aria-label="c">
      <path
         id="path843"
         style="font-style:normal;font-variant:normal;font-weight:normal;font-stretch:normal;font-family:'Berlin Sans FB Demi';-inkscape-font-specification:'Berlin Sans FB Demi';fill:#e6e6e6;fill-opacity:1;stroke-width:2.15257"
         d="m 63.327279,89.082617 q -0.04204,0 -2.564589,-0.672679 -2.480503,-0.672679 -4.036073,-0.672679 -3.741776,0 -5.970025,2.270291 -2.228249,2.228249 -2.228249,5.970026 0,3.867903 2.438461,6.096154 2.438461,2.1862 6.348407,2.1862 1.849867,0 4.162201,-0.92493 2.312333,-0.96697 2.186206,-0.96697 0.714722,0 1.849867,5.33938 0.966976,4.87693 0.966976,6.47454 0,1.59761 -5.213261,2.73276 -4.036074,0.88289 -6.516577,0.88289 -9.249335,0 -15.261402,-6.22228 -6.012068,-6.22228 -6.012068,-15.51366 0,-9.207292 6.012068,-15.471614 6.05411,-6.306365 15.261402,-6.306365 6.264322,0 11.015117,2.690716 1.093103,0.588594 1.093103,1.135146 0,0.546551 -1.261273,4.961006 -1.177188,4.246286 -1.55557,5.129177 -0.336339,0.882891 -0.714721,0.882891 z" />
    </g>
    <g
       style="font-style:normal;font-weight:normal;font-size:74.2012px;line-height:1.25;font-family:sans-serif;fill:#e6e6e6;fill-opacity:1;stroke:none;stroke-width:1.85502"
       id="text890"
       aria-label="b">
      <path
         id="path837"
         style="font-style:normal;font-variant:normal;font-weight:normal;font-stretch:normal;font-family:'Berlin Sans FB Demi';-inkscape-font-specification:'Berlin Sans FB Demi';fill:#e6e6e6;fill-opacity:1;stroke-width:1.85502"
         d="m 111.31247,60.771898 q 0,7.608521 -4.34773,12.7171 -4.63757,5.434659 -12.101169,5.434659 -5.434658,0 -8.767915,-3.115871 -0.253618,-0.217386 -0.434773,-0.217386 -0.36231,0 -0.68839,1.340549 -0.289848,1.340549 -0.724621,1.485473 -0.615928,0.181155 -10.325851,0.181155 -2.282556,0 -2.282556,-0.833314 0,-0.108693 0.07246,-0.543466 0.724621,-5.760738 0.724621,-21.95602 0,-15.470661 -1.086932,-26.919674 l -0.03623,-0.398542 q 0,-0.579697 1.123163,-0.652159 0.797083,-0.03623 6.304203,-0.543466 3.876723,-0.36231 6.304204,-0.36231 0.68839,0 0.68839,1.195624 0,1.413012 -0.181155,3.731799 -0.217386,2.862254 -0.253617,3.76803 -0.181156,3.586875 -0.181156,9.782385 0,1.123163 0.579697,1.123163 0.289849,0 0.543466,-0.289849 3.260795,-3.478181 8.550529,-3.478181 7.934601,0 12.391021,5.398427 4.13034,4.999886 4.13034,13.151874 z M 98.196828,60.373356 q 0,-3.007178 -1.847783,-5.072348 -1.847784,-2.101401 -4.818731,-2.101401 -3.043408,0 -4.81873,2.101401 -1.739091,2.06517 -1.739091,5.14481 0,3.188333 1.70286,5.14481 1.811553,2.06517 4.927423,2.06517 3.07964,0 4.891193,-2.137632 1.702859,-1.992708 1.702859,-5.14481 z" />
    </g>
  </g>
</svg>
