<?xml version="1.0" standalone="no"?>
<!DOCTYPE svg PUBLIC "-//W3C//DTD SVG 20010904//EN"
 "http://www.w3.org/TR/2001/REC-SVG-20010904/DTD/svg10.dtd">
<svg version="1.0" xmlns="http://www.w3.org/2000/svg"
 width="512.000000pt" height="512.000000pt" viewBox="0 0 512.000000 512.000000"
 preserveAspectRatio="xMidYMid meet">

<g transform="translate(0.000000,512.000000) scale(0.100000,-0.100000)"
fill="#000000" stroke="none">
<path d="M4305 5106 c-185 -62 -3808 -1462 -3838 -1483 -115 -80 -158 -251
-96 -380 53 -110 -65 -52 1991 -981 1036 -468 1901 -859 1923 -868 60 -25 168
-22 231 5 147 64 221 241 165 391 -33 88 -85 133 -236 205 -71 34 -772 351
-1557 706 -785 354 -1428 647 -1428 650 0 3 667 261 1483 574 815 313 1510
579 1544 593 172 66 255 240 193 406 -53 140 -236 229 -375 182z"/>
<path d="M605 2329 c-142 -18 -248 -132 -261 -280 -11 -121 59 -240 176 -299
108 -54 3826 -1723 3870 -1737 61 -20 156 -11 217 21 226 115 227 433 1 547
-67 34 -3716 1677 -3812 1716 -75 31 -129 40 -191 32z"/>
</g>
</svg>
