<?xml version="1.0" encoding="UTF-8" standalone="no"?>
<svg
   xmlns:dc="http://purl.org/dc/elements/1.1/"
   xmlns:cc="http://creativecommons.org/ns#"
   xmlns:rdf="http://www.w3.org/1999/02/22-rdf-syntax-ns#"
   xmlns:svg="http://www.w3.org/2000/svg"
   xmlns="http://www.w3.org/2000/svg"
   xmlns:sodipodi="http://sodipodi.sourceforge.net/DTD/sodipodi-0.dtd"
   xmlns:inkscape="http://www.inkscape.org/namespaces/inkscape"
   sodipodi:docname="spiel_icon.svg"
   inkscape:version="1.0 (4035a4fb49, 2020-05-01)"
   id="svg8"
   version="1.1"
   viewBox="0 0 135.46666 135.46666"
   height="512"
   width="512">
  <defs
     id="defs2" />
  <sodipodi:namedview
     inkscape:snap-others="false"
     inkscape:snap-text-baseline="true"
     inkscape:snap-center="true"
     inkscape:snap-object-midpoints="true"
     inkscape:snap-midpoints="true"
     inkscape:snap-smooth-nodes="true"
     inkscape:snap-intersection-paths="true"
     inkscape:object-paths="true"
     inkscape:snap-bbox-midpoints="true"
     inkscape:snap-bbox-edge-midpoints="true"
     inkscape:bbox-nodes="true"
     inkscape:bbox-paths="true"
     inkscape:snap-bbox="true"
     units="px"
     inkscape:window-maximized="1"
     inkscape:window-y="-8"
     inkscape:window-x="1912"
     inkscape:window-height="1027"
     inkscape:window-width="1920"
     showgrid="false"
     inkscape:document-rotation="0"
     inkscape:current-layer="layer2"
     inkscape:document-units="mm"
     inkscape:cy="128.92741"
     inkscape:cx="45.774703"
     inkscape:zoom="0.70000001"
     inkscape:pageshadow="2"
     inkscape:pageopacity="0.0"
     borderopacity="1.0"
     bordercolor="#666666"
     pagecolor="#ffffff"
     id="base"
     inkscape:snap-global="false" />
  <metadata
     id="metadata5">
    <rdf:RDF>
      <cc:Work
         rdf:about="">
        <dc:format>image/svg+xml</dc:format>
        <dc:type
           rdf:resource="http://purl.org/dc/dcmitype/StillImage" />
        <dc:title></dc:title>
      </cc:Work>
    </rdf:RDF>
  </metadata>
  <g
     inkscape:label="Background 1"
     id="layer2"
     inkscape:groupmode="layer">
    <g
       transform="matrix(1.0889201,0,0,1.0889201,-6.0218597,2.1640108)"
       id="g925">
      <g
         id="g894"
         transform="translate(-1.9676653,5.3258988)">
        <path
           style="color:#000000;font-style:normal;font-variant:normal;font-weight:normal;font-stretch:normal;font-size:medium;line-height:normal;font-family:sans-serif;font-variant-ligatures:normal;font-variant-position:normal;font-variant-caps:normal;font-variant-numeric:normal;font-variant-alternates:normal;font-variant-east-asian:normal;font-feature-settings:normal;font-variation-settings:normal;text-indent:0;text-align:start;text-decoration:none;text-decoration-line:none;text-decoration-style:solid;text-decoration-color:#000000;letter-spacing:normal;word-spacing:normal;text-transform:none;writing-mode:lr-tb;direction:ltr;text-orientation:mixed;dominant-baseline:auto;baseline-shift:baseline;text-anchor:start;white-space:normal;shape-padding:0;shape-margin:0;inline-size:0;clip-rule:nonzero;display:inline;overflow:visible;visibility:visible;opacity:1;isolation:auto;mix-blend-mode:normal;color-interpolation:sRGB;color-interpolation-filters:linearRGB;solid-color:#000000;solid-opacity:1;vector-effect:none;fill:#e6e6e6;fill-opacity:1;fill-rule:nonzero;stroke:none;stroke-width:3;stroke-linecap:round;stroke-linejoin:round;stroke-miterlimit:4;stroke-dasharray:none;stroke-dashoffset:0;stroke-opacity:1;color-rendering:auto;image-rendering:auto;shape-rendering:auto;text-rendering:auto;enable-background:accumulate;stop-color:#000000;stop-opacity:1"
           d="m 92.638672,47.791016 c -1.060689,0 -1.881971,0.681407 -2.335938,1.408203 -0.453967,0.726795 -0.666015,1.57835 -0.666015,2.496093 v 0.658204 h -0.65625 c -0.917642,0 -1.771264,0.212096 -2.498047,0.666015 -0.726784,0.453919 -1.408203,1.275408 -1.408203,2.335938 v 3.146484 c 0,1.06053 0.68142,1.882019 1.408203,2.335938 0.726783,0.453919 1.580404,0.666015 2.498047,0.666015 h 0.65625 v 0.65625 c 0,0.917744 0.212048,1.771252 0.666015,2.498047 0.453967,0.726795 1.275249,1.408203 2.335938,1.408203 h 3.146484 c 1.060686,0 1.881968,-0.681406 2.335938,-1.408203 0.45397,-0.726796 0.667968,-1.580303 0.667968,-2.498047 v -0.65625 h 0.65625 c 0.917648,0 1.769278,-0.212142 2.496098,-0.666015 0.72682,-0.453874 1.41015,-1.275252 1.41015,-2.335938 v -3.146484 c 0,-1.060686 -0.68333,-1.882064 -1.41015,-2.335938 -0.72682,-0.453873 -1.57845,-0.666015 -2.496098,-0.666015 h -0.65625 v -0.658204 c 0,-0.917743 -0.213998,-1.769297 -0.667968,-2.496093 -0.45397,-0.726797 -1.275252,-1.408203 -2.335938,-1.408203 z m 0.208984,3 h 2.728516 c 0.08916,0.143368 0.21289,0.490302 0.21289,0.904296 v 2.158204 a 1.50015,1.50015 0 0 0 1.5,1.5 h 2.15625 c 0.414095,0 0.762908,0.121818 0.906248,0.210937 v 2.728516 c -0.14334,0.08912 -0.492153,0.210937 -0.906248,0.210937 h -2.15625 a 1.50015,1.50015 0 0 0 -1.5,1.5 v 2.15625 c 0,0.413997 -0.123734,0.762883 -0.21289,0.90625 h -2.728516 c -0.08916,-0.143369 -0.210937,-0.492254 -0.210937,-0.90625 v -2.15625 a 1.50015,1.50015 0 0 0 -1.5,-1.5 h -2.15625 c -0.414091,0 -0.763,-0.121863 -0.90625,-0.210937 v -2.728516 c 0.143249,-0.08907 0.492158,-0.210937 0.90625,-0.210937 h 2.15625 a 1.50015,1.50015 0 0 0 1.5,-1.5 v -2.158204 c 0,-0.413993 0.12178,-0.760926 0.210937,-0.904296 z"
           id="path901" />
        <path
           style="color:#000000;font-style:normal;font-variant:normal;font-weight:normal;font-stretch:normal;font-size:medium;line-height:normal;font-family:sans-serif;font-variant-ligatures:normal;font-variant-position:normal;font-variant-caps:normal;font-variant-numeric:normal;font-variant-alternates:normal;font-variant-east-asian:normal;font-feature-settings:normal;font-variation-settings:normal;text-indent:0;text-align:start;text-decoration:none;text-decoration-line:none;text-decoration-style:solid;text-decoration-color:#000000;letter-spacing:normal;word-spacing:normal;text-transform:none;writing-mode:lr-tb;direction:ltr;text-orientation:mixed;dominant-baseline:auto;baseline-shift:baseline;text-anchor:start;white-space:normal;shape-padding:0;shape-margin:0;inline-size:0;clip-rule:nonzero;display:inline;overflow:visible;visibility:visible;opacity:1;isolation:auto;mix-blend-mode:normal;color-interpolation:sRGB;color-interpolation-filters:linearRGB;solid-color:#000000;solid-opacity:1;vector-effect:none;fill:#e6e6e6;fill-opacity:1;fill-rule:nonzero;stroke:none;stroke-width:3;stroke-linecap:round;stroke-linejoin:round;stroke-miterlimit:4;stroke-dasharray:none;stroke-dashoffset:0;stroke-opacity:1;color-rendering:auto;image-rendering:auto;shape-rendering:auto;text-rendering:auto;enable-background:accumulate;stop-color:#000000;stop-opacity:1"
           d="m 43.966797,49.013672 c -4.353274,-10e-7 -7.916016,3.560789 -7.916016,7.914062 0,4.353274 3.562742,7.916016 7.916016,7.916016 4.144378,0 7.473666,-3.260233 7.792969,-7.326172 a 1.5,1.5 0 0 0 0.002,-0.0059 1.5,1.5 0 0 0 0.11914,-0.583985 1.5,1.5 0 0 0 -0.117187,-0.576172 c -0.312472,-4.07258 -3.647703,-7.33789 -7.796875,-7.33789 z m 0,3 c 2.731953,0 4.914063,2.182109 4.914062,4.914062 0,2.731953 -2.182109,4.916016 -4.914062,4.916016 -2.731953,0 -4.916016,-2.184063 -4.916016,-4.916016 0,-2.731953 2.184063,-4.914062 4.916016,-4.914062 z"
           id="path905" />
      </g>
      <path
         style="color:#000000;font-style:normal;font-variant:normal;font-weight:normal;font-stretch:normal;font-size:medium;line-height:normal;font-family:sans-serif;font-variant-ligatures:normal;font-variant-position:normal;font-variant-caps:normal;font-variant-numeric:normal;font-variant-alternates:normal;font-variant-east-asian:normal;font-feature-settings:normal;font-variation-settings:normal;text-indent:0;text-align:start;text-decoration:none;text-decoration-line:none;text-decoration-style:solid;text-decoration-color:#000000;letter-spacing:normal;word-spacing:normal;text-transform:none;writing-mode:lr-tb;direction:ltr;text-orientation:mixed;dominant-baseline:auto;baseline-shift:baseline;text-anchor:start;white-space:normal;shape-padding:0;shape-margin:0;inline-size:0;clip-rule:nonzero;display:inline;overflow:visible;visibility:visible;opacity:1;isolation:auto;mix-blend-mode:normal;color-interpolation:sRGB;color-interpolation-filters:linearRGB;solid-color:#000000;solid-opacity:1;vector-effect:none;fill:#e6e6e6;fill-opacity:1;fill-rule:nonzero;stroke:none;stroke-width:3;stroke-linecap:round;stroke-linejoin:round;stroke-miterlimit:4;stroke-dasharray:none;stroke-dashoffset:0;stroke-opacity:1;color-rendering:auto;image-rendering:auto;shape-rendering:auto;text-rendering:auto;enable-background:accumulate;stop-color:#000000;stop-opacity:1"
         d="m 39.488281,43.916016 c -4.421422,0 -8.441974,1.262735 -11.433593,3.408203 -2.99162,2.145468 -4.986329,5.265899 -4.986329,8.791015 v 12.277344 c 0,3.118483 0.446076,8.672573 2.683594,13.666016 2.237519,4.993442 6.592181,9.492187 13.736328,9.492187 12.452285,0 18.674221,-8.975461 19.914063,-10.958984 h 8.330078 8.34375 c 1.245561,1.936733 7.632992,10.958984 19.902344,10.958984 7.023044,0 11.360874,-4.498031 13.630864,-9.484375 2.26998,-4.986343 2.7871,-10.5328 2.7871,-13.673828 V 56.115234 c 0,-3.525116 -1.99275,-6.645548 -4.98437,-8.791015 -2.99162,-2.145468 -7.01217,-3.408203 -11.433594,-3.408203 z m 0,3 h 56.490235 c 3.844069,0 7.281754,1.123203 9.683594,2.845703 2.40184,1.7225 3.73437,3.950959 3.73437,6.353515 v 12.277344 c 0,2.786646 -0.53248,8.06914 -2.51757,12.429688 -1.9851,4.360547 -5.10443,7.728515 -10.900394,7.728515 -11.964192,0 -17.822266,-10.207031 -17.822266,-10.207031 a 1.50015,1.50015 0 0 0 -1.300781,-0.751953 h -9.123047 -9.121094 a 1.50015,1.50015 0 0 0 -1.314453,0.777344 c 0,0 -5.559673,10.18164 -17.808594,10.18164 -5.942128,0 -9.047304,-3.367254 -10.998047,-7.720703 -1.950742,-4.353448 -2.421875,-9.62831 -2.421875,-12.4375 V 56.115234 c 0,-2.402556 1.334491,-4.631015 3.736329,-6.353515 2.401837,-1.7225 5.839523,-2.845703 9.683593,-2.845703 z"
         id="path909" />
      <g
         id="g890"
         transform="translate(0.11414646,6.6956592)">
        <path
           id="rect880"
           style="fill:#e6e6e6;stroke:none;stroke-width:1.95123;stroke-linecap:round;stroke-linejoin:round;stroke-miterlimit:4;stroke-dasharray:none"
           d="m 58.787283,62.541065 h 4.701234 c 0.252465,0 0.455713,0.581111 0.455713,1.302939 0,0.721828 -0.203248,1.302939 -0.455713,1.302939 h -4.701234 c -0.252465,0 -0.455713,-0.581111 -0.455713,-1.302939 0,-0.721828 0.203248,-1.302939 0.455713,-1.302939 z" />
        <path
           id="rect886"
           style="fill:#e6e6e6;stroke:none;stroke-width:1.95123;stroke-linecap:round;stroke-linejoin:round;stroke-miterlimit:4;stroke-dasharray:none"
           d="m 71.749857,62.541065 h 4.701234 c 0.252465,0 0.455713,0.581111 0.455713,1.302939 0,0.721828 -0.203248,1.302939 -0.455713,1.302939 h -4.701234 c -0.252465,0 -0.455713,-0.581111 -0.455713,-1.302939 0,-0.721828 0.203248,-1.302939 0.455713,-1.302939 z" />
      </g>
      <path
         style="color:#000000;font-style:normal;font-variant:normal;font-weight:normal;font-stretch:normal;font-size:medium;line-height:normal;font-family:sans-serif;font-variant-ligatures:normal;font-variant-position:normal;font-variant-caps:normal;font-variant-numeric:normal;font-variant-alternates:normal;font-variant-east-asian:normal;font-feature-settings:normal;font-variation-settings:normal;text-indent:0;text-align:start;text-decoration:none;text-decoration-line:none;text-decoration-style:solid;text-decoration-color:#000000;letter-spacing:normal;word-spacing:normal;text-transform:none;writing-mode:lr-tb;direction:ltr;text-orientation:mixed;dominant-baseline:auto;baseline-shift:baseline;text-anchor:start;white-space:normal;shape-padding:0;shape-margin:0;inline-size:0;clip-rule:nonzero;display:inline;overflow:visible;visibility:visible;opacity:1;isolation:auto;mix-blend-mode:normal;color-interpolation:sRGB;color-interpolation-filters:linearRGB;solid-color:#000000;solid-opacity:1;vector-effect:none;fill:#e6e6e6;fill-opacity:1;fill-rule:nonzero;stroke:none;stroke-width:3;stroke-linecap:round;stroke-linejoin:round;stroke-miterlimit:4;stroke-dasharray:none;stroke-dashoffset:0;stroke-opacity:1;color-rendering:auto;image-rendering:auto;shape-rendering:auto;text-rendering:auto;enable-background:accumulate;stop-color:#000000;stop-opacity:1"
         d="m 72.400391,12.912109 a 1.5,1.5 0 0 0 -0.394532,0.05274 1.5,1.5 0 0 0 -1.050781,1.841797 c 0,0 0.357633,1.310604 0.546875,2.90039 0.189242,1.589786 0.05547,3.431721 -0.300781,4.042969 a 1.50015,1.50015 0 0 0 -0.03516,0.06445 c -1.139243,2.196557 -2.724009,2.744499 -4.71875,3.539063 -0.997371,0.397282 -2.083802,0.82356 -3.085938,1.607422 -1.002136,0.783861 -1.856698,1.965283 -2.277344,3.535156 -0.871558,3.252701 0.583656,6.34966 2.058594,8.59375 1.474938,2.244089 3.134766,3.78125 3.134766,3.78125 a 1.5,1.5 0 0 0 2.11914,-0.07617 1.5,1.5 0 0 0 -0.07617,-2.121094 c 0,0 -1.415668,-1.324099 -2.669921,-3.232422 -1.254254,-1.908323 -2.182217,-4.256059 -1.669922,-6.167968 0.27128,-1.012433 0.664436,-1.506474 1.230469,-1.949219 0.566032,-0.442746 1.368872,-0.794494 2.345703,-1.183594 1.943454,-0.774135 4.627253,-1.833639 6.242187,-4.904297 1.072567,-1.859915 0.899567,-4.052059 0.681641,-5.882812 -0.218785,-1.837965 -0.63086,-3.337891 -0.63086,-3.337891 a 1.5,1.5 0 0 0 -1.449218,-1.103516 z"
         id="path913" />
    </g>
  </g>
</svg>
