<?xml version="1.0" encoding="UTF-8" standalone="no"?>
<svg xmlns:dc="http://purl.org/dc/elements/1.1/" xmlns:cc="http://creativecommons.org/ns#" xmlns:rdf="http://www.w3.org/1999/02/22-rdf-syntax-ns#" xmlns:svg="http://www.w3.org/2000/svg" xmlns="http://www.w3.org/2000/svg" xmlns:sodipodi="http://sodipodi.sourceforge.net/DTD/sodipodi-0.dtd" xmlns:inkscape="http://www.inkscape.org/namespaces/inkscape" sodipodi:docname="10_Cent.svg" inkscape:version="1.0 (4035a4fb49, 2020-05-01)" id="svg8" version="1.1" viewBox="0 0 79.374999 79.374999" height="300" width="300">
  <defs id="defs2"/>
  <sodipodi:namedview inkscape:window-maximized="1" inkscape:window-y="-8" inkscape:window-x="1912" inkscape:window-height="1027" inkscape:window-width="1920" showgrid="false" inkscape:document-rotation="0" inkscape:current-layer="layer1" inkscape:document-units="mm" inkscape:cy="155.8495" inkscape:cx="58.145949" inkscape:zoom="0.98994949" inkscape:pageshadow="2" inkscape:pageopacity="0.0" borderopacity="1.0" bordercolor="#666666" pagecolor="#ffffff" id="base" units="px"/>
  <metadata id="metadata5">
    <rdf:RDF>
      <cc:Work rdf:about="">
        <dc:format>image/svg+xml</dc:format>
        <dc:type rdf:resource="http://purl.org/dc/dcmitype/StillImage"/>
        <dc:title/>
      </cc:Work>
    </rdf:RDF>
  </metadata>
  <g id="layer1" inkscape:groupmode="layer" inkscape:label="Ebene 1">
    <g transform="matrix(0.9679878,0,0,0.9679878,-61.951219,-104.05869)" style="fill:#d4aa00" id="g1391">
      <g id="g1339" transform="translate(0.49996948)" style="fill:#d4aa00;fill-opacity:1">
        <path d="m 104.43852,107.5 h 0.12296 c 0.51994,0 0.93852,0.49631 0.93852,1.1128 v 79.7744 c 0,0.61649 -0.41858,1.1128 -0.93852,1.1128 h -0.12296 c -0.51994,0 -0.93852,-0.49631 -0.93852,-1.1128 v -79.7744 c 0,-0.61649 0.41858,-1.1128 0.93852,-1.1128 z" style="fill:#d4aa00;fill-opacity:1;stroke-width:0.58079;stroke-linecap:round;stroke-linejoin:round" id="rect839"/>
        <path d="m 113.92714,100.34742 h 0.12295 c 0.51995,0 0.93853,0.49631 0.93853,1.1128 v 79.7744 c 0,0.61649 -0.41858,1.1128 -0.93853,1.1128 h -0.12295 c -0.51994,0 -0.93852,-0.49631 -0.93852,-1.1128 v -79.7744 c 0,-0.61649 0.41858,-1.1128 0.93852,-1.1128 z" transform="rotate(3.75)" style="fill:#d4aa00;fill-opacity:1;stroke-width:0.58079;stroke-linecap:round;stroke-linejoin:round" id="rect1195"/>
        <path d="m 122.92764,92.589569 h 0.12296 c 0.51994,0 0.93852,0.496309 0.93852,1.112801 v 79.7744 c 0,0.61649 -0.41858,1.1128 -0.93852,1.1128 h -0.12296 c -0.51994,0 -0.93852,-0.49631 -0.93852,-1.1128 v -79.7744 c 0,-0.616492 0.41858,-1.112801 0.93852,-1.112801 z" transform="rotate(7.5)" style="fill:#d4aa00;fill-opacity:1;stroke-width:0.58079;stroke-linecap:round;stroke-linejoin:round" id="rect1197"/>
        <path d="m 131.40149,84.259666 h 0.12295 c 0.51995,0 0.93853,0.49631 0.93853,1.112802 v 79.774402 c 0,0.61649 -0.41858,1.1128 -0.93853,1.1128 h -0.12295 c -0.51994,0 -0.93852,-0.49631 -0.93852,-1.1128 V 85.372468 c 0,-0.616492 0.41858,-1.112802 0.93852,-1.112802 z" transform="rotate(11.25)" style="fill:#d4aa00;fill-opacity:1;stroke-width:0.58079;stroke-linecap:round;stroke-linejoin:round" id="rect1199"/>
        <path d="m 139.31239,75.393387 h 0.12296 c 0.51994,0 0.93852,0.496309 0.93852,1.112801 v 79.774402 c 0,0.61649 -0.41858,1.1128 -0.93852,1.1128 h -0.12296 c -0.51994,0 -0.93852,-0.49631 -0.93852,-1.1128 V 76.506188 c 0,-0.616492 0.41858,-1.112801 0.93852,-1.112801 z" transform="rotate(15)" style="fill:#d4aa00;fill-opacity:1;stroke-width:0.58079;stroke-linecap:round;stroke-linejoin:round" id="rect1201"/>
        <path d="m 146.62648,66.028694 h 0.12296 c 0.51994,0 0.93852,0.49631 0.93852,1.112801 v 79.774395 c 0,0.61649 -0.41858,1.1128 -0.93852,1.1128 h -0.12296 c -0.51994,0 -0.93852,-0.49631 -0.93852,-1.1128 V 67.141495 c 0,-0.616491 0.41858,-1.112801 0.93852,-1.112801 z" transform="rotate(18.75)" style="fill:#d4aa00;fill-opacity:1;stroke-width:0.58079;stroke-linecap:round;stroke-linejoin:round" id="rect1203"/>
        <path d="m 153.31242,56.205685 h 0.12296 c 0.51994,0 0.93852,0.496309 0.93852,1.112801 v 79.774394 c 0,0.6165 -0.41858,1.1128 -0.93852,1.1128 h -0.12296 c -0.51994,0 -0.93852,-0.4963 -0.93852,-1.1128 V 57.318486 c 0,-0.616492 0.41858,-1.112801 0.93852,-1.112801 z" transform="rotate(22.5)" style="fill:#d4aa00;fill-opacity:1;stroke-width:0.58079;stroke-linecap:round;stroke-linejoin:round" id="rect1205"/>
        <path d="m 159.3416,45.966427 h 0.12295 c 0.51995,0 0.93853,0.496309 0.93853,1.112801 v 79.774402 c 0,0.61649 -0.41858,1.1128 -0.93853,1.1128 h -0.12295 c -0.51994,0 -0.93852,-0.49631 -0.93852,-1.1128 V 47.079228 c 0,-0.616492 0.41858,-1.112801 0.93852,-1.112801 z" transform="rotate(26.25)" style="fill:#d4aa00;fill-opacity:1;stroke-width:0.58079;stroke-linecap:round;stroke-linejoin:round" id="rect1207"/>
        <path d="m 164.68819,35.354767 h 0.12295 c 0.51994,0 0.93852,0.496309 0.93852,1.112801 v 79.774402 c 0,0.61649 -0.41858,1.1128 -0.93852,1.1128 h -0.12295 c -0.51994,0 -0.93853,-0.49631 -0.93853,-1.1128 V 36.467568 c 0,-0.616492 0.41859,-1.112801 0.93853,-1.112801 z" transform="rotate(30)" style="fill:#d4aa00;fill-opacity:1;stroke-width:0.58079;stroke-linecap:round;stroke-linejoin:round" id="rect1209"/>
        <path d="m 169.32928,24.416142 h 0.12296 c 0.51994,0 0.93852,0.496309 0.93852,1.112801 v 79.774397 c 0,0.61649 -0.41858,1.1128 -0.93852,1.1128 h -0.12296 c -0.51994,0 -0.93852,-0.49631 -0.93852,-1.1128 V 25.528943 c 0,-0.616492 0.41858,-1.112801 0.93852,-1.112801 z" transform="rotate(33.75)" style="fill:#d4aa00;fill-opacity:1;stroke-width:0.58079;stroke-linecap:round;stroke-linejoin:round" id="rect1211"/>
        <path d="m 173.24503,13.197394 h 0.12295 c 0.51994,0 0.93852,0.49631 0.93852,1.112802 v 79.774397 c 0,0.616492 -0.41858,1.112801 -0.93852,1.112801 h -0.12295 c -0.51995,0 -0.93853,-0.496309 -0.93853,-1.112801 V 14.310196 c 0,-0.616492 0.41858,-1.112802 0.93853,-1.112802 z" transform="rotate(37.5)" style="fill:#d4aa00;fill-opacity:1;stroke-width:0.58079;stroke-linecap:round;stroke-linejoin:round" id="rect1213"/>
        <path d="m 176.41864,1.7465659 h 0.12296 c 0.51994,0 0.93852,0.4963094 0.93852,1.1128014 V 82.633765 c 0,0.616492 -0.41858,1.112801 -0.93852,1.112801 h -0.12296 c -0.51994,0 -0.93852,-0.496309 -0.93852,-1.112801 V 2.8593673 c 0,-0.616492 0.41858,-1.1128014 0.93852,-1.1128014 z" transform="rotate(41.25)" style="fill:#d4aa00;fill-opacity:1;stroke-width:0.58079;stroke-linecap:round;stroke-linejoin:round" id="rect1215"/>
        <path d="m 178.83655,-9.88731 h 0.12295 c 0.51994,0 0.93853,0.4963094 0.93853,1.1128013 V 70.999889 c 0,0.616492 -0.41859,1.112801 -0.93853,1.112801 h -0.12295 c -0.51994,0 -0.93852,-0.496309 -0.93852,-1.112801 V -8.7745087 c 0,-0.6164919 0.41858,-1.1128013 0.93852,-1.1128013 z" transform="rotate(45)" style="fill:#d4aa00;fill-opacity:1;stroke-width:0.58079;stroke-linecap:round;stroke-linejoin:round" id="rect1217"/>
        <path d="m 180.48839,-21.654415 h 0.12295 c 0.51994,0 0.93853,0.496309 0.93853,1.112801 v 79.774398 c 0,0.616491 -0.41859,1.112801 -0.93853,1.112801 h -0.12295 c -0.51994,0 -0.93852,-0.49631 -0.93852,-1.112801 v -79.774398 c 0,-0.616492 0.41858,-1.112801 0.93852,-1.112801 z" transform="rotate(48.75)" style="fill:#d4aa00;fill-opacity:1;stroke-width:0.58079;stroke-linecap:round;stroke-linejoin:round" id="rect1219"/>
        <path d="m 181.36708,-33.50436 h 0.12296 c 0.51994,0 0.93852,0.496309 0.93852,1.112801 v 79.774397 c 0,0.616492 -0.41858,1.112802 -0.93852,1.112802 h -0.12296 c -0.51994,0 -0.93852,-0.49631 -0.93852,-1.112802 v -79.774397 c 0,-0.616492 0.41858,-1.112801 0.93852,-1.112801 z" transform="rotate(52.5)" style="fill:#d4aa00;fill-opacity:1;stroke-width:0.58079;stroke-linecap:round;stroke-linejoin:round" id="rect1221"/>
        <path d="m 181.46887,-45.386406 h 0.12296 c 0.51994,0 0.93852,0.496309 0.93852,1.112801 v 79.774398 c 0,0.616492 -0.41858,1.112801 -0.93852,1.112801 h -0.12296 c -0.51994,0 -0.93852,-0.496309 -0.93852,-1.112801 v -79.774398 c 0,-0.616492 0.41858,-1.112801 0.93852,-1.112801 z" transform="rotate(56.25)" style="fill:#d4aa00;fill-opacity:1;stroke-width:0.58079;stroke-linecap:round;stroke-linejoin:round" id="rect1223"/>
        <path d="m 180.79332,-57.249668 h 0.12295 c 0.51995,0 0.93853,0.496309 0.93853,1.112801 v 79.774398 c 0,0.616491 -0.41858,1.112801 -0.93853,1.112801 h -0.12295 c -0.51994,0 -0.93852,-0.49631 -0.93852,-1.112801 v -79.774398 c 0,-0.616492 0.41858,-1.112801 0.93852,-1.112801 z" transform="rotate(60)" style="fill:#d4aa00;fill-opacity:1;stroke-width:0.58079;stroke-linecap:round;stroke-linejoin:round" id="rect1225"/>
        <path d="m 179.34332,-69.043343 h 0.12296 c 0.51994,0 0.93852,0.49631 0.93852,1.112802 v 79.774397 c 0,0.616492 -0.41858,1.112801 -0.93852,1.112801 h -0.12296 c -0.51994,0 -0.93852,-0.496309 -0.93852,-1.112801 v -79.774397 c 0,-0.616492 0.41858,-1.112802 0.93852,-1.112802 z" transform="rotate(63.75)" style="fill:#d4aa00;fill-opacity:1;stroke-width:0.58079;stroke-linecap:round;stroke-linejoin:round" id="rect1227"/>
        <path d="m 177.12508,-80.716934 h 0.12295 c 0.51994,0 0.93852,0.496309 0.93852,1.112801 V 0.17026448 c 0,0.61649193 -0.41858,1.11280132 -0.93852,1.11280132 h -0.12295 c -0.51995,0 -0.93853,-0.49630939 -0.93853,-1.11280132 V -79.604133 c 0,-0.616492 0.41858,-1.112801 0.93853,-1.112801 z" transform="rotate(67.5)" style="fill:#d4aa00;fill-opacity:1;stroke-width:0.58079;stroke-linecap:round;stroke-linejoin:round" id="rect1229"/>
        <path d="m 174.1481,-92.220451 h 0.12296 c 0.51994,0 0.93852,0.496309 0.93852,1.112801 v 79.774397 c 0,0.616492 -0.41858,1.112802 -0.93852,1.112802 h -0.12296 c -0.51994,0 -0.93852,-0.49631 -0.93852,-1.112802 V -91.10765 c 0,-0.616492 0.41858,-1.112801 0.93852,-1.112801 z" transform="rotate(71.25)" style="fill:#d4aa00;fill-opacity:1;stroke-width:0.58079;stroke-linecap:round;stroke-linejoin:round" id="rect1231"/>
        <path d="m 170.42513,-103.50464 h 0.12295 c 0.51994,0 0.93852,0.49631 0.93852,1.1128 v 79.7744 c 0,0.616492 -0.41858,1.112801 -0.93852,1.112801 h -0.12295 c -0.51995,0 -0.93853,-0.496309 -0.93853,-1.112801 v -79.7744 c 0,-0.61649 0.41858,-1.1128 0.93853,-1.1128 z" transform="rotate(75)" style="fill:#d4aa00;fill-opacity:1;stroke-width:0.58079;stroke-linecap:round;stroke-linejoin:round" id="rect1233"/>
        <path d="m 165.97211,-114.52117 h 0.12295 c 0.51994,0 0.93852,0.49631 0.93852,1.1128 v 79.774397 c 0,0.616492 -0.41858,1.112801 -0.93852,1.112801 h -0.12295 c -0.51994,0 -0.93853,-0.496309 -0.93853,-1.112801 v -79.774397 c 0,-0.61649 0.41859,-1.1128 0.93853,-1.1128 z" transform="rotate(78.75)" style="fill:#d4aa00;fill-opacity:1;stroke-width:0.58079;stroke-linecap:round;stroke-linejoin:round" id="rect1235"/>
        <path d="m 160.80811,-125.22287 h 0.12295 c 0.51994,0 0.93852,0.49631 0.93852,1.1128 v 79.774399 c 0,0.616492 -0.41858,1.112801 -0.93852,1.112801 h -0.12295 c -0.51995,0 -0.93853,-0.496309 -0.93853,-1.112801 v -79.774399 c 0,-0.61649 0.41858,-1.1128 0.93853,-1.1128 z" transform="rotate(82.5)" style="fill:#d4aa00;fill-opacity:1;stroke-width:0.58079;stroke-linecap:round;stroke-linejoin:round" id="rect1237"/>
        <path d="m 154.95523,-135.56392 h 0.12296 c 0.51994,0 0.93852,0.49631 0.93852,1.1128 v 79.7744 c 0,0.616492 -0.41858,1.112801 -0.93852,1.112801 h -0.12296 c -0.51994,0 -0.93852,-0.496309 -0.93852,-1.112801 v -79.7744 c 0,-0.61649 0.41858,-1.1128 0.93852,-1.1128 z" transform="rotate(86.25)" style="fill:#d4aa00;fill-opacity:1;stroke-width:0.58079;stroke-linecap:round;stroke-linejoin:round" id="rect1239"/>
        <path d="m 148.43855,-145.50003 h 0.12296 c 0.51994,0 0.93852,0.49631 0.93852,1.1128 v 79.774398 c 0,0.616492 -0.41858,1.112801 -0.93852,1.112801 h -0.12296 c -0.51994,0 -0.93852,-0.496309 -0.93852,-1.112801 v -79.774398 c 0,-0.61649 0.41858,-1.1128 0.93852,-1.1128 z" transform="rotate(90)" style="fill:#d4aa00;fill-opacity:1;stroke-width:0.58079;stroke-linecap:round;stroke-linejoin:round" id="rect1241"/>
        <path d="m 141.28598,-154.98865 h 0.12296 c 0.51994,0 0.93852,0.49631 0.93852,1.1128 v 79.774401 c 0,0.616492 -0.41858,1.112802 -0.93852,1.112802 h -0.12296 c -0.51994,0 -0.93852,-0.49631 -0.93852,-1.112802 v -79.774401 c 0,-0.61649 0.41858,-1.1128 0.93852,-1.1128 z" transform="rotate(93.75)" style="fill:#d4aa00;fill-opacity:1;stroke-width:0.58079;stroke-linecap:round;stroke-linejoin:round" id="rect1243"/>
        <path d="m 133.52814,-163.98915 h 0.12295 c 0.51994,0 0.93852,0.49631 0.93852,1.1128 v 79.774398 c 0,0.616492 -0.41858,1.112801 -0.93852,1.112801 h -0.12295 c -0.51994,0 -0.93853,-0.496309 -0.93853,-1.112801 v -79.774398 c 0,-0.61649 0.41859,-1.1128 0.93853,-1.1128 z" transform="rotate(97.5)" style="fill:#d4aa00;fill-opacity:1;stroke-width:0.58079;stroke-linecap:round;stroke-linejoin:round" id="rect1245"/>
        <path d="m 125.19823,-172.463 h 0.12296 c 0.51994,0 0.93852,0.49631 0.93852,1.1128 v 79.774401 c 0,0.616492 -0.41858,1.112802 -0.93852,1.112802 h -0.12296 c -0.51994,0 -0.93852,-0.49631 -0.93852,-1.112802 V -171.3502 c 0,-0.61649 0.41858,-1.1128 0.93852,-1.1128 z" transform="rotate(101.25)" style="fill:#d4aa00;fill-opacity:1;stroke-width:0.58079;stroke-linecap:round;stroke-linejoin:round" id="rect1247"/>
        <path d="m 116.33196,-180.3739 h 0.12295 c 0.51994,0 0.93852,0.49631 0.93852,1.1128 v 79.774397 c 0,0.616492 -0.41858,1.112802 -0.93852,1.112802 h -0.12295 c -0.51995,0 -0.93853,-0.49631 -0.93853,-1.112802 V -179.2611 c 0,-0.61649 0.41858,-1.1128 0.93853,-1.1128 z" transform="rotate(105)" style="fill:#d4aa00;fill-opacity:1;stroke-width:0.58079;stroke-linecap:round;stroke-linejoin:round" id="rect1249"/>
        <path d="m 106.96725,-187.68799 h 0.12296 c 0.51994,0 0.93852,0.49631 0.93852,1.1128 v 79.7744 c 0,0.61649 -0.41858,1.1128 -0.93852,1.1128 h -0.12296 c -0.51994,0 -0.93852,-0.49631 -0.93852,-1.1128 v -79.7744 c 0,-0.61649 0.41858,-1.1128 0.93852,-1.1128 z" transform="rotate(108.75)" style="fill:#d4aa00;fill-opacity:1;stroke-width:0.58079;stroke-linecap:round;stroke-linejoin:round" id="rect1251"/>
        <path d="m 97.144242,-194.37393 h 0.122954 c 0.519942,0 0.938523,0.49631 0.938523,1.1128 v 79.7744 c 0,0.61649 -0.418581,1.1128 -0.938523,1.1128 h -0.122954 c -0.519942,0 -0.938523,-0.49631 -0.938523,-1.1128 v -79.7744 c 0,-0.61649 0.418581,-1.1128 0.938523,-1.1128 z" transform="rotate(112.5)" style="fill:#d4aa00;fill-opacity:1;stroke-width:0.58079;stroke-linecap:round;stroke-linejoin:round" id="rect1253"/>
        <path d="m 86.904984,-200.40311 h 0.122955 c 0.519941,0 0.938522,0.49631 0.938522,1.1128 v 79.7744 c 0,0.61649 -0.418581,1.1128 -0.938522,1.1128 h -0.122955 c -0.519942,0 -0.938523,-0.49631 -0.938523,-1.1128 v -79.7744 c 0,-0.61649 0.418581,-1.1128 0.938523,-1.1128 z" transform="rotate(116.25)" style="fill:#d4aa00;fill-opacity:1;stroke-width:0.58079;stroke-linecap:round;stroke-linejoin:round" id="rect1255"/>
        <path d="m 76.29332,-205.74969 h 0.122955 c 0.519941,0 0.938522,0.4963 0.938522,1.1128 v 79.77439 c 0,0.6165 -0.418581,1.11281 -0.938522,1.11281 H 76.29332 c -0.519942,0 -0.938523,-0.49631 -0.938523,-1.11281 v -79.77439 c 0,-0.6165 0.418581,-1.1128 0.938523,-1.1128 z" transform="rotate(120)" style="fill:#d4aa00;fill-opacity:1;stroke-width:0.58079;stroke-linecap:round;stroke-linejoin:round" id="rect1257"/>
        <path d="m 65.354691,-210.39079 h 0.122955 c 0.519941,0 0.938522,0.49631 0.938522,1.1128 v 79.7744 c 0,0.61649 -0.418581,1.1128 -0.938522,1.1128 h -0.122955 c -0.519942,0 -0.938523,-0.49631 -0.938523,-1.1128 v -79.7744 c 0,-0.61649 0.418581,-1.1128 0.938523,-1.1128 z" transform="rotate(123.75)" style="fill:#d4aa00;fill-opacity:1;stroke-width:0.58079;stroke-linecap:round;stroke-linejoin:round" id="rect1259"/>
        <path d="m 54.135941,-214.30653 h 0.122955 c 0.519941,0 0.938522,0.49631 0.938522,1.1128 v 79.77439 c 0,0.6165 -0.418581,1.11281 -0.938522,1.11281 h -0.122955 c -0.519942,0 -0.938523,-0.49631 -0.938523,-1.11281 v -79.77439 c 0,-0.61649 0.418581,-1.1128 0.938523,-1.1128 z" transform="rotate(127.5)" style="fill:#d4aa00;fill-opacity:1;stroke-width:0.58079;stroke-linecap:round;stroke-linejoin:round" id="rect1261"/>
        <path d="m 42.685108,-217.48015 h 0.122955 c 0.519942,0 0.938523,0.49631 0.938523,1.1128 v 79.7744 c 0,0.61649 -0.418581,1.1128 -0.938523,1.1128 h -0.122955 c -0.519941,0 -0.938522,-0.49631 -0.938522,-1.1128 v -79.7744 c 0,-0.61649 0.418581,-1.1128 0.938522,-1.1128 z" transform="rotate(131.25)" style="fill:#d4aa00;fill-opacity:1;stroke-width:0.58079;stroke-linecap:round;stroke-linejoin:round" id="rect1263"/>
        <path d="m 31.051232,-219.89806 h 0.122955 c 0.519941,0 0.938522,0.49631 0.938522,1.11281 v 79.77439 c 0,0.61649 -0.418581,1.1128 -0.938522,1.1128 h -0.122955 c -0.519942,0 -0.938523,-0.49631 -0.938523,-1.1128 v -79.77439 c 0,-0.6165 0.418581,-1.11281 0.938523,-1.11281 z" transform="rotate(135)" style="fill:#d4aa00;fill-opacity:1;stroke-width:0.58079;stroke-linecap:round;stroke-linejoin:round" id="rect1265"/>
        <path d="m 19.284125,-221.5499 h 0.122955 c 0.519941,0 0.938522,0.49631 0.938522,1.11281 v 79.77439 c 0,0.61649 -0.418581,1.1128 -0.938522,1.1128 h -0.122955 c -0.519942,0 -0.938523,-0.49631 -0.938523,-1.1128 v -79.77439 c 0,-0.6165 0.418581,-1.11281 0.938523,-1.11281 z" transform="rotate(138.75)" style="fill:#d4aa00;fill-opacity:1;stroke-width:0.58079;stroke-linecap:round;stroke-linejoin:round" id="rect1267"/>
        <path d="m 7.4341761,-222.42859 h 0.122955 c 0.5199415,0 0.9385225,0.49631 0.9385225,1.1128 v 79.7744 c 0,0.61649 -0.418581,1.1128 -0.9385225,1.1128 h -0.122955 c -0.5199414,0 -0.9385225,-0.49631 -0.9385225,-1.1128 v -79.7744 c 0,-0.61649 0.4185811,-1.1128 0.9385225,-1.1128 z" transform="rotate(142.5)" style="fill:#d4aa00;fill-opacity:1;stroke-width:0.58079;stroke-linecap:round;stroke-linejoin:round" id="rect1269"/>
        <path d="m -4.4478701,-222.53038 h 0.122955 c 0.5199415,0 0.9385225,0.49631 0.9385225,1.1128 v 79.7744 c 0,0.61649 -0.418581,1.1128 -0.9385225,1.1128 h -0.122955 c -0.5199415,0 -0.9385225,-0.49631 -0.9385225,-1.1128 v -79.7744 c 0,-0.61649 0.418581,-1.1128 0.9385225,-1.1128 z" transform="rotate(146.25)" style="fill:#d4aa00;fill-opacity:1;stroke-width:0.58079;stroke-linecap:round;stroke-linejoin:round" id="rect1271"/>
        <path d="m -16.311134,-221.85483 h 0.122955 c 0.519941,0 0.938522,0.49631 0.938522,1.1128 v 79.7744 c 0,0.61649 -0.418581,1.1128 -0.938522,1.1128 h -0.122955 c -0.519942,0 -0.938523,-0.49631 -0.938523,-1.1128 v -79.7744 c 0,-0.61649 0.418581,-1.1128 0.938523,-1.1128 z" transform="rotate(150)" style="fill:#d4aa00;fill-opacity:1;stroke-width:0.58079;stroke-linecap:round;stroke-linejoin:round" id="rect1273"/>
        <path d="m -28.104814,-220.40483 h 0.122955 c 0.519941,0 0.938522,0.49631 0.938522,1.1128 v 79.7744 c 0,0.61649 -0.418581,1.1128 -0.938522,1.1128 h -0.122955 c -0.519942,0 -0.938523,-0.49631 -0.938523,-1.1128 v -79.7744 c 0,-0.61649 0.418581,-1.1128 0.938523,-1.1128 z" transform="rotate(153.75)" style="fill:#d4aa00;fill-opacity:1;stroke-width:0.58079;stroke-linecap:round;stroke-linejoin:round" id="rect1275"/>
        <path d="m -39.778408,-218.18658 h 0.122955 c 0.519942,0 0.938523,0.4963 0.938523,1.1128 v 79.77439 c 0,0.6165 -0.418581,1.11281 -0.938523,1.11281 h -0.122955 c -0.519941,0 -0.938522,-0.49631 -0.938522,-1.11281 v -79.77439 c 0,-0.6165 0.418581,-1.1128 0.938522,-1.1128 z" transform="rotate(157.5)" style="fill:#d4aa00;fill-opacity:1;stroke-width:0.58079;stroke-linecap:round;stroke-linejoin:round" id="rect1277"/>
        <path d="m -51.281929,-215.20961 h 0.122955 c 0.519942,0 0.938523,0.49631 0.938523,1.1128 v 79.7744 c 0,0.61649 -0.418581,1.1128 -0.938523,1.1128 h -0.122955 c -0.519941,0 -0.938522,-0.49631 -0.938522,-1.1128 v -79.7744 c 0,-0.61649 0.418581,-1.1128 0.938522,-1.1128 z" transform="rotate(161.25)" style="fill:#d4aa00;fill-opacity:1;stroke-width:0.58079;stroke-linecap:round;stroke-linejoin:round" id="rect1279"/>
        <path d="m -62.566116,-211.48663 h 0.122955 c 0.519941,0 0.938522,0.49631 0.938522,1.1128 v 79.7744 c 0,0.61649 -0.418581,1.1128 -0.938522,1.1128 h -0.122955 c -0.519942,0 -0.938523,-0.49631 -0.938523,-1.1128 v -79.7744 c 0,-0.61649 0.418581,-1.1128 0.938523,-1.1128 z" transform="rotate(165)" style="fill:#d4aa00;fill-opacity:1;stroke-width:0.58079;stroke-linecap:round;stroke-linejoin:round" id="rect1281"/>
        <path d="m -73.582649,-207.03362 h 0.122955 c 0.519941,0 0.938522,0.49631 0.938522,1.11281 v 79.77439 c 0,0.6165 -0.418581,1.1128 -0.938522,1.1128 h -0.122955 c -0.519942,0 -0.938523,-0.4963 -0.938523,-1.1128 v -79.77439 c 0,-0.6165 0.418581,-1.11281 0.938523,-1.11281 z" transform="rotate(168.75)" style="fill:#d4aa00;fill-opacity:1;stroke-width:0.58079;stroke-linecap:round;stroke-linejoin:round" id="rect1283"/>
        <path d="m -84.284355,-201.86961 h 0.122955 c 0.519941,0 0.938522,0.49631 0.938522,1.1128 v 79.7744 c 0,0.61649 -0.418581,1.1128 -0.938522,1.1128 h -0.122955 c -0.519941,0 -0.938523,-0.49631 -0.938523,-1.1128 v -79.7744 c 0,-0.61649 0.418582,-1.1128 0.938523,-1.1128 z" transform="rotate(172.5)" style="fill:#d4aa00;fill-opacity:1;stroke-width:0.58079;stroke-linecap:round;stroke-linejoin:round" id="rect1285"/>
        <path d="m -94.625404,-196.01674 h 0.122955 c 0.519941,0 0.938522,0.49631 0.938522,1.1128 v 79.7744 c 0,0.61649 -0.418581,1.1128 -0.938522,1.1128 h -0.122955 c -0.519942,0 -0.938523,-0.49631 -0.938523,-1.1128 v -79.7744 c 0,-0.61649 0.418581,-1.1128 0.938523,-1.1128 z" transform="rotate(176.25)" style="fill:#d4aa00;fill-opacity:1;stroke-width:0.58079;stroke-linecap:round;stroke-linejoin:round" id="rect1287"/>
      </g>
      <path d="m 145,148.5 a 40,40 0 0 1 -40,40 40,40 0 0 1 -40,-40 40,40 0 0 1 40,-40 40,40 0 0 1 40,40" style="fill:#d4aa00;stroke-width:4.5352;stroke-linecap:round;stroke-linejoin:round" id="path1289"/>
    </g>
    <path d="M 76.955029,39.6875 A 37.267529,37.267529 0 0 1 39.6875,76.955029 37.267529,37.267529 0 0 1 2.4199715,39.6875 37.267529,37.267529 0 0 1 39.6875,2.4199715 37.267529,37.267529 0 0 1 76.955029,39.6875" style="fill:#d4aa00;fill-opacity:1;stroke-width:1.62301;stroke-linecap:round;stroke-linejoin:round" id="path1399"/>
    <g style="font-style:italic;font-variant:normal;font-weight:normal;font-stretch:normal;font-size:54.8538px;line-height:1.25;font-family:'Bell MT';-inkscape-font-specification:'Bell MT, Italic';font-variant-ligatures:normal;font-variant-caps:normal;font-variant-numeric:normal;font-variant-east-asian:normal;text-align:start;letter-spacing:-9.43536px;word-spacing:-0.016296px;writing-mode:lr-tb;direction:ltr;text-anchor:start;fill:#806600;fill-opacity:1;stroke:#806600;stroke-width:0.285697;stroke-opacity:1" id="text1403" aria-label="10">
      <path id="path1027" style="font-style:italic;font-variant:normal;font-weight:normal;font-stretch:normal;font-size:54.8538px;font-family:'Bell MT';-inkscape-font-specification:'Bell MT, Italic';font-variant-ligatures:normal;font-variant-caps:normal;font-variant-numeric:normal;font-variant-east-asian:normal;fill:#806600;fill-opacity:1;stroke:#806600;stroke-width:0.285697;stroke-opacity:1" d="m 37.699146,42.315251 q 0,1.205283 0.991011,1.714181 1.017796,0.508897 1.848102,0.508897 1.151716,0.02678 1.151716,0.482114 0,0.535682 -0.803523,0.535682 -0.696386,0 -2.705192,-0.133921 -1.285636,-0.08035 -3.93726,-0.08035 -1.473125,0 -2.196295,0.05357 -1.714181,0.13392 -2.249863,0.13392 -0.830307,0 -0.830307,-0.508897 0,-0.482114 0.964227,-0.508898 1.660613,-0.05357 2.62484,-0.937443 0.991012,-0.883874 1.419557,-2.196294 0.428545,-1.339205 2.678408,-8.704827 l 2.812329,-8.999452 q 0.455329,-1.365988 0.455329,-2.437352 0,-0.910659 -0.883875,-1.553477 -0.883874,-0.669602 -2.544487,-0.669602 -1.017796,0 -1.017796,-0.508897 0,-0.562466 0.883875,-0.562466 6.026419,-0.08035 7.901305,-1.339204 0.482113,-0.321409 0.749954,-0.321409 0.374977,0 0.374977,0.482113 0,0.187489 -2.062374,6.856726 l -4.955056,15.990097 q -0.669602,2.089159 -0.669602,2.705193 z"/>
      <path id="path1029" style="font-style:italic;font-variant:normal;font-weight:normal;font-stretch:normal;font-size:54.8538px;font-family:'Bell MT';-inkscape-font-specification:'Bell MT, Italic';font-variant-ligatures:normal;font-variant-caps:normal;font-variant-numeric:normal;font-variant-east-asian:normal;fill:#806600;fill-opacity:1;stroke:#806600;stroke-width:0.285697;stroke-opacity:1" d="m 44.494942,34.708571 q 0,-4.553294 1.955238,-8.704827 1.955238,-4.151533 5.356816,-6.803157 3.428363,-2.651624 7.767384,-2.651624 4.52651,0 6.990646,3.428362 2.490919,3.401579 2.490919,7.7406 0,6.803157 -4.285453,12.668872 -4.285453,5.865714 -11.035042,5.865714 -4.687214,0 -6.963861,-3.348011 -2.276647,-3.34801 -2.276647,-8.195929 z m 3.856907,3.722988 q 0,2.973033 1.392773,4.874703 1.392772,1.874885 4.044396,1.874885 4.821135,0 8.115577,-7.338838 3.294443,-7.365623 3.294443,-13.525962 0,-2.839113 -1.392773,-4.713999 -1.392772,-1.90167 -4.044396,-1.90167 -1.955238,0 -3.93726,1.365989 -1.982023,1.339204 -3.856908,4.767566 -1.874886,3.401579 -2.758761,7.901305 -0.857091,4.472942 -0.857091,6.696021 z"/>
    </g>
    <g style="fill:#806600" transform="matrix(-0.9679878,0,0,0.9679878,140.87404,-104.05869)" id="g1498">
      <path id="rect1409" style="fill:#806600;fill-opacity:1;stroke-width:3.93354;stroke-linecap:round;stroke-linejoin:round" d="m 448.92773,454.50391 c -1.44143,0 -2.60156,1.575 -2.60156,3.53125 v 58.22656 a 48.739861,45.709402 0 0 1 5.20508,-0.51563 v -57.71093 c 0,-1.95625 -1.16208,-3.53125 -2.60352,-3.53125 z m -2.60156,152.01757 v 57.80469 c 0,1.95625 1.16013,3.53125 2.60156,3.53125 1.44144,0 2.60352,-1.575 2.60352,-3.53125 v -57.28711 a 48.739861,45.709402 0 0 1 -5.20508,-0.51758 z" transform="scale(0.26458333)"/>
      <path d="m 118.77901,113.0235 c 0.38138,0 0.68841,0.4149 0.68841,0.93028 v 3.8833 c 0,0.51538 -0.30703,0.93028 -0.68841,0.93028 -0.38138,0 -0.68841,-0.4149 -0.68841,-0.93028 v -3.8833 c 0,-0.51538 0.30703,-0.93028 0.68841,-0.93028 z" style="fill:#806600;fill-opacity:1;stroke-width:0.331985;stroke-linecap:round;stroke-linejoin:round" id="rect1411"/>
      <path d="m 118.77901,178.35759 c 0.38138,0 0.68841,0.4149 0.68841,0.93028 v 3.8833 c 0,0.51538 -0.30703,0.93028 -0.68841,0.93028 -0.38138,0 -0.68841,-0.4149 -0.68841,-0.93028 v -3.8833 c 0,-0.51538 0.30703,-0.93028 0.68841,-0.93028 z" style="fill:#806600;fill-opacity:1;stroke-width:0.331985;stroke-linecap:round;stroke-linejoin:round" id="rect1413"/>
      <path id="rect1420" style="fill:#806600;fill-opacity:1;stroke-width:3.84231;stroke-linecap:round;stroke-linejoin:round" d="m 461.42773,459.18359 c -1.44143,0 -2.60156,1.50259 -2.60156,3.36914 v 53.34961 a 48.739861,45.709402 0 0 1 5.20508,0.74805 v -54.09766 c 0,-1.86655 -1.16208,-3.36914 -2.60352,-3.36914 z m 2.60352,146.95118 a 48.739861,45.709402 0 0 1 -5.20508,0.74804 v 52.50391 c 0,1.86656 1.16013,3.36914 2.60156,3.36914 1.44144,0 2.60352,-1.50258 2.60352,-3.36914 z" transform="scale(0.26458333)"/>
      <path d="m 122.0863,114.59347 c 0.38138,0 0.68841,0.39588 0.68841,0.88763 v 3.70527 c 0,0.49174 -0.30703,0.88762 -0.68841,0.88762 -0.38138,0 -0.68841,-0.39588 -0.68841,-0.88762 v -3.70527 c 0,-0.49175 0.30703,-0.88763 0.68841,-0.88763 z" style="fill:#806600;fill-opacity:1;stroke-width:0.324285;stroke-linecap:round;stroke-linejoin:round" id="rect1422"/>
      <path d="m 122.0863,176.93221 c 0.38138,0 0.68841,0.39588 0.68841,0.88762 v 3.70527 c 0,0.49175 -0.30703,0.88763 -0.68841,0.88763 -0.38138,0 -0.68841,-0.39588 -0.68841,-0.88763 v -3.70527 c 0,-0.49174 0.30703,-0.88762 0.68841,-0.88762 z" style="fill:#806600;fill-opacity:1;stroke-width:0.324285;stroke-linecap:round;stroke-linejoin:round" id="rect1424"/>
      <path id="rect1436" style="fill:#806600;fill-opacity:1;stroke-width:3.69637;stroke-linecap:round;stroke-linejoin:round" d="m 472.14258,466.37305 c -1.44144,0 -2.60156,1.38975 -2.60156,3.11718 v 48.5586 a 48.739861,45.709402 0 0 1 5.20312,1.95312 v -50.51172 c 0,-1.72743 -1.16013,-3.11718 -2.60156,-3.11718 z m 2.60156,136.41015 a 48.739861,45.709402 0 0 1 -5.20312,1.95313 v 46.91992 c 0,1.72743 1.16012,3.11719 2.60156,3.11719 1.44143,0 2.60156,-1.38976 2.60156,-3.11719 z" transform="scale(0.26458333)"/>
      <path d="m 124.92112,117.00961 c 0.38138,0 0.68842,0.36638 0.68842,0.82148 v 3.42913 c 0,0.45509 -0.30704,0.82147 -0.68842,0.82147 -0.38138,0 -0.68841,-0.36638 -0.68841,-0.82147 v -3.42913 c 0,-0.4551 0.30703,-0.82148 0.68841,-0.82148 z" style="fill:#806600;fill-opacity:1;stroke-width:0.311968;stroke-linecap:round;stroke-linejoin:round" id="rect1438"/>
      <path d="m 124.92112,174.70244 c 0.38138,0 0.68842,0.36638 0.68842,0.82148 v 3.42912 c 0,0.4551 -0.30704,0.82148 -0.68842,0.82148 -0.38138,0 -0.68841,-0.36638 -0.68841,-0.82148 v -3.42912 c 0,-0.4551 0.30703,-0.82148 0.68841,-0.82148 z" style="fill:#806600;fill-opacity:1;stroke-width:0.311968;stroke-linecap:round;stroke-linejoin:round" id="rect1440"/>
      <path id="rect1444" style="fill:#806600;fill-opacity:1;stroke-width:3.49215;stroke-linecap:round;stroke-linejoin:round" d="m 485.08984,477.77148 c -1.47481,0 -2.66211,1.21377 -2.66211,2.72071 v 43.73047 a 48.739861,45.709402 0 0 1 5.32422,4.13867 v -47.86914 c 0,-1.50694 -1.1873,-2.72071 -2.66211,-2.72071 z m 2.66211,116.6543 a 48.739861,45.709402 0 0 1 -5.32422,4.13672 v 40.84375 c 0,1.50697 1.1873,2.7207 2.66211,2.7207 1.47481,0 2.66211,-1.21373 2.66211,-2.7207 z" transform="scale(0.26458333)"/>
      <path d="m 128.34654,120.63477 c 0.39021,0 0.70435,0.33143 0.70435,0.74311 v 3.10196 c 0,0.41168 -0.31414,0.7431 -0.70435,0.7431 -0.39021,0 -0.70435,-0.33142 -0.70435,-0.7431 v -3.10196 c 0,-0.41168 0.31414,-0.74311 0.70435,-0.74311 z" style="fill:#806600;fill-opacity:1;stroke-width:0.300127;stroke-linecap:round;stroke-linejoin:round" id="rect1446"/>
      <path d="m 128.34654,172.30359 c 0.39021,0 0.70435,0.33142 0.70435,0.7431 v 3.10197 c 0,0.41167 -0.31414,0.7431 -0.70435,0.7431 -0.39021,0 -0.70435,-0.33143 -0.70435,-0.7431 v -3.10197 c 0,-0.41168 0.31414,-0.7431 0.70435,-0.7431 z" style="fill:#806600;fill-opacity:1;stroke-width:0.300127;stroke-linecap:round;stroke-linejoin:round" id="rect1448"/>
    </g>
    <g style="fill:#806600" transform="matrix(1.318304,0,0,1.318304,-94.881816,-163.29986)" id="g1533">
      <g style="font-style:italic;font-variant:normal;font-weight:bold;font-stretch:normal;font-size:5.9876px;line-height:1.25;font-family:'Book Antiqua';-inkscape-font-specification:'Book Antiqua, Bold Italic';font-variant-ligatures:normal;font-variant-caps:normal;font-variant-numeric:normal;font-variant-east-asian:normal;text-align:start;letter-spacing:0px;word-spacing:0px;writing-mode:lr-tb;direction:ltr;text-anchor:start;fill:#806600;fill-opacity:1;stroke:#806600;stroke-width:0.102362;stroke-miterlimit:4;stroke-dasharray:none;stroke-opacity:1" id="text1407" aria-label="EURO">
        <path id="path1038" style="font-style:italic;font-variant:normal;font-weight:bold;font-stretch:normal;font-size:5.9876px;font-family:'Book Antiqua';-inkscape-font-specification:'Book Antiqua, Bold Italic';font-variant-ligatures:normal;font-variant-caps:normal;font-variant-numeric:normal;font-variant-east-asian:normal;fill:#806600;fill-opacity:1;stroke:#806600;stroke-width:0.102362;stroke-miterlimit:4;stroke-dasharray:none;stroke-opacity:1" d="m 105.14342,166.87216 0.0322,-0.20173 q 0.30698,-0.0409 0.35961,-0.0906 0.0526,-0.0497 0.12571,-0.40639 0.0292,-0.14618 0.2339,-1.37118 l 0.20173,-1.21038 q 0.0585,-0.34792 0.0585,-0.46486 0,-0.0789 -0.0585,-0.1111 -0.0936,-0.0526 -0.30114,-0.0526 h -0.21635 l 0.0322,-0.19881 0.34499,0.009 0.32452,0.0117 1.0759,-0.0117 0.9648,-0.003 q 0.22804,0 0.36838,0.0234 l 0.0292,0.0234 q -0.0935,0.45901 -0.15202,0.91802 h -0.20466 l 0.009,-0.19296 0.003,-0.23389 q 0,-0.13448 -0.0848,-0.16372 -0.24558,-0.0906 -0.85662,-0.0906 -0.25728,0 -0.49117,0.0351 -0.15788,0.94141 -0.24851,1.49105 l 0.85662,0.0234 q 0.1111,0 0.52041,-0.0234 l 0.0175,0.038 -0.0702,0.28359 q -0.57888,-0.0292 -1.13729,-0.0292 -0.12572,0 -0.23681,0.006 l -0.27483,1.64893 q 0.31283,0.0409 0.62858,0.0409 0.47363,0 0.79231,-0.0555 0.16957,-0.0292 0.20758,-0.0643 0.0526,-0.0556 0.14618,-0.37423 l 0.076,-0.24266 h 0.2105 l -0.0936,0.5321 q -0.0497,0.26313 -0.0702,0.45024 l -0.0439,0.0497 q -0.13449,0.009 -0.27775,0.009 l -2.2892,-0.0409 q -0.24559,0 -0.51164,0.0409 z"/>
        <path id="path1040" style="font-style:italic;font-variant:normal;font-weight:bold;font-stretch:normal;font-size:5.9876px;font-family:'Book Antiqua';-inkscape-font-specification:'Book Antiqua, Bold Italic';font-variant-ligatures:normal;font-variant-caps:normal;font-variant-numeric:normal;font-variant-east-asian:normal;fill:#806600;fill-opacity:1;stroke:#806600;stroke-width:0.102362;stroke-miterlimit:4;stroke-dasharray:none;stroke-opacity:1" d="m 113.11909,166.67043 -0.0322,0.20173 q -0.3216,-0.0292 -0.84785,-0.0292 -0.2222,0 -0.4824,0.0205 l -0.0409,-0.0351 q 0.009,-0.0526 0.0497,-0.21927 0.0672,-0.2836 0.0965,-0.52333 -0.45024,0.47362 -0.84493,0.68997 -0.26605,0.14618 -0.61396,0.14618 -0.4824,0 -0.77477,-0.27482 -0.29236,-0.27482 -0.29236,-0.68705 0,-0.19296 0.0526,-0.51164 l 0.15495,-0.92094 q 0.19881,-1.20454 0.19881,-1.3858 0,-0.0965 -0.0585,-0.13741 -0.0555,-0.0409 -0.23096,-0.0409 h -0.24267 l 0.0351,-0.19881 0.91217,0.0117 q 0.24851,0 0.44147,-0.0117 l 0.0322,0.0409 q -0.14033,0.5935 -0.24266,1.20454 l -0.17542,1.05835 q -0.1111,0.66951 -0.1111,0.80692 0,0.24559 0.17542,0.40054 0.17542,0.15495 0.47655,0.15495 0.20173,0 0.42393,-0.0935 0.2222,-0.0936 0.44147,-0.29237 0.22219,-0.1988 0.25143,-0.26897 0.0322,-0.0702 0.13156,-0.67536 l 0.21051,-1.26008 q 0.0935,-0.56427 0.0935,-0.71922 0,-0.0789 -0.0672,-0.11694 -0.0673,-0.0409 -0.27482,-0.0409 h -0.2222 l 0.0351,-0.19881 q 0.50287,0.0205 0.80693,0.0205 l 1.07882,-0.0205 -0.0322,0.19881 h -0.1608 q -0.25728,0 -0.30991,0.0935 -0.076,0.13157 -0.22804,1.03497 l -0.23097,1.39457 q -0.13448,0.79523 -0.13448,0.97065 0,0.10817 0.0819,0.1608 0.0848,0.0526 0.30698,0.0526 z"/>
        <path id="path1042" style="font-style:italic;font-variant:normal;font-weight:bold;font-stretch:normal;font-size:5.9876px;font-family:'Book Antiqua';-inkscape-font-specification:'Book Antiqua, Bold Italic';font-variant-ligatures:normal;font-variant-caps:normal;font-variant-numeric:normal;font-variant-east-asian:normal;fill:#806600;fill-opacity:1;stroke:#806600;stroke-width:0.102362;stroke-miterlimit:4;stroke-dasharray:none;stroke-opacity:1" d="m 113.37637,166.87216 0.0322,-0.20173 h 0.1725 q 0.2105,0 0.26897,-0.0556 0.0614,-0.0556 0.13449,-0.43562 l 0.19003,-1.16068 0.24851,-1.49105 q 0.0439,-0.25436 0.0439,-0.383 0,-0.0936 -0.0643,-0.13741 -0.0643,-0.0438 -0.24851,-0.0438 h -0.23974 l 0.0322,-0.19881 q 0.31283,0.0175 0.97649,0.0175 l 1.16069,-0.0234 q 0.4707,0 0.6929,0.0965 0.22512,0.0965 0.35668,0.29821 0.13449,0.20173 0.13449,0.46486 0,0.40638 -0.28944,0.69875 -0.28944,0.28944 -0.93557,0.41223 l 0.40931,0.66659 0.38885,0.65489 q 0.26897,0.45609 0.35668,0.53795 0.0877,0.0819 0.24851,0.0819 h 0.10233 l -0.0351,0.20173 q -0.33914,-0.0292 -0.59642,-0.0292 -0.23974,0 -0.4824,0.0292 l -0.0935,-0.17542 q -0.13157,-0.25728 -0.26021,-0.47947 l -0.39761,-0.68706 q -0.18711,-0.32159 -0.49994,-0.80107 l 0.0146,-0.0965 0.21343,0.006 q 0.4707,0 0.76307,-0.23974 0.29529,-0.24266 0.29529,-0.72506 0,-0.33037 -0.17835,-0.49117 -0.17834,-0.1608 -0.5818,-0.1608 -0.1608,0 -0.44732,0.0468 l -0.18418,1.10513 -0.27775,1.66062 q -0.0848,0.50871 -0.0848,0.64613 0,0.10232 0.0702,0.14618 0.0731,0.0439 0.3216,0.0439 h 0.16373 l -0.0322,0.20173 -0.99112,-0.0322 q -0.1988,0 -0.87124,0.0322 z"/>
        <path id="path1044" style="font-style:italic;font-variant:normal;font-weight:bold;font-stretch:normal;font-size:5.9876px;font-family:'Book Antiqua';-inkscape-font-specification:'Book Antiqua, Bold Italic';font-variant-ligatures:normal;font-variant-caps:normal;font-variant-numeric:normal;font-variant-east-asian:normal;fill:#806600;fill-opacity:1;stroke:#806600;stroke-width:0.102362;stroke-miterlimit:4;stroke-dasharray:none;stroke-opacity:1" d="m 118.1799,165.27586 q 0,-0.77769 0.31283,-1.36241 0.31283,-0.58473 0.85078,-0.89464 0.54087,-0.31282 1.27762,-0.31282 0.88294,0 1.36826,0.45316 0.48533,0.45316 0.48533,1.2367 0,0.68413 -0.33915,1.28639 -0.33914,0.59935 -0.88878,0.92095 -0.54964,0.31867 -1.26886,0.31867 -0.85954,0 -1.33025,-0.43854 -0.46778,-0.44147 -0.46778,-1.20746 z m 0.82739,0.17834 q 0,0.40931 0.12864,0.66659 0.12864,0.25728 0.38884,0.40054 0.26313,0.14325 0.61104,0.14325 0.42977,0 0.73091,-0.23389 0.30406,-0.23389 0.54087,-0.86247 0.23974,-0.6315 0.23974,-1.37118 0,-0.61981 -0.28944,-0.92679 -0.28652,-0.30698 -0.81862,-0.30698 -0.46193,0 -0.77184,0.23389 -0.30698,0.23096 -0.53502,0.842 -0.22512,0.61104 -0.22512,1.41504 z"/>
      </g>
      <g style="font-style:italic;font-variant:normal;font-weight:bold;font-stretch:normal;font-size:9.36925px;line-height:1.25;font-family:'Book Antiqua';-inkscape-font-specification:'Book Antiqua, Bold Italic';font-variant-ligatures:normal;font-variant-caps:normal;font-variant-numeric:normal;font-variant-east-asian:normal;text-align:start;letter-spacing:0px;word-spacing:0px;writing-mode:lr-tb;direction:ltr;text-anchor:start;fill:#806600;fill-opacity:1;stroke:#806600;stroke-width:0.160173;stroke-miterlimit:4;stroke-dasharray:none;stroke-opacity:1" id="text1502" aria-label="CENT">
        <path id="path1047" style="font-size:16.2785px;fill:#806600;fill-opacity:1;stroke:#806600;stroke-width:0.160173;stroke-opacity:1" d="m 103.31904,172.58178 -0.19076,0.62793 q -1.3115,0.771 -1.89174,1.01741 -0.57229,0.2464 -1.23201,0.37357 -0.65178,0.13513 -1.367143,0.13513 -2.161989,0 -3.322468,-1.12074 -1.160479,-1.12868 -1.160479,-3.21119 0,-2.0825 0.866385,-3.60861 0.866385,-1.53406 2.591207,-2.52762 1.724821,-0.99356 3.600668,-0.99356 0.91407,0 1.73277,0.21461 0.81869,0.20666 1.33534,0.5246 -0.48486,1.5738 -0.58819,2.66274 h -0.56434 q 0.0397,-0.30999 0.0397,-0.58024 0,-0.31794 -0.0636,-1.0015 -0.53255,-0.41333 -1.15253,-0.60409 -0.61204,-0.19076 -1.46253,-0.19076 -1.359187,0 -2.169933,0.55639 -0.802797,0.54845 -1.295603,1.82815 -0.62793,1.6056 -0.62793,3.54503 0,1.75661 0.818694,2.623 0.818694,0.85843 2.352752,0.85843 0.84254,0 1.64534,-0.27024 0.81074,-0.27025 1.93148,-1.00151 z"/>
        <path id="path1049" style="font-style:italic;font-variant:normal;font-weight:bold;font-stretch:normal;font-size:9.36925px;font-family:'Book Antiqua';-inkscape-font-specification:'Book Antiqua, Bold Italic';font-variant-ligatures:normal;font-variant-caps:normal;font-variant-numeric:normal;font-variant-east-asian:normal;fill:#806600;fill-opacity:1;stroke:#806600;stroke-width:0.160173;stroke-miterlimit:4;stroke-dasharray:none;stroke-opacity:1" d="m 104.28058,174.56696 0.0503,-0.31567 q 0.48035,-0.064 0.5627,-0.14181 0.0824,-0.0778 0.19672,-0.63591 0.0458,-0.22874 0.36598,-2.14559 l 0.31567,-1.89398 q 0.0915,-0.54441 0.0915,-0.7274 0,-0.12352 -0.0915,-0.17384 -0.1464,-0.0823 -0.47121,-0.0823 h -0.33854 l 0.0503,-0.31109 0.53983,0.0137 0.50781,0.0183 1.68354,-0.0183 1.50969,-0.005 q 0.35684,0 0.57643,0.0366 l 0.0458,0.0366 q -0.1464,0.71825 -0.23789,1.4365 h -0.32024 l 0.0137,-0.30194 0.005,-0.36599 q 0,-0.21044 -0.13267,-0.25619 -0.38429,-0.14182 -1.34043,-0.14182 -0.40258,0 -0.76857,0.0549 -0.24704,1.47309 -0.38886,2.33316 l 1.34043,0.0366 q 0.17384,0 0.81432,-0.0366 l 0.0275,0.0595 -0.1098,0.44376 q -0.90582,-0.0457 -1.77961,-0.0457 -0.19672,0 -0.37056,0.009 l -0.43003,2.58021 q 0.4895,0.0641 0.98358,0.0641 0.74113,0 1.23978,-0.0869 0.26534,-0.0457 0.32482,-0.10064 0.0823,-0.0869 0.22874,-0.58558 l 0.11894,-0.37971 h 0.32939 l -0.14639,0.83262 q -0.0778,0.41173 -0.1098,0.70452 l -0.0686,0.0778 q -0.21044,0.0137 -0.43461,0.0137 l -3.58209,-0.064 q -0.38429,0 -0.8006,0.064 z"/>
        <path id="path1051" style="font-style:italic;font-variant:normal;font-weight:bold;font-stretch:normal;font-size:9.36925px;font-family:'Book Antiqua';-inkscape-font-specification:'Book Antiqua, Bold Italic';font-variant-ligatures:normal;font-variant-caps:normal;font-variant-numeric:normal;font-variant-east-asian:normal;fill:#806600;fill-opacity:1;stroke:#806600;stroke-width:0.160173;stroke-miterlimit:4;stroke-dasharray:none;stroke-opacity:1" d="m 109.88017,174.56238 0.0503,-0.31109 h 0.23331 q 0.25619,0 0.34769,-0.0549 0.0915,-0.0549 0.14182,-0.16012 0.0732,-0.15097 0.25162,-1.05221 l 0.29278,-1.53715 q 0.32024,-1.92142 0.41174,-2.47955 -0.19672,-0.32939 -0.34769,-0.42089 -0.15097,-0.0961 -0.46206,-0.0961 h -0.34311 l 0.0549,-0.31109 q 0.6176,0.032 1.12541,0.032 0.46663,0 0.89209,-0.032 0.0732,0.11895 0.36599,0.64048 0.17841,0.31566 0.31566,0.53525 1.37245,2.32402 2.31029,3.88403 l 0.28364,-1.69268 q 0.40716,-2.44754 0.40716,-2.79522 0,-0.13267 -0.0915,-0.19672 -0.0869,-0.0641 -0.31566,-0.0641 h -0.41631 l 0.0503,-0.31109 q 0.69995,0.032 1.23978,0.032 0.51238,0 0.96986,-0.032 l -0.0503,0.31109 h -0.32024 q -0.26534,0 -0.35683,0.10522 -0.0869,0.10522 -0.26992,0.97902 -0.29736,1.41819 -0.75027,4.14937 -0.10065,0.59472 -0.14182,0.91039 h -0.81432 l -0.75942,-1.3267 -2.20049,-3.74221 q -0.19215,1.14828 -0.29279,1.74758 -0.37971,2.29657 -0.37971,2.69 0,0.15097 0.0823,0.21959 0.0869,0.0686 0.31109,0.0686 h 0.41174 l -0.0549,0.31109 q -0.71368,-0.0412 -1.16201,-0.0412 -0.47578,0 -1.02019,0.0412 z"/>
        <path id="path1053" style="font-style:italic;font-variant:normal;font-weight:bold;font-stretch:normal;font-size:9.36925px;font-family:'Book Antiqua';-inkscape-font-specification:'Book Antiqua, Bold Italic';font-variant-ligatures:normal;font-variant-caps:normal;font-variant-numeric:normal;font-variant-east-asian:normal;fill:#806600;fill-opacity:1;stroke:#806600;stroke-width:0.160173;stroke-miterlimit:4;stroke-dasharray:none;stroke-opacity:1" d="m 118.18349,174.56696 0.0503,-0.31567 h 0.37971 q 0.29737,0 0.37971,-0.0595 0.0869,-0.0595 0.1281,-0.21959 0.0457,-0.16012 0.21502,-1.10711 0.32481,-1.93515 0.70452,-4.22714 h -0.46663 q -0.86922,0 -1.14371,0.1098 -0.20129,0.0823 -0.29736,0.65877 l -0.0595,0.36599 h -0.35683 q 0.14639,-0.80517 0.22874,-1.62407 l 0.0503,-0.0412 1.926,0.0412 h 1.29926 q 1.52341,0 2.18676,-0.0412 l 0.0686,0.0412 -0.0915,0.47578 q -0.13267,0.70453 -0.17842,1.14829 h -0.34769 q 0.0366,-0.47579 0.0366,-0.74113 0,-0.26076 -0.12352,-0.32481 -0.11894,-0.0686 -0.76399,-0.0686 h -0.77772 q -0.2196,1.3267 -0.75028,4.51078 -0.10064,0.60845 -0.10064,0.8189 0,0.15096 0.0961,0.21959 0.10065,0.064 0.42088,0.064 h 0.38429 l -0.0503,0.31567 q -1.02477,-0.0457 -1.65152,-0.0457 -0.68165,0 -1.39532,0.0457 z"/>
      </g>
    </g>
  </g>
</svg>