<?xml version="1.0" encoding="UTF-8" standalone="no"?>
<svg xmlns:dc="http://purl.org/dc/elements/1.1/" xmlns:cc="http://creativecommons.org/ns#" xmlns:rdf="http://www.w3.org/1999/02/22-rdf-syntax-ns#" xmlns:svg="http://www.w3.org/2000/svg" xmlns="http://www.w3.org/2000/svg" xmlns:sodipodi="http://sodipodi.sourceforge.net/DTD/sodipodi-0.dtd" xmlns:inkscape="http://www.inkscape.org/namespaces/inkscape" width="300" height="300" viewBox="0 0 79.374998 79.375002" version="1.1" id="svg8" inkscape:version="1.0 (4035a4fb49, 2020-05-01)" sodipodi:docname="20_Cent.svg">
  <defs id="defs2"/>
  <sodipodi:namedview id="base" pagecolor="#ffffff" bordercolor="#666666" borderopacity="1.0" inkscape:pageopacity="0.0" inkscape:pageshadow="2" inkscape:zoom="0.70000001" inkscape:cx="-54.20185" inkscape:cy="204.35487" inkscape:document-units="mm" inkscape:current-layer="layer1" inkscape:document-rotation="0" showgrid="false" inkscape:window-width="1920" inkscape:window-height="1027" inkscape:window-x="1912" inkscape:window-y="-8" inkscape:window-maximized="1" units="px"/>
  <metadata id="metadata5">
    <rdf:RDF>
      <cc:Work rdf:about="">
        <dc:format>image/svg+xml</dc:format>
        <dc:type rdf:resource="http://purl.org/dc/dcmitype/StillImage"/>
        <dc:title/>
      </cc:Work>
    </rdf:RDF>
  </metadata>
  <g inkscape:label="Ebene 1" inkscape:groupmode="layer" id="layer1">
    <path d="M 79.375,39.687504 A 39.6875,39.6875 0 0 1 39.6875,79.375004 39.6875,39.6875 0 0 1 0,39.687504 39.6875,39.6875 0 0 1 39.6875,3.8146973e-6 39.6875,39.6875 0 0 1 79.375,39.687504" style="fill:#806600;stroke-width:4.49977;stroke-linecap:round;stroke-linejoin:round" id="path1289"/>
    <path d="M 77.886719,39.687504 A 38.199219,38.199219 0 0 1 39.6875,77.886723 38.199219,38.199219 0 0 1 1.4882812,39.687504 38.199219,38.199219 0 0 1 39.6875,1.4882851 38.199219,38.199219 0 0 1 77.886719,39.687504" style="fill:#d4aa00;fill-opacity:1;stroke-width:1.66358;stroke-linecap:round;stroke-linejoin:round" id="path1399"/>
    <path d="M 78.136211,39.687504 A 38.448711,38.448711 0 0 1 39.6875,78.136215 38.448711,38.448711 0 0 1 1.2387886,39.687504 38.448711,38.448711 0 0 1 39.6875,1.2387924 38.448711,38.448711 0 0 1 78.136211,39.687504" style="fill:#ffcc00;stroke:none;stroke-width:0.493202;stroke-linecap:round;stroke-linejoin:round" id="path903"/>
    <g style="font-style:italic;font-variant:normal;font-weight:normal;font-stretch:normal;font-size:44.858px;line-height:1.25;font-family:'Book Antiqua';-inkscape-font-specification:'Book Antiqua, Italic';font-variant-ligatures:normal;font-variant-caps:normal;font-variant-numeric:normal;font-variant-east-asian:normal;text-align:start;letter-spacing:-3.62126px;word-spacing:-0.0133265px;writing-mode:lr-tb;direction:ltr;text-anchor:start;fill:#806600;fill-opacity:1;stroke:#806600;stroke-width:0.233635;stroke-opacity:1" id="text1403" aria-label="20">
      <path id="path882" style="font-style:italic;font-variant:normal;font-weight:normal;font-stretch:normal;font-size:44.858px;font-family:'Book Antiqua';-inkscape-font-specification:'Book Antiqua, Italic';font-variant-ligatures:normal;font-variant-caps:normal;font-variant-numeric:normal;font-variant-east-asian:normal;fill:#806600;fill-opacity:1;stroke:#806600;stroke-width:0.233635;stroke-opacity:1" d="m 30.908856,48.308711 v -0.898036 q 9.725074,-9.900301 12.835346,-15.047582 2.321752,-3.811178 2.321752,-7.052869 0,-2.562689 -1.336103,-3.942598 -1.336102,-1.379909 -3.635951,-1.379909 -1.905589,0 -3.438821,1.095166 -1.533233,1.073263 -3.044562,3.920694 l -1.029456,-0.481873 2.737915,-5.2787 q 1.423716,-1.051359 2.935045,-1.555136 1.511329,-0.52568 3.088368,-0.52568 3.438822,0 5.453927,1.993203 2.037009,1.993202 2.037009,5.34441 0,1.555136 -0.416163,3.000755 -0.416163,1.423716 -1.533232,3.241692 -1.095166,1.817975 -4.117825,5.125377 l -8.564198,9.089878 v 0.284743 h 6.702416 q 4.074018,0 7.556646,-0.284743 l 0.240936,0.284743 q -0.19713,0.6571 -0.722809,3.066465 -4.621601,-0.153323 -9.571752,-0.153323 -4.402567,0 -8.498488,0.153323 z"/>
      <path id="path884" style="font-style:italic;font-variant:normal;font-weight:normal;font-stretch:normal;font-size:44.858px;font-family:'Book Antiqua';-inkscape-font-specification:'Book Antiqua, Italic';font-variant-ligatures:normal;font-variant-caps:normal;font-variant-numeric:normal;font-variant-east-asian:normal;fill:#806600;fill-opacity:1;stroke:#806600;stroke-width:0.233635;stroke-opacity:1" d="m 51.052699,37.597987 q 0,-6.06722 2.058913,-11.564953 1.752265,-4.731118 4.358761,-6.79003 2.606495,-2.080816 5.629153,-2.080816 3.526435,0 5.629154,2.606496 2.102718,2.584592 2.102718,8.126132 0,6.176736 -2.080815,11.783987 -1.730362,4.709214 -4.424471,6.899546 -2.672205,2.168429 -5.585347,2.168429 -3.460725,0 -5.585347,-2.694109 -2.102719,-2.694108 -2.102719,-8.454682 z m 3.351209,2.212236 q 0,4.074017 1.248489,5.826283 1.248489,1.752266 3.263595,1.752266 1.664652,0 2.935045,-1.292296 2.168429,-2.190332 3.789274,-7.841389 1.642749,-5.651057 1.642749,-11.849697 0,-4.490181 -1.182779,-6.19864 -1.160876,-1.708459 -3.219788,-1.708459 -2.102719,0 -4.052115,2.409365 -1.927492,2.387462 -3.175981,8.191842 -1.248489,5.782477 -1.248489,10.710725 z"/>
    </g>
    <g id="g1498" transform="matrix(-0.9921875,0,0,0.9921875,143.40371,-107.65234)" style="fill:#806600">
      <path transform="scale(0.26458333)" d="m 448.92773,454.50391 c -1.44143,0 -2.60156,1.575 -2.60156,3.53125 v 58.22656 a 48.739861,45.709402 0 0 1 5.20508,-0.51563 v -57.71093 c 0,-1.95625 -1.16208,-3.53125 -2.60352,-3.53125 z m -2.60156,152.01757 v 57.80469 c 0,1.95625 1.16013,3.53125 2.60156,3.53125 1.44144,0 2.60352,-1.575 2.60352,-3.53125 v -57.28711 a 48.739861,45.709402 0 0 1 -5.20508,-0.51758 z" style="fill:#806600;fill-opacity:1;stroke-width:3.93354;stroke-linecap:round;stroke-linejoin:round" id="rect1409"/>
      <path id="rect1411" style="fill:#806600;fill-opacity:1;stroke-width:0.331985;stroke-linecap:round;stroke-linejoin:round" d="m 118.77901,113.0235 c 0.38138,0 0.68841,0.4149 0.68841,0.93028 v 3.8833 c 0,0.51538 -0.30703,0.93028 -0.68841,0.93028 -0.38138,0 -0.68841,-0.4149 -0.68841,-0.93028 v -3.8833 c 0,-0.51538 0.30703,-0.93028 0.68841,-0.93028 z"/>
      <path id="rect1413" style="fill:#806600;fill-opacity:1;stroke-width:0.331985;stroke-linecap:round;stroke-linejoin:round" d="m 118.77901,178.35759 c 0.38138,0 0.68841,0.4149 0.68841,0.93028 v 3.8833 c 0,0.51538 -0.30703,0.93028 -0.68841,0.93028 -0.38138,0 -0.68841,-0.4149 -0.68841,-0.93028 v -3.8833 c 0,-0.51538 0.30703,-0.93028 0.68841,-0.93028 z"/>
      <path transform="scale(0.26458333)" d="m 461.42773,459.18359 c -1.44143,0 -2.60156,1.50259 -2.60156,3.36914 v 53.34961 a 48.739861,45.709402 0 0 1 5.20508,0.74805 v -54.09766 c 0,-1.86655 -1.16208,-3.36914 -2.60352,-3.36914 z m 2.60352,146.95118 a 48.739861,45.709402 0 0 1 -5.20508,0.74804 v 52.50391 c 0,1.86656 1.16013,3.36914 2.60156,3.36914 1.44144,0 2.60352,-1.50258 2.60352,-3.36914 z" style="fill:#806600;fill-opacity:1;stroke-width:3.84231;stroke-linecap:round;stroke-linejoin:round" id="rect1420"/>
      <path d="m 122.0863,114.59347 c 0.38138,0 0.68841,0.39588 0.68841,0.88763 v 3.70527 c 0,0.49174 -0.30703,0.88762 -0.68841,0.88762 -0.38138,0 -0.68841,-0.39588 -0.68841,-0.88762 v -3.70527 c 0,-0.49175 0.30703,-0.88763 0.68841,-0.88763 z" style="fill:#806600;fill-opacity:1;stroke-width:0.324285;stroke-linecap:round;stroke-linejoin:round" id="rect1422"/>
      <path d="m 122.0863,176.93221 c 0.38138,0 0.68841,0.39588 0.68841,0.88762 v 3.70527 c 0,0.49175 -0.30703,0.88763 -0.68841,0.88763 -0.38138,0 -0.68841,-0.39588 -0.68841,-0.88763 v -3.70527 c 0,-0.49174 0.30703,-0.88762 0.68841,-0.88762 z" style="fill:#806600;fill-opacity:1;stroke-width:0.324285;stroke-linecap:round;stroke-linejoin:round" id="rect1424"/>
      <path transform="scale(0.26458333)" d="m 472.14258,466.37305 c -1.44144,0 -2.60156,1.38975 -2.60156,3.11718 v 48.5586 a 48.739861,45.709402 0 0 1 5.20312,1.95312 v -50.51172 c 0,-1.72743 -1.16013,-3.11718 -2.60156,-3.11718 z m 2.60156,136.41015 a 48.739861,45.709402 0 0 1 -5.20312,1.95313 v 46.91992 c 0,1.72743 1.16012,3.11719 2.60156,3.11719 1.44143,0 2.60156,-1.38976 2.60156,-3.11719 z" style="fill:#806600;fill-opacity:1;stroke-width:3.69637;stroke-linecap:round;stroke-linejoin:round" id="rect1436"/>
      <path d="m 124.92112,117.00961 c 0.38138,0 0.68842,0.36638 0.68842,0.82148 v 3.42913 c 0,0.45509 -0.30704,0.82147 -0.68842,0.82147 -0.38138,0 -0.68841,-0.36638 -0.68841,-0.82147 v -3.42913 c 0,-0.4551 0.30703,-0.82148 0.68841,-0.82148 z" style="fill:#806600;fill-opacity:1;stroke-width:0.311968;stroke-linecap:round;stroke-linejoin:round" id="rect1438"/>
      <path d="m 124.92112,174.70244 c 0.38138,0 0.68842,0.36638 0.68842,0.82148 v 3.42912 c 0,0.4551 -0.30704,0.82148 -0.68842,0.82148 -0.38138,0 -0.68841,-0.36638 -0.68841,-0.82148 v -3.42912 c 0,-0.4551 0.30703,-0.82148 0.68841,-0.82148 z" style="fill:#806600;fill-opacity:1;stroke-width:0.311968;stroke-linecap:round;stroke-linejoin:round" id="rect1440"/>
      <path transform="scale(0.26458333)" d="m 485.08984,477.77148 c -1.47481,0 -2.66211,1.21377 -2.66211,2.72071 v 43.73047 a 48.739861,45.709402 0 0 1 5.32422,4.13867 v -47.86914 c 0,-1.50694 -1.1873,-2.72071 -2.66211,-2.72071 z m 2.66211,116.6543 a 48.739861,45.709402 0 0 1 -5.32422,4.13672 v 40.84375 c 0,1.50697 1.1873,2.7207 2.66211,2.7207 1.47481,0 2.66211,-1.21373 2.66211,-2.7207 z" style="fill:#806600;fill-opacity:1;stroke-width:3.49215;stroke-linecap:round;stroke-linejoin:round" id="rect1444"/>
      <path d="m 128.34654,120.63477 c 0.39021,0 0.70435,0.33143 0.70435,0.74311 v 3.10196 c 0,0.41168 -0.31414,0.7431 -0.70435,0.7431 -0.39021,0 -0.70435,-0.33142 -0.70435,-0.7431 v -3.10196 c 0,-0.41168 0.31414,-0.74311 0.70435,-0.74311 z" style="fill:#806600;fill-opacity:1;stroke-width:0.300127;stroke-linecap:round;stroke-linejoin:round" id="rect1446"/>
      <path d="m 128.34654,172.30359 c 0.39021,0 0.70435,0.33142 0.70435,0.7431 v 3.10197 c 0,0.41167 -0.31414,0.7431 -0.70435,0.7431 -0.39021,0 -0.70435,-0.33143 -0.70435,-0.7431 v -3.10197 c 0,-0.41168 0.31414,-0.7431 0.70435,-0.7431 z" style="fill:#806600;fill-opacity:1;stroke-width:0.300127;stroke-linecap:round;stroke-linejoin:round" id="rect1448"/>
    </g>
    <g style="fill:#806600" id="g1533" transform="matrix(1.2625874,0,0,1.2625874,-89.904077,-152.87286)">
      <g style="font-style:italic;font-variant:normal;font-weight:bold;font-stretch:normal;font-size:5.9876px;line-height:1.25;font-family:'Book Antiqua';-inkscape-font-specification:'Book Antiqua, Bold Italic';font-variant-ligatures:normal;font-variant-caps:normal;font-variant-numeric:normal;font-variant-east-asian:normal;text-align:start;letter-spacing:0px;word-spacing:0px;writing-mode:lr-tb;direction:ltr;text-anchor:start;fill:#806600;fill-opacity:1;stroke:#806600;stroke-width:0.102362;stroke-miterlimit:4;stroke-dasharray:none;stroke-opacity:1" id="text1407" aria-label="EURO">
        <path id="path893" style="font-style:italic;font-variant:normal;font-weight:bold;font-stretch:normal;font-size:5.9876px;font-family:'Book Antiqua';-inkscape-font-specification:'Book Antiqua, Bold Italic';font-variant-ligatures:normal;font-variant-caps:normal;font-variant-numeric:normal;font-variant-east-asian:normal;fill:#806600;fill-opacity:1;stroke:#806600;stroke-width:0.102362;stroke-miterlimit:4;stroke-dasharray:none;stroke-opacity:1" d="m 105.14342,166.87216 0.0322,-0.20173 q 0.30698,-0.0409 0.35961,-0.0906 0.0526,-0.0497 0.12571,-0.40639 0.0292,-0.14618 0.2339,-1.37118 l 0.20173,-1.21038 q 0.0585,-0.34792 0.0585,-0.46486 0,-0.0789 -0.0585,-0.1111 -0.0936,-0.0526 -0.30114,-0.0526 h -0.21635 l 0.0322,-0.19881 0.34499,0.009 0.32452,0.0117 1.0759,-0.0117 0.9648,-0.003 q 0.22804,0 0.36838,0.0234 l 0.0292,0.0234 q -0.0935,0.45901 -0.15202,0.91802 h -0.20466 l 0.009,-0.19296 0.003,-0.23389 q 0,-0.13448 -0.0848,-0.16372 -0.24558,-0.0906 -0.85662,-0.0906 -0.25728,0 -0.49117,0.0351 -0.15788,0.94141 -0.24851,1.49105 l 0.85662,0.0234 q 0.1111,0 0.52041,-0.0234 l 0.0175,0.038 -0.0702,0.28359 q -0.57888,-0.0292 -1.13729,-0.0292 -0.12572,0 -0.23681,0.006 l -0.27483,1.64893 q 0.31283,0.0409 0.62858,0.0409 0.47363,0 0.79231,-0.0555 0.16957,-0.0292 0.20758,-0.0643 0.0526,-0.0556 0.14618,-0.37423 l 0.076,-0.24266 h 0.2105 l -0.0936,0.5321 q -0.0497,0.26313 -0.0702,0.45024 l -0.0439,0.0497 q -0.13449,0.009 -0.27775,0.009 l -2.2892,-0.0409 q -0.24559,0 -0.51164,0.0409 z"/>
        <path id="path895" style="font-style:italic;font-variant:normal;font-weight:bold;font-stretch:normal;font-size:5.9876px;font-family:'Book Antiqua';-inkscape-font-specification:'Book Antiqua, Bold Italic';font-variant-ligatures:normal;font-variant-caps:normal;font-variant-numeric:normal;font-variant-east-asian:normal;fill:#806600;fill-opacity:1;stroke:#806600;stroke-width:0.102362;stroke-miterlimit:4;stroke-dasharray:none;stroke-opacity:1" d="m 113.11909,166.67043 -0.0322,0.20173 q -0.3216,-0.0292 -0.84785,-0.0292 -0.2222,0 -0.4824,0.0205 l -0.0409,-0.0351 q 0.009,-0.0526 0.0497,-0.21927 0.0672,-0.2836 0.0965,-0.52333 -0.45024,0.47362 -0.84493,0.68997 -0.26605,0.14618 -0.61396,0.14618 -0.4824,0 -0.77477,-0.27482 -0.29236,-0.27482 -0.29236,-0.68705 0,-0.19296 0.0526,-0.51164 l 0.15495,-0.92094 q 0.19881,-1.20454 0.19881,-1.3858 0,-0.0965 -0.0585,-0.13741 -0.0555,-0.0409 -0.23096,-0.0409 h -0.24267 l 0.0351,-0.19881 0.91217,0.0117 q 0.24851,0 0.44147,-0.0117 l 0.0322,0.0409 q -0.14033,0.5935 -0.24266,1.20454 l -0.17542,1.05835 q -0.1111,0.66951 -0.1111,0.80692 0,0.24559 0.17542,0.40054 0.17542,0.15495 0.47655,0.15495 0.20173,0 0.42393,-0.0935 0.2222,-0.0936 0.44147,-0.29237 0.22219,-0.1988 0.25143,-0.26897 0.0322,-0.0702 0.13156,-0.67536 l 0.21051,-1.26008 q 0.0935,-0.56427 0.0935,-0.71922 0,-0.0789 -0.0672,-0.11694 -0.0673,-0.0409 -0.27482,-0.0409 h -0.2222 l 0.0351,-0.19881 q 0.50287,0.0205 0.80693,0.0205 l 1.07882,-0.0205 -0.0322,0.19881 h -0.1608 q -0.25728,0 -0.30991,0.0935 -0.076,0.13157 -0.22804,1.03497 l -0.23097,1.39457 q -0.13448,0.79523 -0.13448,0.97065 0,0.10817 0.0819,0.1608 0.0848,0.0526 0.30698,0.0526 z"/>
        <path id="path897" style="font-style:italic;font-variant:normal;font-weight:bold;font-stretch:normal;font-size:5.9876px;font-family:'Book Antiqua';-inkscape-font-specification:'Book Antiqua, Bold Italic';font-variant-ligatures:normal;font-variant-caps:normal;font-variant-numeric:normal;font-variant-east-asian:normal;fill:#806600;fill-opacity:1;stroke:#806600;stroke-width:0.102362;stroke-miterlimit:4;stroke-dasharray:none;stroke-opacity:1" d="m 113.37637,166.87216 0.0322,-0.20173 h 0.1725 q 0.2105,0 0.26897,-0.0556 0.0614,-0.0556 0.13449,-0.43562 l 0.19003,-1.16068 0.24851,-1.49105 q 0.0439,-0.25436 0.0439,-0.383 0,-0.0936 -0.0643,-0.13741 -0.0643,-0.0438 -0.24851,-0.0438 h -0.23974 l 0.0322,-0.19881 q 0.31283,0.0175 0.97649,0.0175 l 1.16069,-0.0234 q 0.4707,0 0.6929,0.0965 0.22512,0.0965 0.35668,0.29821 0.13449,0.20173 0.13449,0.46486 0,0.40638 -0.28944,0.69875 -0.28944,0.28944 -0.93557,0.41223 l 0.40931,0.66659 0.38885,0.65489 q 0.26897,0.45609 0.35668,0.53795 0.0877,0.0819 0.24851,0.0819 h 0.10233 l -0.0351,0.20173 q -0.33914,-0.0292 -0.59642,-0.0292 -0.23974,0 -0.4824,0.0292 l -0.0935,-0.17542 q -0.13157,-0.25728 -0.26021,-0.47947 l -0.39761,-0.68706 q -0.18711,-0.32159 -0.49994,-0.80107 l 0.0146,-0.0965 0.21343,0.006 q 0.4707,0 0.76307,-0.23974 0.29529,-0.24266 0.29529,-0.72506 0,-0.33037 -0.17835,-0.49117 -0.17834,-0.1608 -0.5818,-0.1608 -0.1608,0 -0.44732,0.0468 l -0.18418,1.10513 -0.27775,1.66062 q -0.0848,0.50871 -0.0848,0.64613 0,0.10232 0.0702,0.14618 0.0731,0.0439 0.3216,0.0439 h 0.16373 l -0.0322,0.20173 -0.99112,-0.0322 q -0.1988,0 -0.87124,0.0322 z"/>
        <path id="path899" style="font-style:italic;font-variant:normal;font-weight:bold;font-stretch:normal;font-size:5.9876px;font-family:'Book Antiqua';-inkscape-font-specification:'Book Antiqua, Bold Italic';font-variant-ligatures:normal;font-variant-caps:normal;font-variant-numeric:normal;font-variant-east-asian:normal;fill:#806600;fill-opacity:1;stroke:#806600;stroke-width:0.102362;stroke-miterlimit:4;stroke-dasharray:none;stroke-opacity:1" d="m 118.1799,165.27586 q 0,-0.77769 0.31283,-1.36241 0.31283,-0.58473 0.85078,-0.89464 0.54087,-0.31282 1.27762,-0.31282 0.88294,0 1.36826,0.45316 0.48533,0.45316 0.48533,1.2367 0,0.68413 -0.33915,1.28639 -0.33914,0.59935 -0.88878,0.92095 -0.54964,0.31867 -1.26886,0.31867 -0.85954,0 -1.33025,-0.43854 -0.46778,-0.44147 -0.46778,-1.20746 z m 0.82739,0.17834 q 0,0.40931 0.12864,0.66659 0.12864,0.25728 0.38884,0.40054 0.26313,0.14325 0.61104,0.14325 0.42977,0 0.73091,-0.23389 0.30406,-0.23389 0.54087,-0.86247 0.23974,-0.6315 0.23974,-1.37118 0,-0.61981 -0.28944,-0.92679 -0.28652,-0.30698 -0.81862,-0.30698 -0.46193,0 -0.77184,0.23389 -0.30698,0.23096 -0.53502,0.842 -0.22512,0.61104 -0.22512,1.41504 z"/>
      </g>
      <g style="font-style:italic;font-variant:normal;font-weight:bold;font-stretch:normal;font-size:9.36925px;line-height:1.25;font-family:'Book Antiqua';-inkscape-font-specification:'Book Antiqua, Bold Italic';font-variant-ligatures:normal;font-variant-caps:normal;font-variant-numeric:normal;font-variant-east-asian:normal;text-align:start;letter-spacing:0px;word-spacing:0px;writing-mode:lr-tb;direction:ltr;text-anchor:start;fill:#806600;fill-opacity:1;stroke:#806600;stroke-width:0.160173;stroke-miterlimit:4;stroke-dasharray:none;stroke-opacity:1" id="text1502" aria-label="CENT">
        <path id="path902" style="font-size:16.2785px;fill:#806600;fill-opacity:1;stroke:#806600;stroke-width:0.160173;stroke-opacity:1" d="m 103.31904,172.58178 -0.19076,0.62793 q -1.3115,0.771 -1.89174,1.01741 -0.57229,0.2464 -1.23201,0.37357 -0.65178,0.13513 -1.367143,0.13513 -2.161989,0 -3.322468,-1.12074 -1.160479,-1.12868 -1.160479,-3.21119 0,-2.0825 0.866385,-3.60861 0.866385,-1.53406 2.591207,-2.52762 1.724821,-0.99356 3.600668,-0.99356 0.91407,0 1.73277,0.21461 0.81869,0.20666 1.33534,0.5246 -0.48486,1.5738 -0.58819,2.66274 h -0.56434 q 0.0397,-0.30999 0.0397,-0.58024 0,-0.31794 -0.0636,-1.0015 -0.53255,-0.41333 -1.15253,-0.60409 -0.61204,-0.19076 -1.46253,-0.19076 -1.359187,0 -2.169933,0.55639 -0.802797,0.54845 -1.295603,1.82815 -0.62793,1.6056 -0.62793,3.54503 0,1.75661 0.818694,2.623 0.818694,0.85843 2.352752,0.85843 0.84254,0 1.64534,-0.27024 0.81074,-0.27025 1.93148,-1.00151 z"/>
        <path id="path904" style="font-style:italic;font-variant:normal;font-weight:bold;font-stretch:normal;font-size:9.36925px;font-family:'Book Antiqua';-inkscape-font-specification:'Book Antiqua, Bold Italic';font-variant-ligatures:normal;font-variant-caps:normal;font-variant-numeric:normal;font-variant-east-asian:normal;fill:#806600;fill-opacity:1;stroke:#806600;stroke-width:0.160173;stroke-miterlimit:4;stroke-dasharray:none;stroke-opacity:1" d="m 104.28058,174.56696 0.0503,-0.31567 q 0.48035,-0.064 0.5627,-0.14181 0.0824,-0.0778 0.19672,-0.63591 0.0458,-0.22874 0.36598,-2.14559 l 0.31567,-1.89398 q 0.0915,-0.54441 0.0915,-0.7274 0,-0.12352 -0.0915,-0.17384 -0.1464,-0.0823 -0.47121,-0.0823 h -0.33854 l 0.0503,-0.31109 0.53983,0.0137 0.50781,0.0183 1.68354,-0.0183 1.50969,-0.005 q 0.35684,0 0.57643,0.0366 l 0.0458,0.0366 q -0.1464,0.71825 -0.23789,1.4365 h -0.32024 l 0.0137,-0.30194 0.005,-0.36599 q 0,-0.21044 -0.13267,-0.25619 -0.38429,-0.14182 -1.34043,-0.14182 -0.40258,0 -0.76857,0.0549 -0.24704,1.47309 -0.38886,2.33316 l 1.34043,0.0366 q 0.17384,0 0.81432,-0.0366 l 0.0275,0.0595 -0.1098,0.44376 q -0.90582,-0.0457 -1.77961,-0.0457 -0.19672,0 -0.37056,0.009 l -0.43003,2.58021 q 0.4895,0.0641 0.98358,0.0641 0.74113,0 1.23978,-0.0869 0.26534,-0.0457 0.32482,-0.10064 0.0823,-0.0869 0.22874,-0.58558 l 0.11894,-0.37971 h 0.32939 l -0.14639,0.83262 q -0.0778,0.41173 -0.1098,0.70452 l -0.0686,0.0778 q -0.21044,0.0137 -0.43461,0.0137 l -3.58209,-0.064 q -0.38429,0 -0.8006,0.064 z"/>
        <path id="path906" style="font-style:italic;font-variant:normal;font-weight:bold;font-stretch:normal;font-size:9.36925px;font-family:'Book Antiqua';-inkscape-font-specification:'Book Antiqua, Bold Italic';font-variant-ligatures:normal;font-variant-caps:normal;font-variant-numeric:normal;font-variant-east-asian:normal;fill:#806600;fill-opacity:1;stroke:#806600;stroke-width:0.160173;stroke-miterlimit:4;stroke-dasharray:none;stroke-opacity:1" d="m 109.88017,174.56238 0.0503,-0.31109 h 0.23331 q 0.25619,0 0.34769,-0.0549 0.0915,-0.0549 0.14182,-0.16012 0.0732,-0.15097 0.25162,-1.05221 l 0.29278,-1.53715 q 0.32024,-1.92142 0.41174,-2.47955 -0.19672,-0.32939 -0.34769,-0.42089 -0.15097,-0.0961 -0.46206,-0.0961 h -0.34311 l 0.0549,-0.31109 q 0.6176,0.032 1.12541,0.032 0.46663,0 0.89209,-0.032 0.0732,0.11895 0.36599,0.64048 0.17841,0.31566 0.31566,0.53525 1.37245,2.32402 2.31029,3.88403 l 0.28364,-1.69268 q 0.40716,-2.44754 0.40716,-2.79522 0,-0.13267 -0.0915,-0.19672 -0.0869,-0.0641 -0.31566,-0.0641 h -0.41631 l 0.0503,-0.31109 q 0.69995,0.032 1.23978,0.032 0.51238,0 0.96986,-0.032 l -0.0503,0.31109 h -0.32024 q -0.26534,0 -0.35683,0.10522 -0.0869,0.10522 -0.26992,0.97902 -0.29736,1.41819 -0.75027,4.14937 -0.10065,0.59472 -0.14182,0.91039 h -0.81432 l -0.75942,-1.3267 -2.20049,-3.74221 q -0.19215,1.14828 -0.29279,1.74758 -0.37971,2.29657 -0.37971,2.69 0,0.15097 0.0823,0.21959 0.0869,0.0686 0.31109,0.0686 h 0.41174 l -0.0549,0.31109 q -0.71368,-0.0412 -1.16201,-0.0412 -0.47578,0 -1.02019,0.0412 z"/>
        <path id="path908" style="font-style:italic;font-variant:normal;font-weight:bold;font-stretch:normal;font-size:9.36925px;font-family:'Book Antiqua';-inkscape-font-specification:'Book Antiqua, Bold Italic';font-variant-ligatures:normal;font-variant-caps:normal;font-variant-numeric:normal;font-variant-east-asian:normal;fill:#806600;fill-opacity:1;stroke:#806600;stroke-width:0.160173;stroke-miterlimit:4;stroke-dasharray:none;stroke-opacity:1" d="m 118.18349,174.56696 0.0503,-0.31567 h 0.37971 q 0.29737,0 0.37971,-0.0595 0.0869,-0.0595 0.1281,-0.21959 0.0457,-0.16012 0.21502,-1.10711 0.32481,-1.93515 0.70452,-4.22714 h -0.46663 q -0.86922,0 -1.14371,0.1098 -0.20129,0.0823 -0.29736,0.65877 l -0.0595,0.36599 h -0.35683 q 0.14639,-0.80517 0.22874,-1.62407 l 0.0503,-0.0412 1.926,0.0412 h 1.29926 q 1.52341,0 2.18676,-0.0412 l 0.0686,0.0412 -0.0915,0.47578 q -0.13267,0.70453 -0.17842,1.14829 h -0.34769 q 0.0366,-0.47579 0.0366,-0.74113 0,-0.26076 -0.12352,-0.32481 -0.11894,-0.0686 -0.76399,-0.0686 h -0.77772 q -0.2196,1.3267 -0.75028,4.51078 -0.10064,0.60845 -0.10064,0.8189 0,0.15096 0.0961,0.21959 0.10065,0.064 0.42088,0.064 h 0.38429 l -0.0503,0.31567 q -1.02477,-0.0457 -1.65152,-0.0457 -0.68165,0 -1.39532,0.0457 z"/>
      </g>
    </g>
  </g>
</svg>