<?xml version="1.0" encoding="UTF-8" standalone="no"?>
<svg xmlns:dc="http://purl.org/dc/elements/1.1/" xmlns:cc="http://creativecommons.org/ns#" xmlns:rdf="http://www.w3.org/1999/02/22-rdf-syntax-ns#" xmlns:svg="http://www.w3.org/2000/svg" xmlns="http://www.w3.org/2000/svg" xmlns:sodipodi="http://sodipodi.sourceforge.net/DTD/sodipodi-0.dtd" xmlns:inkscape="http://www.inkscape.org/namespaces/inkscape" width="300" height="300" viewBox="0 0 79.374998 79.375002" version="1.1" id="svg8" inkscape:version="1.0 (4035a4fb49, 2020-05-01)" sodipodi:docname="2_Euro.svg">
  <defs id="defs2"/>
  <sodipodi:namedview units="px" id="base" pagecolor="#ffffff" bordercolor="#666666" borderopacity="1.0" inkscape:pageopacity="0.0" inkscape:pageshadow="2" inkscape:zoom="0.9899495" inkscape:cx="301.06112" inkscape:cy="126.39401" inkscape:document-units="mm" inkscape:current-layer="layer1" inkscape:document-rotation="0" showgrid="false" inkscape:window-width="1920" inkscape:window-height="1027" inkscape:window-x="1912" inkscape:window-y="-8" inkscape:window-maximized="1"/>
  <metadata id="metadata5">
    <rdf:RDF>
      <cc:Work rdf:about="">
        <dc:format>image/svg+xml</dc:format>
        <dc:type rdf:resource="http://purl.org/dc/dcmitype/StillImage"/>
        <dc:title/>
      </cc:Work>
    </rdf:RDF>
  </metadata>
  <g inkscape:label="Ebene 1" inkscape:groupmode="layer" id="layer1">
    <g transform="matrix(0.9679878,0,0,0.9679878,-61.951219,-104.05869)" id="g968">
      <g style="fill:#808080" id="g1391">
        <g id="g1339" transform="translate(0.49996948)" style="fill:#808080;fill-opacity:1">
          <rect ry="1.1128013" rx="0.93852252" y="107.5" x="103.5" height="82" width="2" id="rect839" style="fill:#808080;fill-opacity:1;stroke-width:0.58079;stroke-linecap:round;stroke-linejoin:round"/>
          <rect transform="rotate(3.75)" style="fill:#808080;fill-opacity:1;stroke-width:0.58079;stroke-linecap:round;stroke-linejoin:round" id="rect1195" width="2" height="82" x="112.98862" y="100.34742" rx="0.93852252" ry="1.1128013"/>
          <rect ry="1.1128013" rx="0.93852252" y="92.589569" x="121.98912" height="82" width="2" id="rect1197" style="fill:#808080;fill-opacity:1;stroke-width:0.58079;stroke-linecap:round;stroke-linejoin:round" transform="rotate(7.5)"/>
          <rect transform="rotate(11.25)" style="fill:#808080;fill-opacity:1;stroke-width:0.58079;stroke-linecap:round;stroke-linejoin:round" id="rect1199" width="2" height="82" x="130.46297" y="84.259666" rx="0.93852252" ry="1.1128013"/>
          <rect ry="1.1128013" rx="0.93852252" y="75.393387" x="138.37387" height="82" width="2" id="rect1201" style="fill:#808080;fill-opacity:1;stroke-width:0.58079;stroke-linecap:round;stroke-linejoin:round" transform="rotate(15)"/>
          <rect transform="rotate(18.75)" style="fill:#808080;fill-opacity:1;stroke-width:0.58079;stroke-linecap:round;stroke-linejoin:round" id="rect1203" width="2" height="82" x="145.68796" y="66.028694" rx="0.93852252" ry="1.1128013"/>
          <rect ry="1.1128013" rx="0.93852252" y="56.205685" x="152.3739" height="82" width="2" id="rect1205" style="fill:#808080;fill-opacity:1;stroke-width:0.58079;stroke-linecap:round;stroke-linejoin:round" transform="rotate(22.5)"/>
          <rect transform="rotate(26.25)" style="fill:#808080;fill-opacity:1;stroke-width:0.58079;stroke-linecap:round;stroke-linejoin:round" id="rect1207" width="2" height="82" x="158.40308" y="45.966427" rx="0.93852252" ry="1.1128013"/>
          <rect ry="1.1128013" rx="0.93852252" y="35.354767" x="163.74966" height="82" width="2" id="rect1209" style="fill:#808080;fill-opacity:1;stroke-width:0.58079;stroke-linecap:round;stroke-linejoin:round" transform="rotate(30)"/>
          <rect transform="rotate(33.75)" style="fill:#808080;fill-opacity:1;stroke-width:0.58079;stroke-linecap:round;stroke-linejoin:round" id="rect1211" width="2" height="82" x="168.39076" y="24.416142" rx="0.93852252" ry="1.1128013"/>
          <rect ry="1.1128013" rx="0.93852252" y="13.197394" x="172.3065" height="82" width="2" id="rect1213" style="fill:#808080;fill-opacity:1;stroke-width:0.58079;stroke-linecap:round;stroke-linejoin:round" transform="rotate(37.5)"/>
          <rect transform="rotate(41.25)" style="fill:#808080;fill-opacity:1;stroke-width:0.58079;stroke-linecap:round;stroke-linejoin:round" id="rect1215" width="2" height="82" x="175.48012" y="1.7465659" rx="0.93852252" ry="1.1128013"/>
          <rect ry="1.1128013" rx="0.93852252" y="-9.88731" x="177.89803" height="82" width="2" id="rect1217" style="fill:#808080;fill-opacity:1;stroke-width:0.58079;stroke-linecap:round;stroke-linejoin:round" transform="rotate(45)"/>
          <rect transform="rotate(48.75)" style="fill:#808080;fill-opacity:1;stroke-width:0.58079;stroke-linecap:round;stroke-linejoin:round" id="rect1219" width="2" height="82" x="179.54987" y="-21.654415" rx="0.93852252" ry="1.1128013"/>
          <rect ry="1.1128013" rx="0.93852252" y="-33.50436" x="180.42856" height="82" width="2" id="rect1221" style="fill:#808080;fill-opacity:1;stroke-width:0.58079;stroke-linecap:round;stroke-linejoin:round" transform="rotate(52.5)"/>
          <rect transform="rotate(56.25)" style="fill:#808080;fill-opacity:1;stroke-width:0.58079;stroke-linecap:round;stroke-linejoin:round" id="rect1223" width="2" height="82" x="180.53035" y="-45.386406" rx="0.93852252" ry="1.1128013"/>
          <rect ry="1.1128013" rx="0.93852252" y="-57.249668" x="179.8548" height="82" width="2" id="rect1225" style="fill:#808080;fill-opacity:1;stroke-width:0.58079;stroke-linecap:round;stroke-linejoin:round" transform="rotate(60)"/>
          <rect transform="rotate(63.75)" style="fill:#808080;fill-opacity:1;stroke-width:0.58079;stroke-linecap:round;stroke-linejoin:round" id="rect1227" width="2" height="82" x="178.4048" y="-69.043343" rx="0.93852252" ry="1.1128013"/>
          <rect ry="1.1128013" rx="0.93852252" y="-80.716934" x="176.18655" height="82" width="2" id="rect1229" style="fill:#808080;fill-opacity:1;stroke-width:0.58079;stroke-linecap:round;stroke-linejoin:round" transform="rotate(67.5)"/>
          <rect transform="rotate(71.25)" style="fill:#808080;fill-opacity:1;stroke-width:0.58079;stroke-linecap:round;stroke-linejoin:round" id="rect1231" width="2" height="82" x="173.20958" y="-92.220451" rx="0.93852252" ry="1.1128013"/>
          <rect ry="1.1128013" rx="0.93852252" y="-103.50464" x="169.4866" height="82" width="2" id="rect1233" style="fill:#808080;fill-opacity:1;stroke-width:0.58079;stroke-linecap:round;stroke-linejoin:round" transform="rotate(75)"/>
          <rect transform="rotate(78.75)" style="fill:#808080;fill-opacity:1;stroke-width:0.58079;stroke-linecap:round;stroke-linejoin:round" id="rect1235" width="2" height="82" x="165.03358" y="-114.52117" rx="0.93852252" ry="1.1128013"/>
          <rect ry="1.1128013" rx="0.93852252" y="-125.22287" x="159.86958" height="82" width="2" id="rect1237" style="fill:#808080;fill-opacity:1;stroke-width:0.58079;stroke-linecap:round;stroke-linejoin:round" transform="rotate(82.5)"/>
          <rect transform="rotate(86.25)" style="fill:#808080;fill-opacity:1;stroke-width:0.58079;stroke-linecap:round;stroke-linejoin:round" id="rect1239" width="2" height="82" x="154.01671" y="-135.56392" rx="0.93852252" ry="1.1128013"/>
          <rect ry="1.1128013" rx="0.93852252" y="-145.50003" x="147.50003" height="82" width="2" id="rect1241" style="fill:#808080;fill-opacity:1;stroke-width:0.58079;stroke-linecap:round;stroke-linejoin:round" transform="rotate(90)"/>
          <rect transform="rotate(93.75)" style="fill:#808080;fill-opacity:1;stroke-width:0.58079;stroke-linecap:round;stroke-linejoin:round" id="rect1243" width="2" height="82" x="140.34746" y="-154.98865" rx="0.93852252" ry="1.1128013"/>
          <rect ry="1.1128013" rx="0.93852252" y="-163.98915" x="132.58961" height="82" width="2" id="rect1245" style="fill:#808080;fill-opacity:1;stroke-width:0.58079;stroke-linecap:round;stroke-linejoin:round" transform="rotate(97.5)"/>
          <rect transform="rotate(101.25)" style="fill:#808080;fill-opacity:1;stroke-width:0.58079;stroke-linecap:round;stroke-linejoin:round" id="rect1247" width="2" height="82" x="124.25971" y="-172.463" rx="0.93852252" ry="1.1128013"/>
          <rect ry="1.1128013" rx="0.93852252" y="-180.3739" x="115.39343" height="82" width="2" id="rect1249" style="fill:#808080;fill-opacity:1;stroke-width:0.58079;stroke-linecap:round;stroke-linejoin:round" transform="rotate(105)"/>
          <rect transform="rotate(108.75)" style="fill:#808080;fill-opacity:1;stroke-width:0.58079;stroke-linecap:round;stroke-linejoin:round" id="rect1251" width="2" height="82" x="106.02873" y="-187.68799" rx="0.93852252" ry="1.1128013"/>
          <rect ry="1.1128013" rx="0.93852252" y="-194.37393" x="96.205719" height="82" width="2" id="rect1253" style="fill:#808080;fill-opacity:1;stroke-width:0.58079;stroke-linecap:round;stroke-linejoin:round" transform="rotate(112.5)"/>
          <rect transform="rotate(116.25)" style="fill:#808080;fill-opacity:1;stroke-width:0.58079;stroke-linecap:round;stroke-linejoin:round" id="rect1255" width="2" height="82" x="85.966461" y="-200.40311" rx="0.93852252" ry="1.1128013"/>
          <rect ry="1.1128013" rx="0.93852252" y="-205.74969" x="75.354797" height="82" width="2" id="rect1257" style="fill:#808080;fill-opacity:1;stroke-width:0.58079;stroke-linecap:round;stroke-linejoin:round" transform="rotate(120)"/>
          <rect transform="rotate(123.75)" style="fill:#808080;fill-opacity:1;stroke-width:0.58079;stroke-linecap:round;stroke-linejoin:round" id="rect1259" width="2" height="82" x="64.416168" y="-210.39079" rx="0.93852252" ry="1.1128013"/>
          <rect ry="1.1128013" rx="0.93852252" y="-214.30653" x="53.197418" height="82" width="2" id="rect1261" style="fill:#808080;fill-opacity:1;stroke-width:0.58079;stroke-linecap:round;stroke-linejoin:round" transform="rotate(127.5)"/>
          <rect transform="rotate(131.25)" style="fill:#808080;fill-opacity:1;stroke-width:0.58079;stroke-linecap:round;stroke-linejoin:round" id="rect1263" width="2" height="82" x="41.746586" y="-217.48015" rx="0.93852252" ry="1.1128013"/>
          <rect ry="1.1128013" rx="0.93852252" y="-219.89806" x="30.112709" height="82" width="2" id="rect1265" style="fill:#808080;fill-opacity:1;stroke-width:0.58079;stroke-linecap:round;stroke-linejoin:round" transform="rotate(135)"/>
          <rect transform="rotate(138.75)" style="fill:#808080;fill-opacity:1;stroke-width:0.58079;stroke-linecap:round;stroke-linejoin:round" id="rect1267" width="2" height="82" x="18.345602" y="-221.5499" rx="0.93852252" ry="1.1128013"/>
          <rect ry="1.1128013" rx="0.93852252" y="-222.42859" x="6.4956536" height="82" width="2" id="rect1269" style="fill:#808080;fill-opacity:1;stroke-width:0.58079;stroke-linecap:round;stroke-linejoin:round" transform="rotate(142.5)"/>
          <rect transform="rotate(146.25)" style="fill:#808080;fill-opacity:1;stroke-width:0.58079;stroke-linecap:round;stroke-linejoin:round" id="rect1271" width="2" height="82" x="-5.3863926" y="-222.53038" rx="0.93852252" ry="1.1128013"/>
          <rect ry="1.1128013" rx="0.93852252" y="-221.85483" x="-17.249657" height="82" width="2" id="rect1273" style="fill:#808080;fill-opacity:1;stroke-width:0.58079;stroke-linecap:round;stroke-linejoin:round" transform="rotate(150)"/>
          <rect transform="rotate(153.75)" style="fill:#808080;fill-opacity:1;stroke-width:0.58079;stroke-linecap:round;stroke-linejoin:round" id="rect1275" width="2" height="82" x="-29.043337" y="-220.40483" rx="0.93852252" ry="1.1128013"/>
          <rect ry="1.1128013" rx="0.93852252" y="-218.18658" x="-40.71693" height="82" width="2" id="rect1277" style="fill:#808080;fill-opacity:1;stroke-width:0.58079;stroke-linecap:round;stroke-linejoin:round" transform="rotate(157.5)"/>
          <rect transform="rotate(161.25)" style="fill:#808080;fill-opacity:1;stroke-width:0.58079;stroke-linecap:round;stroke-linejoin:round" id="rect1279" width="2" height="82" x="-52.220451" y="-215.20961" rx="0.93852252" ry="1.1128013"/>
          <rect ry="1.1128013" rx="0.93852252" y="-211.48663" x="-63.504639" height="82" width="2" id="rect1281" style="fill:#808080;fill-opacity:1;stroke-width:0.58079;stroke-linecap:round;stroke-linejoin:round" transform="rotate(165)"/>
          <rect transform="rotate(168.75)" style="fill:#808080;fill-opacity:1;stroke-width:0.58079;stroke-linecap:round;stroke-linejoin:round" id="rect1283" width="2" height="82" x="-74.521172" y="-207.03362" rx="0.93852252" ry="1.1128013"/>
          <rect ry="1.1128013" rx="0.93852252" y="-201.86961" x="-85.222878" height="82" width="2" id="rect1285" style="fill:#808080;fill-opacity:1;stroke-width:0.58079;stroke-linecap:round;stroke-linejoin:round" transform="rotate(172.5)"/>
          <rect transform="rotate(176.25)" style="fill:#808080;fill-opacity:1;stroke-width:0.58079;stroke-linecap:round;stroke-linejoin:round" id="rect1287" width="2" height="82" x="-95.563927" y="-196.01674" rx="0.93852252" ry="1.1128013"/>
        </g>
        <circle style="fill:#808080;stroke-width:4.5352;stroke-linecap:round;stroke-linejoin:round" id="path1289" cx="105" cy="148.5" r="40"/>
      </g>
      <circle r="38.5" cy="148.5" cx="105" id="path1399" style="fill:#999999;fill-opacity:1;stroke-width:1.67668;stroke-linecap:round;stroke-linejoin:round"/>
      <circle r="32.5" cy="148.5" cx="105" id="path1393" style="fill:#d4aa00;fill-opacity:1;stroke-width:1.52874;stroke-linecap:round;stroke-linejoin:round"/>
      <path transform="scale(0.26458333)" d="m 448.92773,454.50391 c -1.44143,0 -2.60156,1.575 -2.60156,3.53125 v 58.22656 a 48.739861,45.709402 0 0 1 5.20508,-0.51563 v -57.71093 c 0,-1.95625 -1.16208,-3.53125 -2.60352,-3.53125 z m -2.60156,152.01757 v 57.80469 c 0,1.95625 1.16013,3.53125 2.60156,3.53125 1.44144,0 2.60352,-1.575 2.60352,-3.53125 v -57.28711 a 48.739861,45.709402 0 0 1 -5.20508,-0.51758 z" style="fill:#ffcc00;fill-opacity:1;stroke-width:3.93354;stroke-linecap:round;stroke-linejoin:round" id="rect1409"/>
      <path id="rect1411" style="fill:#808080;fill-opacity:1;stroke-width:0.331985;stroke-linecap:round;stroke-linejoin:round" d="m 118.77901,113.0235 c 0.38138,0 0.68841,0.4149 0.68841,0.93028 v 3.8833 c 0,0.51538 -0.30703,0.93028 -0.68841,0.93028 -0.38138,0 -0.68841,-0.4149 -0.68841,-0.93028 v -3.8833 c 0,-0.51538 0.30703,-0.93028 0.68841,-0.93028 z"/>
      <path id="rect1413" style="fill:#808080;fill-opacity:1;stroke-width:0.331985;stroke-linecap:round;stroke-linejoin:round" d="m 118.77901,178.35759 c 0.38138,0 0.68841,0.4149 0.68841,0.93028 v 3.8833 c 0,0.51538 -0.30703,0.93028 -0.68841,0.93028 -0.38138,0 -0.68841,-0.4149 -0.68841,-0.93028 v -3.8833 c 0,-0.51538 0.30703,-0.93028 0.68841,-0.93028 z"/>
      <text id="text1403" y="169.76352" x="75.646095" style="font-style:italic;font-variant:normal;font-weight:bold;font-stretch:normal;font-size:68.4694px;line-height:1.25;font-family:'Book Antiqua';-inkscape-font-specification:'Book Antiqua, Bold Italic';font-variant-ligatures:normal;font-variant-caps:normal;font-variant-numeric:normal;font-variant-east-asian:normal;text-align:start;letter-spacing:0px;word-spacing:0px;writing-mode:lr-tb;direction:ltr;text-anchor:start;fill:#ffcc00;fill-opacity:1;stroke:none;stroke-width:0.356611" xml:space="preserve"><tspan style="font-style:italic;font-variant:normal;font-weight:bold;font-stretch:normal;font-size:68.4694px;font-family:'Book Antiqua';-inkscape-font-specification:'Book Antiqua, Bold Italic';font-variant-ligatures:normal;font-variant-caps:normal;font-variant-numeric:normal;font-variant-east-asian:normal;fill:#ffcc00;fill-opacity:1;stroke-width:0.356611" y="169.76352" x="75.646095" id="tspan1401" sodipodi:role="line">2</tspan></text>
      <path transform="scale(0.26458333)" d="m 461.42773,459.18359 c -1.44143,0 -2.60156,1.50259 -2.60156,3.36914 v 53.34961 a 48.739861,45.709402 0 0 1 5.20508,0.74805 v -54.09766 c 0,-1.86655 -1.16208,-3.36914 -2.60352,-3.36914 z m 2.60352,146.95118 a 48.739861,45.709402 0 0 1 -5.20508,0.74804 v 52.50391 c 0,1.86656 1.16013,3.36914 2.60156,3.36914 1.44144,0 2.60352,-1.50258 2.60352,-3.36914 z" style="fill:#ffcc00;fill-opacity:1;stroke-width:3.84231;stroke-linecap:round;stroke-linejoin:round" id="rect1420"/>
      <rect ry="0.88762921" rx="3.5895741" y="114.59347" x="121.39789" height="5.4805269" width="1.3768244" id="rect1422" style="fill:#808080;fill-opacity:1;stroke-width:0.324285;stroke-linecap:round;stroke-linejoin:round"/>
      <rect style="fill:#808080;fill-opacity:1;stroke-width:0.324285;stroke-linecap:round;stroke-linejoin:round" id="rect1424" width="1.3768244" height="5.4805269" x="121.39789" y="176.93221" rx="3.5895741" ry="0.88762921"/>
      <path transform="scale(0.26458333)" d="m 472.14258,466.37305 c -1.44144,0 -2.60156,1.38975 -2.60156,3.11718 v 48.5586 a 48.739861,45.709402 0 0 1 5.20312,1.95312 v -50.51172 c 0,-1.72743 -1.16013,-3.11718 -2.60156,-3.11718 z m 2.60156,136.41015 a 48.739861,45.709402 0 0 1 -5.20312,1.95313 v 46.91992 c 0,1.72743 1.16012,3.11719 2.60156,3.11719 1.44143,0 2.60156,-1.38976 2.60156,-3.11719 z" style="fill:#ffcc00;fill-opacity:1;stroke-width:3.69637;stroke-linecap:round;stroke-linejoin:round" id="rect1436"/>
      <rect ry="0.82147706" rx="3.5895741" y="117.00961" x="124.23271" height="5.0720806" width="1.3768244" id="rect1438" style="fill:#808080;fill-opacity:1;stroke-width:0.311968;stroke-linecap:round;stroke-linejoin:round"/>
      <rect style="fill:#808080;fill-opacity:1;stroke-width:0.311968;stroke-linecap:round;stroke-linejoin:round" id="rect1440" width="1.3768244" height="5.0720806" x="124.23271" y="174.70244" rx="3.5895741" ry="0.82147706"/>
      <path transform="scale(0.26458333)" d="m 485.08984,477.77148 c -1.47481,0 -2.66211,1.21377 -2.66211,2.72071 v 43.73047 a 48.739861,45.709402 0 0 1 5.32422,4.13867 v -47.86914 c 0,-1.50694 -1.1873,-2.72071 -2.66211,-2.72071 z m 2.66211,116.6543 a 48.739861,45.709402 0 0 1 -5.32422,4.13672 v 40.84375 c 0,1.50697 1.1873,2.7207 2.66211,2.7207 1.47481,0 2.66211,-1.21373 2.66211,-2.7207 z" style="fill:#ffcc00;fill-opacity:1;stroke-width:3.49215;stroke-linecap:round;stroke-linejoin:round" id="rect1444"/>
      <rect style="fill:#808080;fill-opacity:1;stroke-width:0.300127;stroke-linecap:round;stroke-linejoin:round" id="rect1446" width="1.4086961" height="4.5881696" x="127.64219" y="120.63477" rx="3.672668" ry="0.74310249"/>
      <rect ry="0.74310249" rx="3.672668" y="172.30359" x="127.64219" height="4.5881696" width="1.4086961" id="rect1448" style="fill:#808080;fill-opacity:1;stroke-width:0.300127;stroke-linecap:round;stroke-linejoin:round"/>
      <text xml:space="preserve" style="font-style:italic;font-variant:normal;font-weight:bold;font-stretch:normal;font-size:11.6989px;line-height:1.25;font-family:'Book Antiqua';-inkscape-font-specification:'Book Antiqua, Bold Italic';font-variant-ligatures:normal;font-variant-caps:normal;font-variant-numeric:normal;font-variant-east-asian:normal;text-align:start;letter-spacing:0px;word-spacing:0px;writing-mode:lr-tb;direction:ltr;text-anchor:start;fill:#ffcc00;fill-opacity:1;stroke:#aa8800;stroke-width:0.2;stroke-miterlimit:4;stroke-dasharray:none" x="109.30708" y="152.20232" id="text1407"><tspan sodipodi:role="line" id="tspan1405" x="109.30708" y="152.20232" style="font-style:italic;font-variant:normal;font-weight:bold;font-stretch:normal;font-size:11.6989px;font-family:'Book Antiqua';-inkscape-font-specification:'Book Antiqua, Bold Italic';font-variant-ligatures:normal;font-variant-caps:normal;font-variant-numeric:normal;font-variant-east-asian:normal;fill:#ffcc00;fill-opacity:1;stroke:#aa8800;stroke-width:0.2;stroke-miterlimit:4;stroke-dasharray:none">EURO</tspan></text>
    </g>
  </g>
</svg>