<?xml version="1.0" encoding="UTF-8" standalone="no"?>
<svg xmlns:dc="http://purl.org/dc/elements/1.1/" xmlns:cc="http://creativecommons.org/ns#" xmlns:rdf="http://www.w3.org/1999/02/22-rdf-syntax-ns#" xmlns:svg="http://www.w3.org/2000/svg" xmlns="http://www.w3.org/2000/svg" xmlns:sodipodi="http://sodipodi.sourceforge.net/DTD/sodipodi-0.dtd" xmlns:inkscape="http://www.inkscape.org/namespaces/inkscape" sodipodi:docname="2_Euro.svg" inkscape:version="1.0 (4035a4fb49, 2020-05-01)" id="svg8" version="1.1" viewBox="0 0 79.374998 79.375002" height="300" width="300">
  <defs id="defs2"/>
  <sodipodi:namedview inkscape:window-maximized="1" inkscape:window-y="-8" inkscape:window-x="1912" inkscape:window-height="1027" inkscape:window-width="1920" showgrid="false" inkscape:document-rotation="0" inkscape:current-layer="layer1" inkscape:document-units="mm" inkscape:cy="171.01289" inkscape:cx="2.3367907" inkscape:zoom="0.7" inkscape:pageshadow="2" inkscape:pageopacity="0.0" borderopacity="1.0" bordercolor="#666666" pagecolor="#ffffff" id="base" units="px"/>
  <metadata id="metadata5">
    <rdf:RDF>
      <cc:Work rdf:about="">
        <dc:format>image/svg+xml</dc:format>
        <dc:type rdf:resource="http://purl.org/dc/dcmitype/StillImage"/>
        <dc:title/>
      </cc:Work>
    </rdf:RDF>
  </metadata>
  <g id="layer1" inkscape:groupmode="layer" inkscape:label="Ebene 1">
    <g transform="matrix(0.9679878,0,0,0.9679878,-61.951219,-104.05869)" style="fill:#808080" id="g1391">
      <g id="g1339" transform="translate(0.49996948)" style="fill:#808080;fill-opacity:1">
        <path d="m 104.43852,107.5 h 0.12296 c 0.51994,0 0.93852,0.49631 0.93852,1.1128 v 79.7744 c 0,0.61649 -0.41858,1.1128 -0.93852,1.1128 h -0.12296 c -0.51994,0 -0.93852,-0.49631 -0.93852,-1.1128 v -79.7744 c 0,-0.61649 0.41858,-1.1128 0.93852,-1.1128 z" style="fill:#808080;fill-opacity:1;stroke-width:0.58079;stroke-linecap:round;stroke-linejoin:round" id="rect839"/>
        <path d="m 113.92714,100.34742 h 0.12295 c 0.51995,0 0.93853,0.49631 0.93853,1.1128 v 79.7744 c 0,0.61649 -0.41858,1.1128 -0.93853,1.1128 h -0.12295 c -0.51994,0 -0.93852,-0.49631 -0.93852,-1.1128 v -79.7744 c 0,-0.61649 0.41858,-1.1128 0.93852,-1.1128 z" transform="rotate(3.75)" style="fill:#808080;fill-opacity:1;stroke-width:0.58079;stroke-linecap:round;stroke-linejoin:round" id="rect1195"/>
        <path d="m 122.92764,92.589569 h 0.12296 c 0.51994,0 0.93852,0.496309 0.93852,1.112801 v 79.7744 c 0,0.61649 -0.41858,1.1128 -0.93852,1.1128 h -0.12296 c -0.51994,0 -0.93852,-0.49631 -0.93852,-1.1128 v -79.7744 c 0,-0.616492 0.41858,-1.112801 0.93852,-1.112801 z" transform="rotate(7.5)" style="fill:#808080;fill-opacity:1;stroke-width:0.58079;stroke-linecap:round;stroke-linejoin:round" id="rect1197"/>
        <path d="m 131.40149,84.259666 h 0.12295 c 0.51995,0 0.93853,0.49631 0.93853,1.112802 v 79.774402 c 0,0.61649 -0.41858,1.1128 -0.93853,1.1128 h -0.12295 c -0.51994,0 -0.93852,-0.49631 -0.93852,-1.1128 V 85.372468 c 0,-0.616492 0.41858,-1.112802 0.93852,-1.112802 z" transform="rotate(11.25)" style="fill:#808080;fill-opacity:1;stroke-width:0.58079;stroke-linecap:round;stroke-linejoin:round" id="rect1199"/>
        <path d="m 139.31239,75.393387 h 0.12296 c 0.51994,0 0.93852,0.496309 0.93852,1.112801 v 79.774402 c 0,0.61649 -0.41858,1.1128 -0.93852,1.1128 h -0.12296 c -0.51994,0 -0.93852,-0.49631 -0.93852,-1.1128 V 76.506188 c 0,-0.616492 0.41858,-1.112801 0.93852,-1.112801 z" transform="rotate(15)" style="fill:#808080;fill-opacity:1;stroke-width:0.58079;stroke-linecap:round;stroke-linejoin:round" id="rect1201"/>
        <path d="m 146.62648,66.028694 h 0.12296 c 0.51994,0 0.93852,0.49631 0.93852,1.112801 v 79.774395 c 0,0.61649 -0.41858,1.1128 -0.93852,1.1128 h -0.12296 c -0.51994,0 -0.93852,-0.49631 -0.93852,-1.1128 V 67.141495 c 0,-0.616491 0.41858,-1.112801 0.93852,-1.112801 z" transform="rotate(18.75)" style="fill:#808080;fill-opacity:1;stroke-width:0.58079;stroke-linecap:round;stroke-linejoin:round" id="rect1203"/>
        <path d="m 153.31242,56.205685 h 0.12296 c 0.51994,0 0.93852,0.496309 0.93852,1.112801 v 79.774394 c 0,0.6165 -0.41858,1.1128 -0.93852,1.1128 h -0.12296 c -0.51994,0 -0.93852,-0.4963 -0.93852,-1.1128 V 57.318486 c 0,-0.616492 0.41858,-1.112801 0.93852,-1.112801 z" transform="rotate(22.5)" style="fill:#808080;fill-opacity:1;stroke-width:0.58079;stroke-linecap:round;stroke-linejoin:round" id="rect1205"/>
        <path d="m 159.3416,45.966427 h 0.12295 c 0.51995,0 0.93853,0.496309 0.93853,1.112801 v 79.774402 c 0,0.61649 -0.41858,1.1128 -0.93853,1.1128 h -0.12295 c -0.51994,0 -0.93852,-0.49631 -0.93852,-1.1128 V 47.079228 c 0,-0.616492 0.41858,-1.112801 0.93852,-1.112801 z" transform="rotate(26.25)" style="fill:#808080;fill-opacity:1;stroke-width:0.58079;stroke-linecap:round;stroke-linejoin:round" id="rect1207"/>
        <path d="m 164.68819,35.354767 h 0.12295 c 0.51994,0 0.93852,0.496309 0.93852,1.112801 v 79.774402 c 0,0.61649 -0.41858,1.1128 -0.93852,1.1128 h -0.12295 c -0.51994,0 -0.93853,-0.49631 -0.93853,-1.1128 V 36.467568 c 0,-0.616492 0.41859,-1.112801 0.93853,-1.112801 z" transform="rotate(30)" style="fill:#808080;fill-opacity:1;stroke-width:0.58079;stroke-linecap:round;stroke-linejoin:round" id="rect1209"/>
        <path d="m 169.32928,24.416142 h 0.12296 c 0.51994,0 0.93852,0.496309 0.93852,1.112801 v 79.774397 c 0,0.61649 -0.41858,1.1128 -0.93852,1.1128 h -0.12296 c -0.51994,0 -0.93852,-0.49631 -0.93852,-1.1128 V 25.528943 c 0,-0.616492 0.41858,-1.112801 0.93852,-1.112801 z" transform="rotate(33.75)" style="fill:#808080;fill-opacity:1;stroke-width:0.58079;stroke-linecap:round;stroke-linejoin:round" id="rect1211"/>
        <path d="m 173.24503,13.197394 h 0.12295 c 0.51994,0 0.93852,0.49631 0.93852,1.112802 v 79.774397 c 0,0.616492 -0.41858,1.112801 -0.93852,1.112801 h -0.12295 c -0.51995,0 -0.93853,-0.496309 -0.93853,-1.112801 V 14.310196 c 0,-0.616492 0.41858,-1.112802 0.93853,-1.112802 z" transform="rotate(37.5)" style="fill:#808080;fill-opacity:1;stroke-width:0.58079;stroke-linecap:round;stroke-linejoin:round" id="rect1213"/>
        <path d="m 176.41864,1.7465659 h 0.12296 c 0.51994,0 0.93852,0.4963094 0.93852,1.1128014 V 82.633765 c 0,0.616492 -0.41858,1.112801 -0.93852,1.112801 h -0.12296 c -0.51994,0 -0.93852,-0.496309 -0.93852,-1.112801 V 2.8593673 c 0,-0.616492 0.41858,-1.1128014 0.93852,-1.1128014 z" transform="rotate(41.25)" style="fill:#808080;fill-opacity:1;stroke-width:0.58079;stroke-linecap:round;stroke-linejoin:round" id="rect1215"/>
        <path d="m 178.83655,-9.88731 h 0.12295 c 0.51994,0 0.93853,0.4963094 0.93853,1.1128013 V 70.999889 c 0,0.616492 -0.41859,1.112801 -0.93853,1.112801 h -0.12295 c -0.51994,0 -0.93852,-0.496309 -0.93852,-1.112801 V -8.7745087 c 0,-0.6164919 0.41858,-1.1128013 0.93852,-1.1128013 z" transform="rotate(45)" style="fill:#808080;fill-opacity:1;stroke-width:0.58079;stroke-linecap:round;stroke-linejoin:round" id="rect1217"/>
        <path d="m 180.48839,-21.654415 h 0.12295 c 0.51994,0 0.93853,0.496309 0.93853,1.112801 v 79.774398 c 0,0.616491 -0.41859,1.112801 -0.93853,1.112801 h -0.12295 c -0.51994,0 -0.93852,-0.49631 -0.93852,-1.112801 v -79.774398 c 0,-0.616492 0.41858,-1.112801 0.93852,-1.112801 z" transform="rotate(48.75)" style="fill:#808080;fill-opacity:1;stroke-width:0.58079;stroke-linecap:round;stroke-linejoin:round" id="rect1219"/>
        <path d="m 181.36708,-33.50436 h 0.12296 c 0.51994,0 0.93852,0.496309 0.93852,1.112801 v 79.774397 c 0,0.616492 -0.41858,1.112802 -0.93852,1.112802 h -0.12296 c -0.51994,0 -0.93852,-0.49631 -0.93852,-1.112802 v -79.774397 c 0,-0.616492 0.41858,-1.112801 0.93852,-1.112801 z" transform="rotate(52.5)" style="fill:#808080;fill-opacity:1;stroke-width:0.58079;stroke-linecap:round;stroke-linejoin:round" id="rect1221"/>
        <path d="m 181.46887,-45.386406 h 0.12296 c 0.51994,0 0.93852,0.496309 0.93852,1.112801 v 79.774398 c 0,0.616492 -0.41858,1.112801 -0.93852,1.112801 h -0.12296 c -0.51994,0 -0.93852,-0.496309 -0.93852,-1.112801 v -79.774398 c 0,-0.616492 0.41858,-1.112801 0.93852,-1.112801 z" transform="rotate(56.25)" style="fill:#808080;fill-opacity:1;stroke-width:0.58079;stroke-linecap:round;stroke-linejoin:round" id="rect1223"/>
        <path d="m 180.79332,-57.249668 h 0.12295 c 0.51995,0 0.93853,0.496309 0.93853,1.112801 v 79.774398 c 0,0.616491 -0.41858,1.112801 -0.93853,1.112801 h -0.12295 c -0.51994,0 -0.93852,-0.49631 -0.93852,-1.112801 v -79.774398 c 0,-0.616492 0.41858,-1.112801 0.93852,-1.112801 z" transform="rotate(60)" style="fill:#808080;fill-opacity:1;stroke-width:0.58079;stroke-linecap:round;stroke-linejoin:round" id="rect1225"/>
        <path d="m 179.34332,-69.043343 h 0.12296 c 0.51994,0 0.93852,0.49631 0.93852,1.112802 v 79.774397 c 0,0.616492 -0.41858,1.112801 -0.93852,1.112801 h -0.12296 c -0.51994,0 -0.93852,-0.496309 -0.93852,-1.112801 v -79.774397 c 0,-0.616492 0.41858,-1.112802 0.93852,-1.112802 z" transform="rotate(63.75)" style="fill:#808080;fill-opacity:1;stroke-width:0.58079;stroke-linecap:round;stroke-linejoin:round" id="rect1227"/>
        <path d="m 177.12508,-80.716934 h 0.12295 c 0.51994,0 0.93852,0.496309 0.93852,1.112801 V 0.17026448 c 0,0.61649193 -0.41858,1.11280132 -0.93852,1.11280132 h -0.12295 c -0.51995,0 -0.93853,-0.49630939 -0.93853,-1.11280132 V -79.604133 c 0,-0.616492 0.41858,-1.112801 0.93853,-1.112801 z" transform="rotate(67.5)" style="fill:#808080;fill-opacity:1;stroke-width:0.58079;stroke-linecap:round;stroke-linejoin:round" id="rect1229"/>
        <path d="m 174.1481,-92.220451 h 0.12296 c 0.51994,0 0.93852,0.496309 0.93852,1.112801 v 79.774397 c 0,0.616492 -0.41858,1.112802 -0.93852,1.112802 h -0.12296 c -0.51994,0 -0.93852,-0.49631 -0.93852,-1.112802 V -91.10765 c 0,-0.616492 0.41858,-1.112801 0.93852,-1.112801 z" transform="rotate(71.25)" style="fill:#808080;fill-opacity:1;stroke-width:0.58079;stroke-linecap:round;stroke-linejoin:round" id="rect1231"/>
        <path d="m 170.42513,-103.50464 h 0.12295 c 0.51994,0 0.93852,0.49631 0.93852,1.1128 v 79.7744 c 0,0.616492 -0.41858,1.112801 -0.93852,1.112801 h -0.12295 c -0.51995,0 -0.93853,-0.496309 -0.93853,-1.112801 v -79.7744 c 0,-0.61649 0.41858,-1.1128 0.93853,-1.1128 z" transform="rotate(75)" style="fill:#808080;fill-opacity:1;stroke-width:0.58079;stroke-linecap:round;stroke-linejoin:round" id="rect1233"/>
        <path d="m 165.97211,-114.52117 h 0.12295 c 0.51994,0 0.93852,0.49631 0.93852,1.1128 v 79.774397 c 0,0.616492 -0.41858,1.112801 -0.93852,1.112801 h -0.12295 c -0.51994,0 -0.93853,-0.496309 -0.93853,-1.112801 v -79.774397 c 0,-0.61649 0.41859,-1.1128 0.93853,-1.1128 z" transform="rotate(78.75)" style="fill:#808080;fill-opacity:1;stroke-width:0.58079;stroke-linecap:round;stroke-linejoin:round" id="rect1235"/>
        <path d="m 160.80811,-125.22287 h 0.12295 c 0.51994,0 0.93852,0.49631 0.93852,1.1128 v 79.774399 c 0,0.616492 -0.41858,1.112801 -0.93852,1.112801 h -0.12295 c -0.51995,0 -0.93853,-0.496309 -0.93853,-1.112801 v -79.774399 c 0,-0.61649 0.41858,-1.1128 0.93853,-1.1128 z" transform="rotate(82.5)" style="fill:#808080;fill-opacity:1;stroke-width:0.58079;stroke-linecap:round;stroke-linejoin:round" id="rect1237"/>
        <path d="m 154.95523,-135.56392 h 0.12296 c 0.51994,0 0.93852,0.49631 0.93852,1.1128 v 79.7744 c 0,0.616492 -0.41858,1.112801 -0.93852,1.112801 h -0.12296 c -0.51994,0 -0.93852,-0.496309 -0.93852,-1.112801 v -79.7744 c 0,-0.61649 0.41858,-1.1128 0.93852,-1.1128 z" transform="rotate(86.25)" style="fill:#808080;fill-opacity:1;stroke-width:0.58079;stroke-linecap:round;stroke-linejoin:round" id="rect1239"/>
        <path d="m 148.43855,-145.50003 h 0.12296 c 0.51994,0 0.93852,0.49631 0.93852,1.1128 v 79.774398 c 0,0.616492 -0.41858,1.112801 -0.93852,1.112801 h -0.12296 c -0.51994,0 -0.93852,-0.496309 -0.93852,-1.112801 v -79.774398 c 0,-0.61649 0.41858,-1.1128 0.93852,-1.1128 z" transform="rotate(90)" style="fill:#808080;fill-opacity:1;stroke-width:0.58079;stroke-linecap:round;stroke-linejoin:round" id="rect1241"/>
        <path d="m 141.28598,-154.98865 h 0.12296 c 0.51994,0 0.93852,0.49631 0.93852,1.1128 v 79.774401 c 0,0.616492 -0.41858,1.112802 -0.93852,1.112802 h -0.12296 c -0.51994,0 -0.93852,-0.49631 -0.93852,-1.112802 v -79.774401 c 0,-0.61649 0.41858,-1.1128 0.93852,-1.1128 z" transform="rotate(93.75)" style="fill:#808080;fill-opacity:1;stroke-width:0.58079;stroke-linecap:round;stroke-linejoin:round" id="rect1243"/>
        <path d="m 133.52814,-163.98915 h 0.12295 c 0.51994,0 0.93852,0.49631 0.93852,1.1128 v 79.774398 c 0,0.616492 -0.41858,1.112801 -0.93852,1.112801 h -0.12295 c -0.51994,0 -0.93853,-0.496309 -0.93853,-1.112801 v -79.774398 c 0,-0.61649 0.41859,-1.1128 0.93853,-1.1128 z" transform="rotate(97.5)" style="fill:#808080;fill-opacity:1;stroke-width:0.58079;stroke-linecap:round;stroke-linejoin:round" id="rect1245"/>
        <path d="m 125.19823,-172.463 h 0.12296 c 0.51994,0 0.93852,0.49631 0.93852,1.1128 v 79.774401 c 0,0.616492 -0.41858,1.112802 -0.93852,1.112802 h -0.12296 c -0.51994,0 -0.93852,-0.49631 -0.93852,-1.112802 V -171.3502 c 0,-0.61649 0.41858,-1.1128 0.93852,-1.1128 z" transform="rotate(101.25)" style="fill:#808080;fill-opacity:1;stroke-width:0.58079;stroke-linecap:round;stroke-linejoin:round" id="rect1247"/>
        <path d="m 116.33196,-180.3739 h 0.12295 c 0.51994,0 0.93852,0.49631 0.93852,1.1128 v 79.774397 c 0,0.616492 -0.41858,1.112802 -0.93852,1.112802 h -0.12295 c -0.51995,0 -0.93853,-0.49631 -0.93853,-1.112802 V -179.2611 c 0,-0.61649 0.41858,-1.1128 0.93853,-1.1128 z" transform="rotate(105)" style="fill:#808080;fill-opacity:1;stroke-width:0.58079;stroke-linecap:round;stroke-linejoin:round" id="rect1249"/>
        <path d="m 106.96725,-187.68799 h 0.12296 c 0.51994,0 0.93852,0.49631 0.93852,1.1128 v 79.7744 c 0,0.61649 -0.41858,1.1128 -0.93852,1.1128 h -0.12296 c -0.51994,0 -0.93852,-0.49631 -0.93852,-1.1128 v -79.7744 c 0,-0.61649 0.41858,-1.1128 0.93852,-1.1128 z" transform="rotate(108.75)" style="fill:#808080;fill-opacity:1;stroke-width:0.58079;stroke-linecap:round;stroke-linejoin:round" id="rect1251"/>
        <path d="m 97.144242,-194.37393 h 0.122954 c 0.519942,0 0.938523,0.49631 0.938523,1.1128 v 79.7744 c 0,0.61649 -0.418581,1.1128 -0.938523,1.1128 h -0.122954 c -0.519942,0 -0.938523,-0.49631 -0.938523,-1.1128 v -79.7744 c 0,-0.61649 0.418581,-1.1128 0.938523,-1.1128 z" transform="rotate(112.5)" style="fill:#808080;fill-opacity:1;stroke-width:0.58079;stroke-linecap:round;stroke-linejoin:round" id="rect1253"/>
        <path d="m 86.904984,-200.40311 h 0.122955 c 0.519941,0 0.938522,0.49631 0.938522,1.1128 v 79.7744 c 0,0.61649 -0.418581,1.1128 -0.938522,1.1128 h -0.122955 c -0.519942,0 -0.938523,-0.49631 -0.938523,-1.1128 v -79.7744 c 0,-0.61649 0.418581,-1.1128 0.938523,-1.1128 z" transform="rotate(116.25)" style="fill:#808080;fill-opacity:1;stroke-width:0.58079;stroke-linecap:round;stroke-linejoin:round" id="rect1255"/>
        <path d="m 76.29332,-205.74969 h 0.122955 c 0.519941,0 0.938522,0.4963 0.938522,1.1128 v 79.77439 c 0,0.6165 -0.418581,1.11281 -0.938522,1.11281 H 76.29332 c -0.519942,0 -0.938523,-0.49631 -0.938523,-1.11281 v -79.77439 c 0,-0.6165 0.418581,-1.1128 0.938523,-1.1128 z" transform="rotate(120)" style="fill:#808080;fill-opacity:1;stroke-width:0.58079;stroke-linecap:round;stroke-linejoin:round" id="rect1257"/>
        <path d="m 65.354691,-210.39079 h 0.122955 c 0.519941,0 0.938522,0.49631 0.938522,1.1128 v 79.7744 c 0,0.61649 -0.418581,1.1128 -0.938522,1.1128 h -0.122955 c -0.519942,0 -0.938523,-0.49631 -0.938523,-1.1128 v -79.7744 c 0,-0.61649 0.418581,-1.1128 0.938523,-1.1128 z" transform="rotate(123.75)" style="fill:#808080;fill-opacity:1;stroke-width:0.58079;stroke-linecap:round;stroke-linejoin:round" id="rect1259"/>
        <path d="m 54.135941,-214.30653 h 0.122955 c 0.519941,0 0.938522,0.49631 0.938522,1.1128 v 79.77439 c 0,0.6165 -0.418581,1.11281 -0.938522,1.11281 h -0.122955 c -0.519942,0 -0.938523,-0.49631 -0.938523,-1.11281 v -79.77439 c 0,-0.61649 0.418581,-1.1128 0.938523,-1.1128 z" transform="rotate(127.5)" style="fill:#808080;fill-opacity:1;stroke-width:0.58079;stroke-linecap:round;stroke-linejoin:round" id="rect1261"/>
        <path d="m 42.685108,-217.48015 h 0.122955 c 0.519942,0 0.938523,0.49631 0.938523,1.1128 v 79.7744 c 0,0.61649 -0.418581,1.1128 -0.938523,1.1128 h -0.122955 c -0.519941,0 -0.938522,-0.49631 -0.938522,-1.1128 v -79.7744 c 0,-0.61649 0.418581,-1.1128 0.938522,-1.1128 z" transform="rotate(131.25)" style="fill:#808080;fill-opacity:1;stroke-width:0.58079;stroke-linecap:round;stroke-linejoin:round" id="rect1263"/>
        <path d="m 31.051232,-219.89806 h 0.122955 c 0.519941,0 0.938522,0.49631 0.938522,1.11281 v 79.77439 c 0,0.61649 -0.418581,1.1128 -0.938522,1.1128 h -0.122955 c -0.519942,0 -0.938523,-0.49631 -0.938523,-1.1128 v -79.77439 c 0,-0.6165 0.418581,-1.11281 0.938523,-1.11281 z" transform="rotate(135)" style="fill:#808080;fill-opacity:1;stroke-width:0.58079;stroke-linecap:round;stroke-linejoin:round" id="rect1265"/>
        <path d="m 19.284125,-221.5499 h 0.122955 c 0.519941,0 0.938522,0.49631 0.938522,1.11281 v 79.77439 c 0,0.61649 -0.418581,1.1128 -0.938522,1.1128 h -0.122955 c -0.519942,0 -0.938523,-0.49631 -0.938523,-1.1128 v -79.77439 c 0,-0.6165 0.418581,-1.11281 0.938523,-1.11281 z" transform="rotate(138.75)" style="fill:#808080;fill-opacity:1;stroke-width:0.58079;stroke-linecap:round;stroke-linejoin:round" id="rect1267"/>
        <path d="m 7.4341761,-222.42859 h 0.122955 c 0.5199415,0 0.9385225,0.49631 0.9385225,1.1128 v 79.7744 c 0,0.61649 -0.418581,1.1128 -0.9385225,1.1128 h -0.122955 c -0.5199414,0 -0.9385225,-0.49631 -0.9385225,-1.1128 v -79.7744 c 0,-0.61649 0.4185811,-1.1128 0.9385225,-1.1128 z" transform="rotate(142.5)" style="fill:#808080;fill-opacity:1;stroke-width:0.58079;stroke-linecap:round;stroke-linejoin:round" id="rect1269"/>
        <path d="m -4.4478701,-222.53038 h 0.122955 c 0.5199415,0 0.9385225,0.49631 0.9385225,1.1128 v 79.7744 c 0,0.61649 -0.418581,1.1128 -0.9385225,1.1128 h -0.122955 c -0.5199415,0 -0.9385225,-0.49631 -0.9385225,-1.1128 v -79.7744 c 0,-0.61649 0.418581,-1.1128 0.9385225,-1.1128 z" transform="rotate(146.25)" style="fill:#808080;fill-opacity:1;stroke-width:0.58079;stroke-linecap:round;stroke-linejoin:round" id="rect1271"/>
        <path d="m -16.311134,-221.85483 h 0.122955 c 0.519941,0 0.938522,0.49631 0.938522,1.1128 v 79.7744 c 0,0.61649 -0.418581,1.1128 -0.938522,1.1128 h -0.122955 c -0.519942,0 -0.938523,-0.49631 -0.938523,-1.1128 v -79.7744 c 0,-0.61649 0.418581,-1.1128 0.938523,-1.1128 z" transform="rotate(150)" style="fill:#808080;fill-opacity:1;stroke-width:0.58079;stroke-linecap:round;stroke-linejoin:round" id="rect1273"/>
        <path d="m -28.104814,-220.40483 h 0.122955 c 0.519941,0 0.938522,0.49631 0.938522,1.1128 v 79.7744 c 0,0.61649 -0.418581,1.1128 -0.938522,1.1128 h -0.122955 c -0.519942,0 -0.938523,-0.49631 -0.938523,-1.1128 v -79.7744 c 0,-0.61649 0.418581,-1.1128 0.938523,-1.1128 z" transform="rotate(153.75)" style="fill:#808080;fill-opacity:1;stroke-width:0.58079;stroke-linecap:round;stroke-linejoin:round" id="rect1275"/>
        <path d="m -39.778408,-218.18658 h 0.122955 c 0.519942,0 0.938523,0.4963 0.938523,1.1128 v 79.77439 c 0,0.6165 -0.418581,1.11281 -0.938523,1.11281 h -0.122955 c -0.519941,0 -0.938522,-0.49631 -0.938522,-1.11281 v -79.77439 c 0,-0.6165 0.418581,-1.1128 0.938522,-1.1128 z" transform="rotate(157.5)" style="fill:#808080;fill-opacity:1;stroke-width:0.58079;stroke-linecap:round;stroke-linejoin:round" id="rect1277"/>
        <path d="m -51.281929,-215.20961 h 0.122955 c 0.519942,0 0.938523,0.49631 0.938523,1.1128 v 79.7744 c 0,0.61649 -0.418581,1.1128 -0.938523,1.1128 h -0.122955 c -0.519941,0 -0.938522,-0.49631 -0.938522,-1.1128 v -79.7744 c 0,-0.61649 0.418581,-1.1128 0.938522,-1.1128 z" transform="rotate(161.25)" style="fill:#808080;fill-opacity:1;stroke-width:0.58079;stroke-linecap:round;stroke-linejoin:round" id="rect1279"/>
        <path d="m -62.566116,-211.48663 h 0.122955 c 0.519941,0 0.938522,0.49631 0.938522,1.1128 v 79.7744 c 0,0.61649 -0.418581,1.1128 -0.938522,1.1128 h -0.122955 c -0.519942,0 -0.938523,-0.49631 -0.938523,-1.1128 v -79.7744 c 0,-0.61649 0.418581,-1.1128 0.938523,-1.1128 z" transform="rotate(165)" style="fill:#808080;fill-opacity:1;stroke-width:0.58079;stroke-linecap:round;stroke-linejoin:round" id="rect1281"/>
        <path d="m -73.582649,-207.03362 h 0.122955 c 0.519941,0 0.938522,0.49631 0.938522,1.11281 v 79.77439 c 0,0.6165 -0.418581,1.1128 -0.938522,1.1128 h -0.122955 c -0.519942,0 -0.938523,-0.4963 -0.938523,-1.1128 v -79.77439 c 0,-0.6165 0.418581,-1.11281 0.938523,-1.11281 z" transform="rotate(168.75)" style="fill:#808080;fill-opacity:1;stroke-width:0.58079;stroke-linecap:round;stroke-linejoin:round" id="rect1283"/>
        <path d="m -84.284355,-201.86961 h 0.122955 c 0.519941,0 0.938522,0.49631 0.938522,1.1128 v 79.7744 c 0,0.61649 -0.418581,1.1128 -0.938522,1.1128 h -0.122955 c -0.519941,0 -0.938523,-0.49631 -0.938523,-1.1128 v -79.7744 c 0,-0.61649 0.418582,-1.1128 0.938523,-1.1128 z" transform="rotate(172.5)" style="fill:#808080;fill-opacity:1;stroke-width:0.58079;stroke-linecap:round;stroke-linejoin:round" id="rect1285"/>
        <path d="m -94.625404,-196.01674 h 0.122955 c 0.519941,0 0.938522,0.49631 0.938522,1.1128 v 79.7744 c 0,0.61649 -0.418581,1.1128 -0.938522,1.1128 h -0.122955 c -0.519942,0 -0.938523,-0.49631 -0.938523,-1.1128 v -79.7744 c 0,-0.61649 0.418581,-1.1128 0.938523,-1.1128 z" transform="rotate(176.25)" style="fill:#808080;fill-opacity:1;stroke-width:0.58079;stroke-linecap:round;stroke-linejoin:round" id="rect1287"/>
      </g>
      <path d="m 145,148.5 a 40,40 0 0 1 -40,40 40,40 0 0 1 -40,-40 40,40 0 0 1 40,-40 40,40 0 0 1 40,40" style="fill:#808080;stroke-width:4.5352;stroke-linecap:round;stroke-linejoin:round" id="path1289"/>
    </g>
    <path d="M 76.955029,39.6875 A 37.267529,37.267529 0 0 1 39.6875,76.955029 37.267529,37.267529 0 0 1 2.4199715,39.6875 37.267529,37.267529 0 0 1 39.6875,2.4199715 37.267529,37.267529 0 0 1 76.955029,39.6875" style="fill:#999999;fill-opacity:1;stroke-width:1.62301;stroke-linecap:round;stroke-linejoin:round" id="path1399"/>
    <path d="M 71.147104,39.6875 A 31.459604,31.459604 0 0 1 39.6875,71.147104 31.459604,31.459604 0 0 1 8.2278957,39.6875 31.459604,31.459604 0 0 1 39.6875,8.2278957 31.459604,31.459604 0 0 1 71.147104,39.6875" style="fill:#d4aa00;fill-opacity:1;stroke-width:1.4798;stroke-linecap:round;stroke-linejoin:round" id="path1393"/>
    <path d="m 53.025206,12.34587 c -0.369169,0 -0.666294,0.403379 -0.666294,0.9044 v 14.912605 a 12.482933,11.706792 0 0 1 1.333091,-0.13206 V 13.25027 c 0,-0.501021 -0.297625,-0.9044 -0.666797,-0.9044 z m -0.666294,38.933743 v 14.804558 c 0,0.501022 0.297125,0.9044 0.666294,0.9044 0.369172,0 0.666797,-0.403378 0.666797,-0.9044 V 51.412172 a 12.482933,11.706792 0 0 1 -1.333091,-0.132559 z" style="fill:#ffdd55;fill-opacity:1;stroke-width:1.00743;stroke-linecap:round;stroke-linejoin:round" id="rect1409"/>
    <path id="rect1411" style="fill:#808080;fill-opacity:1;stroke-width:0.321357;stroke-linecap:round;stroke-linejoin:round" d="m 53.025414,5.3466791 c 0.369171,0 0.666372,0.4016182 0.666372,0.9004997 v 3.7589872 c 0,0.498881 -0.297201,0.9005 -0.666372,0.9005 -0.369172,0 -0.666373,-0.401619 -0.666373,-0.9005 V 6.2471788 c 0,-0.4988815 0.297201,-0.9004997 0.666373,-0.9004997 z"/>
    <path id="rect1413" style="fill:#808080;fill-opacity:1;stroke-width:0.321357;stroke-linecap:round;stroke-linejoin:round" d="m 53.025414,68.589281 c 0.369171,0 0.666372,0.401618 0.666372,0.9005 v 3.758987 c 0,0.498881 -0.297201,0.9005 -0.666372,0.9005 -0.369172,0 -0.666373,-0.401619 -0.666373,-0.9005 v -3.758987 c 0,-0.498882 0.297201,-0.9005 0.666373,-0.9005 z"/>
    <g style="font-style:italic;font-variant:normal;font-weight:bold;font-stretch:normal;font-size:66.2775px;line-height:1.25;font-family:'Book Antiqua';-inkscape-font-specification:'Book Antiqua, Bold Italic';font-variant-ligatures:normal;font-variant-caps:normal;font-variant-numeric:normal;font-variant-east-asian:normal;text-align:start;letter-spacing:0px;word-spacing:0px;writing-mode:lr-tb;direction:ltr;text-anchor:start;fill:#ffdd55;fill-opacity:1;stroke:#aa8800;stroke-width:0.75;stroke-miterlimit:4;stroke-dasharray:none" id="text1403" aria-label="2">
      <path id="path1020" style="font-style:italic;font-variant:normal;font-weight:bold;font-stretch:normal;font-size:66.2775px;font-family:'Book Antiqua';-inkscape-font-specification:'Book Antiqua, Bold Italic';font-variant-ligatures:normal;font-variant-caps:normal;font-variant-numeric:normal;font-variant-east-asian:normal;fill:#ffdd55;fill-opacity:1;stroke-width:0.75;stroke:#aa8800;stroke-miterlimit:4;stroke-dasharray:none" d="m 10.237692,60.464497 0.226535,-1.844637 q 3.203844,-2.815499 9.093738,-9.126101 6.634222,-7.022567 9.449721,-12.524117 2.847862,-5.50155 2.847862,-9.352635 0,-3.851085 -1.844638,-5.760446 -1.812275,-1.941724 -4.983757,-1.941724 -1.941723,0 -3.333292,0.679604 -1.391568,0.647241 -2.459516,2.006447 -1.067948,1.326845 -2.944948,5.372102 l -1.974085,-0.679603 q 1.974085,-4.789585 3.62455,-8.931928 2.03881,-1.941724 4.368878,-2.912586 2.362431,-0.970861 5.048481,-0.970861 5.922257,0 9.287911,3.171481 3.365654,3.171482 3.365654,8.511222 0,3.753999 -2.006447,7.507997 -2.006448,3.753999 -7.831618,9.320273 l -7.087291,6.828395 -3.624551,3.398016 v 0.388345 l 12.200496,-0.06473 q 5.307378,-0.03236 8.284687,-0.582517 l 0.517793,0.485431 q -0.420707,0.9385 -0.938499,2.783137 -0.873776,2.97731 -1.165035,4.368878 -6.76367,-0.32362 -14.692374,-0.32362 z"/>
    </g>
    <path d="m 56.226624,13.544399 c -0.369169,0 -0.666294,0.384833 -0.666294,0.862882 v 13.663552 a 12.482933,11.706792 0 0 1 1.333091,0.191586 V 14.407281 c 0,-0.478049 -0.297625,-0.862882 -0.666797,-0.862882 z m 0.666797,37.636172 a 12.482933,11.706792 0 0 1 -1.333091,0.191583 v 13.446957 c 0,0.478051 0.297125,0.862882 0.666294,0.862882 0.369172,0 0.666797,-0.384831 0.666797,-0.862882 z" style="fill:#ffdd55;fill-opacity:1;stroke-width:0.984067;stroke-linecap:round;stroke-linejoin:round" id="rect1420"/>
    <path d="m 56.22683,6.8663888 c 0.369171,0 0.666375,0.3832096 0.666375,0.8592142 v 3.586655 c 0,0.476005 -0.297204,0.859214 -0.666375,0.859214 -0.369172,0 -0.666375,-0.383209 -0.666375,-0.859214 V 7.725603 c 0,-0.4760046 0.297203,-0.8592142 0.666375,-0.8592142 z" style="fill:#808080;fill-opacity:1;stroke-width:0.313904;stroke-linecap:round;stroke-linejoin:round" id="rect1422"/>
    <path d="m 56.22683,67.209526 c 0.369171,0 0.666375,0.38321 0.666375,0.859214 v 3.586655 c 0,0.476005 -0.297204,0.859214 -0.666375,0.859214 -0.369172,0 -0.666375,-0.383209 -0.666375,-0.859214 V 68.06874 c 0,-0.476004 0.297203,-0.859214 0.666375,-0.859214 z" style="fill:#808080;fill-opacity:1;stroke-width:0.313904;stroke-linecap:round;stroke-linejoin:round" id="rect1424"/>
    <path d="m 58.970841,15.385716 c -0.369172,0 -0.666294,0.355934 -0.666294,0.798352 v 12.43651 a 12.482933,11.706792 0 0 1 1.332589,0.50022 v -12.93673 c 0,-0.442418 -0.297125,-0.798352 -0.666295,-0.798352 z m 0.666295,34.936473 a 12.482933,11.706792 0 0 1 -1.332589,0.500223 v 12.016822 c 0,0.442418 0.297122,0.798354 0.666294,0.798354 0.36917,0 0.666295,-0.355936 0.666295,-0.798354 z" style="fill:#ffdd55;fill-opacity:1;stroke-width:0.94669;stroke-linecap:round;stroke-linejoin:round" id="rect1436"/>
    <path d="m 58.970906,9.2051878 c 0.369171,0 0.666374,0.3546502 0.666374,0.7951802 v 3.319352 c 0,0.44053 -0.297203,0.79518 -0.666374,0.79518 -0.369172,0 -0.666375,-0.35465 -0.666375,-0.79518 v -3.319352 c 0,-0.44053 0.297203,-0.7951802 0.666375,-0.7951802 z" style="fill:#808080;fill-opacity:1;stroke-width:0.301981;stroke-linecap:round;stroke-linejoin:round" id="rect1438"/>
    <path d="m 58.970906,65.05114 c 0.369171,0 0.666374,0.35465 0.666374,0.79518 v 3.319352 c 0,0.44053 -0.297203,0.79518 -0.666374,0.79518 -0.369172,0 -0.666375,-0.35465 -0.666375,-0.79518 V 65.84632 c 0,-0.44053 0.297203,-0.79518 0.666375,-0.79518 z" style="fill:#808080;fill-opacity:1;stroke-width:0.301981;stroke-linecap:round;stroke-linejoin:round" id="rect1440"/>
    <path d="m 62.286809,18.305007 c -0.377719,0 -0.681803,0.310863 -0.681803,0.696811 v 11.199961 a 12.482933,11.706792 0 0 1 1.363605,1.059969 v -12.25993 c 0,-0.385948 -0.304084,-0.696811 -0.681802,-0.696811 z m 0.681802,29.876734 a 12.482933,11.706792 0 0 1 -1.363605,1.05947 v 10.460633 c 0,0.385956 0.304084,0.696808 0.681803,0.696808 0.377718,0 0.681802,-0.310852 0.681802,-0.696808 z" style="fill:#ffdd55;fill-opacity:1;stroke-width:0.894387;stroke-linecap:round;stroke-linejoin:round" id="rect1444"/>
    <path d="m 62.286663,12.714299 c 0.377717,0 0.6818,0.320814 0.6818,0.719314 v 3.002664 c 0,0.3985 -0.304083,0.719314 -0.6818,0.719314 -0.377718,0 -0.681801,-0.320814 -0.681801,-0.719314 v -3.002664 c 0,-0.3985 0.304083,-0.719314 0.681801,-0.719314 z" style="fill:#808080;fill-opacity:1;stroke-width:0.290519;stroke-linecap:round;stroke-linejoin:round" id="rect1446"/>
    <path d="m 62.286663,62.72908 c 0.377717,0 0.6818,0.320814 0.6818,0.719314 v 3.002664 c 0,0.3985 -0.304083,0.719314 -0.6818,0.719314 -0.377718,0 -0.681801,-0.320814 -0.681801,-0.719314 v -3.002664 c 0,-0.3985 0.304083,-0.719314 0.681801,-0.719314 z" style="fill:#808080;fill-opacity:1;stroke-width:0.290519;stroke-linecap:round;stroke-linejoin:round" id="rect1448"/>
    <g style="font-style:italic;font-variant:normal;font-weight:bold;font-stretch:normal;font-size:11.3244px;line-height:1.25;font-family:'Book Antiqua';-inkscape-font-specification:'Book Antiqua, Bold Italic';font-variant-ligatures:normal;font-variant-caps:normal;font-variant-numeric:normal;font-variant-east-asian:normal;text-align:start;letter-spacing:0px;word-spacing:0px;writing-mode:lr-tb;direction:ltr;text-anchor:start;fill:#ffdd55;fill-opacity:1;stroke:#aa8800;stroke-width:0.5;stroke-miterlimit:4;stroke-dasharray:none" id="text1407" aria-label="EURO">
      <path id="path1029" style="font-style:italic;font-variant:normal;font-weight:bold;font-stretch:normal;font-size:11.3244px;font-family:'Book Antiqua';-inkscape-font-specification:'Book Antiqua, Bold Italic';font-variant-ligatures:normal;font-variant-caps:normal;font-variant-numeric:normal;font-variant-east-asian:normal;fill:#ffdd55;fill-opacity:1;stroke:#aa8800;stroke-width:0.5;stroke-miterlimit:4;stroke-dasharray:none" d="m 43.817998,43.326589 0.06082,-0.381535 q 0.580596,-0.07741 0.680127,-0.171415 0.09953,-0.094 0.237768,-0.768599 0.0553,-0.276475 0.44236,-2.593332 l 0.381535,-2.28921 q 0.11059,-0.658009 0.11059,-0.879189 0,-0.149296 -0.11059,-0.210121 -0.176944,-0.09953 -0.569538,-0.09953 h -0.409182 l 0.06082,-0.376006 0.65248,0.01659 0.613774,0.02212 2.034853,-0.02212 1.824732,-0.0055 q 0.431301,0 0.696716,0.04424 l 0.0553,0.04424 q -0.176944,0.86813 -0.287533,1.73626 h -0.387065 l 0.01659,-0.364946 0.0055,-0.442359 q 0,-0.254357 -0.160355,-0.309652 -0.464478,-0.171414 -1.620141,-0.171414 -0.486596,0 -0.928955,0.06635 -0.298593,1.780496 -0.470007,2.820041 l 1.620141,0.04424 q 0.210121,0 0.98425,-0.04424 l 0.03318,0.07188 -0.132708,0.536361 q -1.094839,-0.0553 -2.150972,-0.0553 -0.237769,0 -0.447889,0.01106 l -0.519773,3.118633 q 0.591656,0.07741 1.188841,0.07741 0.895778,0 1.498493,-0.10506 0.32071,-0.0553 0.392594,-0.121649 0.09953,-0.10506 0.276474,-0.707775 l 0.143767,-0.458948 h 0.398123 l -0.176943,1.006368 q -0.094,0.497654 -0.132708,0.851542 l -0.08294,0.094 q -0.254357,0.01659 -0.525302,0.01659 l -4.329593,-0.07741 q -0.464477,0 -0.967661,0.07741 z"/>
      <path id="path1031" style="font-style:italic;font-variant:normal;font-weight:bold;font-stretch:normal;font-size:11.3244px;font-family:'Book Antiqua';-inkscape-font-specification:'Book Antiqua, Bold Italic';font-variant-ligatures:normal;font-variant-caps:normal;font-variant-numeric:normal;font-variant-east-asian:normal;fill:#ffdd55;fill-opacity:1;stroke:#aa8800;stroke-width:0.5;stroke-miterlimit:4;stroke-dasharray:none" d="m 58.902453,42.945054 -0.06083,0.381535 q -0.608244,-0.0553 -1.603552,-0.0553 -0.420242,0 -0.912367,0.03871 l -0.07741,-0.06635 q 0.01659,-0.09953 0.094,-0.414712 0.127178,-0.53636 0.182473,-0.989779 -0.851542,0.895778 -1.598023,1.30496 -0.503184,0.276475 -1.161193,0.276475 -0.912367,0 -1.465316,-0.519772 -0.552949,-0.519773 -0.552949,-1.299431 0,-0.364946 0.09953,-0.967661 l 0.293063,-1.74179 q 0.376005,-2.278151 0.376005,-2.620979 0,-0.182474 -0.11059,-0.259887 -0.10506,-0.07741 -0.436829,-0.07741 h -0.458948 l 0.06635,-0.376006 1.725201,0.02212 q 0.470007,0 0.834953,-0.02212 l 0.06083,0.07741 q -0.265416,1.122487 -0.458948,2.278151 l -0.331769,2.001676 q -0.210121,1.266254 -0.210121,1.52614 0,0.464477 0.331769,0.75754 0.33177,0.293063 0.901308,0.293063 0.381535,0 0.801776,-0.176944 0.420241,-0.176943 0.834953,-0.552949 0.420242,-0.376005 0.475537,-0.508713 0.06082,-0.132708 0.248827,-1.277313 l 0.398123,-2.383211 q 0.176944,-1.067192 0.176944,-1.360255 0,-0.149296 -0.127178,-0.22118 -0.127179,-0.07741 -0.519773,-0.07741 h -0.420241 l 0.06635,-0.376006 q 0.951072,0.03871 1.52614,0.03871 l 2.040382,-0.03871 -0.06082,0.376006 h -0.304122 q -0.486596,0 -0.586126,0.176943 -0.143767,0.248827 -0.431301,1.957441 l -0.43683,2.637567 q -0.254356,1.504022 -0.254356,1.835792 0,0.204591 0.154826,0.304122 0.160355,0.09953 0.580596,0.09953 z"/>
      <path id="path1033" style="font-style:italic;font-variant:normal;font-weight:bold;font-stretch:normal;font-size:11.3244px;font-family:'Book Antiqua';-inkscape-font-specification:'Book Antiqua, Bold Italic';font-variant-ligatures:normal;font-variant-caps:normal;font-variant-numeric:normal;font-variant-east-asian:normal;fill:#ffdd55;fill-opacity:1;stroke:#aa8800;stroke-width:0.5;stroke-miterlimit:4;stroke-dasharray:none" d="m 59.389048,43.326589 0.06082,-0.381535 h 0.32624 q 0.398123,0 0.508713,-0.105061 0.116119,-0.10506 0.254357,-0.823894 L 60.8986,39.820891 61.368607,37.00085 q 0.08294,-0.481066 0.08294,-0.724364 0,-0.176944 -0.121649,-0.259886 -0.121649,-0.08294 -0.470007,-0.08294 h -0.453418 l 0.06082,-0.376006 q 0.591656,0.03318 1.846851,0.03318 l 2.195208,-0.04424 q 0.890248,0 1.31049,0.182473 0.425771,0.182474 0.674598,0.564009 0.254356,0.381534 0.254356,0.879189 0,0.768599 -0.547419,1.321548 -0.54742,0.54742 -1.769438,0.779659 l 0.774129,1.260724 0.735423,1.238606 q 0.508713,0.862601 0.674598,1.017427 0.165884,0.154826 0.470006,0.154826 h 0.193533 l -0.06635,0.381535 q -0.641421,-0.0553 -1.128017,-0.0553 -0.453418,0 -0.912366,0.0553 l -0.176944,-0.33177 q -0.248827,-0.486595 -0.492124,-0.906837 l -0.752011,-1.29943 Q 63.39793,40.180308 62.806274,39.273471 l 0.02765,-0.182473 0.403653,0.01106 q 0.890248,0 1.443197,-0.453419 0.558479,-0.458948 0.558479,-1.371314 0,-0.624832 -0.337299,-0.928955 -0.337299,-0.304122 -1.100369,-0.304122 -0.304122,0 -0.846012,0.08847 l -0.348358,2.090148 -0.525302,3.140752 q -0.160355,0.962131 -0.160355,1.222018 0,0.193532 0.132708,0.276474 0.138237,0.08294 0.608244,0.08294 h 0.309651 l -0.06082,0.381535 -1.874498,-0.06083 q -0.376005,0 -1.647789,0.06083 z"/>
      <path id="path1035" style="font-style:italic;font-variant:normal;font-weight:bold;font-stretch:normal;font-size:11.3244px;font-family:'Book Antiqua';-inkscape-font-specification:'Book Antiqua, Bold Italic';font-variant-ligatures:normal;font-variant-caps:normal;font-variant-numeric:normal;font-variant-east-asian:normal;fill:#ffdd55;fill-opacity:1;stroke:#aa8800;stroke-width:0.5;stroke-miterlimit:4;stroke-dasharray:none" d="m 68.474003,40.307486 q 0,-1.470845 0.591655,-2.576744 0.591656,-1.105898 1.609083,-1.692024 1.022956,-0.591656 2.416388,-0.591656 1.669906,0 2.587802,0.857072 0.917896,0.857071 0.917896,2.338975 0,1.293901 -0.641421,2.432976 -0.641421,1.133546 -1.680966,1.74179 -1.039545,0.602715 -2.3998,0.602715 -1.62567,0 -2.515919,-0.829424 -0.884718,-0.834953 -0.884718,-2.28368 z m 1.564846,0.337299 q 0,0.774129 0.243298,1.260724 0.243297,0.486595 0.735422,0.757541 0.497654,0.270945 1.155664,0.270945 0.812835,0 1.382373,-0.44236 0.575067,-0.442359 1.022956,-1.6312 0.453418,-1.19437 0.453418,-2.593332 0,-1.172252 -0.547419,-1.752849 -0.541891,-0.580596 -1.548258,-0.580596 -0.87366,0 -1.459786,0.442359 -0.580597,0.43683 -1.011897,1.592494 -0.425771,1.155664 -0.425771,2.676274 z"/>
    </g>
  </g>
</svg>