<?xml version="1.0" encoding="UTF-8" standalone="no"?>
<svg xmlns:dc="http://purl.org/dc/elements/1.1/" xmlns:cc="http://creativecommons.org/ns#" xmlns:rdf="http://www.w3.org/1999/02/22-rdf-syntax-ns#" xmlns:svg="http://www.w3.org/2000/svg" xmlns="http://www.w3.org/2000/svg" xmlns:sodipodi="http://sodipodi.sourceforge.net/DTD/sodipodi-0.dtd" xmlns:inkscape="http://www.inkscape.org/namespaces/inkscape" sodipodi:docname="5_Cent.svg" inkscape:version="1.0 (4035a4fb49, 2020-05-01)" id="svg8" version="1.1" viewBox="0 0 79.374998 79.375002" height="300" width="300">
  <defs id="defs2"/>
  <sodipodi:namedview units="px" inkscape:window-maximized="1" inkscape:window-y="-8" inkscape:window-x="1912" inkscape:window-height="1027" inkscape:window-width="1920" showgrid="false" inkscape:document-rotation="0" inkscape:current-layer="layer1" inkscape:document-units="mm" inkscape:cy="112.29028" inkscape:cx="441.96546" inkscape:zoom="0.9899495" inkscape:pageshadow="2" inkscape:pageopacity="0.0" borderopacity="1.0" bordercolor="#666666" pagecolor="#ffffff" id="base"/>
  <metadata id="metadata5">
    <rdf:RDF>
      <cc:Work rdf:about="">
        <dc:format>image/svg+xml</dc:format>
        <dc:type rdf:resource="http://purl.org/dc/dcmitype/StillImage"/>
        <dc:title/>
      </cc:Work>
    </rdf:RDF>
  </metadata>
  <g id="layer1" inkscape:groupmode="layer" inkscape:label="Ebene 1">
    <g transform="matrix(0.9921875,0,0,0.9921875,-64.492188,-107.65234)" id="g878">
      <circle style="fill:#a05a2c;stroke-width:4.5352;stroke-linecap:round;stroke-linejoin:round" id="path1289" cx="105" cy="148.5" r="40"/>
      <circle style="fill:#d4aa00;fill-opacity:1;stroke-width:1.67668;stroke-linecap:round;stroke-linejoin:round" id="path1399" cx="105" cy="148.5" r="38.5"/>
      <circle r="38.751457" cy="148.5" cx="105" id="path903" style="fill:#c87137;stroke:none;stroke-width:0.497085;stroke-linecap:round;stroke-linejoin:round"/>
      <text transform="scale(1.0250536,0.97555875)" xml:space="preserve" style="font-style:italic;font-variant:normal;font-weight:normal;font-stretch:normal;font-size:57.3919px;line-height:1.25;font-family:'Book Antiqua';-inkscape-font-specification:'Book Antiqua Italic';font-variant-ligatures:normal;font-variant-caps:normal;font-variant-numeric:normal;font-variant-east-asian:normal;text-align:start;letter-spacing:-4.63309px;word-spacing:-0.0170501px;writing-mode:lr-tb;direction:ltr;text-anchor:start;fill:#d38d5f;fill-opacity:1;stroke:#784421;stroke-width:0.298916;stroke-opacity:1" x="66.949913" y="165.79427" id="text1403"><tspan sodipodi:role="line" id="tspan1401" x="66.949913" y="165.79427" style="font-style:italic;font-variant:normal;font-weight:normal;font-stretch:normal;font-size:57.3919px;font-family:'Book Antiqua';-inkscape-font-specification:'Book Antiqua Italic';font-variant-ligatures:normal;font-variant-caps:normal;font-variant-numeric:normal;font-variant-east-asian:normal;fill:#d38d5f;fill-opacity:1;stroke:#784421;stroke-width:0.298916;stroke-opacity:1">5</tspan></text>
      <g id="g1498" transform="rotate(40,106.19805,145.65236)" style="fill:#a05a2c">
        <path transform="scale(0.26458333)" d="m 448.92773,454.50391 c -1.44143,0 -2.60156,1.575 -2.60156,3.53125 v 58.22656 a 48.739861,45.709402 0 0 1 5.20508,-0.51563 v -57.71093 c 0,-1.95625 -1.16208,-3.53125 -2.60352,-3.53125 z m -2.60156,152.01757 v 57.80469 c 0,1.95625 1.16013,3.53125 2.60156,3.53125 1.44144,0 2.60352,-1.575 2.60352,-3.53125 v -57.28711 a 48.739861,45.709402 0 0 1 -5.20508,-0.51758 z" style="fill:#a05a2c;fill-opacity:1;stroke-width:3.93354;stroke-linecap:round;stroke-linejoin:round" id="rect1409"/>
        <path id="rect1411" style="fill:#a05a2c;fill-opacity:1;stroke-width:0.331985;stroke-linecap:round;stroke-linejoin:round" d="m 118.77901,113.0235 c 0.38138,0 0.68841,0.4149 0.68841,0.93028 v 3.8833 c 0,0.51538 -0.30703,0.93028 -0.68841,0.93028 -0.38138,0 -0.68841,-0.4149 -0.68841,-0.93028 v -3.8833 c 0,-0.51538 0.30703,-0.93028 0.68841,-0.93028 z"/>
        <path id="rect1413" style="fill:#a05a2c;fill-opacity:1;stroke-width:0.331985;stroke-linecap:round;stroke-linejoin:round" d="m 118.77901,178.35759 c 0.38138,0 0.68841,0.4149 0.68841,0.93028 v 3.8833 c 0,0.51538 -0.30703,0.93028 -0.68841,0.93028 -0.38138,0 -0.68841,-0.4149 -0.68841,-0.93028 v -3.8833 c 0,-0.51538 0.30703,-0.93028 0.68841,-0.93028 z"/>
        <path transform="scale(0.26458333)" d="m 461.42773,459.18359 c -1.44143,0 -2.60156,1.50259 -2.60156,3.36914 v 53.34961 a 48.739861,45.709402 0 0 1 5.20508,0.74805 v -54.09766 c 0,-1.86655 -1.16208,-3.36914 -2.60352,-3.36914 z m 2.60352,146.95118 a 48.739861,45.709402 0 0 1 -5.20508,0.74804 v 52.50391 c 0,1.86656 1.16013,3.36914 2.60156,3.36914 1.44144,0 2.60352,-1.50258 2.60352,-3.36914 z" style="fill:#a05a2c;fill-opacity:1;stroke-width:3.84231;stroke-linecap:round;stroke-linejoin:round" id="rect1420"/>
        <rect ry="0.88762921" rx="3.5895741" y="114.59347" x="121.39789" height="5.4805269" width="1.3768244" id="rect1422" style="fill:#a05a2c;fill-opacity:1;stroke-width:0.324285;stroke-linecap:round;stroke-linejoin:round"/>
        <rect style="fill:#a05a2c;fill-opacity:1;stroke-width:0.324285;stroke-linecap:round;stroke-linejoin:round" id="rect1424" width="1.3768244" height="5.4805269" x="121.39789" y="176.93221" rx="3.5895741" ry="0.88762921"/>
        <path transform="scale(0.26458333)" d="m 472.14258,466.37305 c -1.44144,0 -2.60156,1.38975 -2.60156,3.11718 v 48.5586 a 48.739861,45.709402 0 0 1 5.20312,1.95312 v -50.51172 c 0,-1.72743 -1.16013,-3.11718 -2.60156,-3.11718 z m 2.60156,136.41015 a 48.739861,45.709402 0 0 1 -5.20312,1.95313 v 46.91992 c 0,1.72743 1.16012,3.11719 2.60156,3.11719 1.44143,0 2.60156,-1.38976 2.60156,-3.11719 z" style="fill:#a05a2c;fill-opacity:1;stroke-width:3.69637;stroke-linecap:round;stroke-linejoin:round" id="rect1436"/>
        <rect ry="0.82147706" rx="3.5895741" y="117.00961" x="124.23271" height="5.0720806" width="1.3768244" id="rect1438" style="fill:#a05a2c;fill-opacity:1;stroke-width:0.311968;stroke-linecap:round;stroke-linejoin:round"/>
        <rect style="fill:#a05a2c;fill-opacity:1;stroke-width:0.311968;stroke-linecap:round;stroke-linejoin:round" id="rect1440" width="1.3768244" height="5.0720806" x="124.23271" y="174.70244" rx="3.5895741" ry="0.82147706"/>
        <path transform="scale(0.26458333)" d="m 485.08984,477.77148 c -1.47481,0 -2.66211,1.21377 -2.66211,2.72071 v 43.73047 a 48.739861,45.709402 0 0 1 5.32422,4.13867 v -47.86914 c 0,-1.50694 -1.1873,-2.72071 -2.66211,-2.72071 z m 2.66211,116.6543 a 48.739861,45.709402 0 0 1 -5.32422,4.13672 v 40.84375 c 0,1.50697 1.1873,2.7207 2.66211,2.7207 1.47481,0 2.66211,-1.21373 2.66211,-2.7207 z" style="fill:#a05a2c;fill-opacity:1;stroke-width:3.49215;stroke-linecap:round;stroke-linejoin:round" id="rect1444"/>
        <rect style="fill:#a05a2c;fill-opacity:1;stroke-width:0.300127;stroke-linecap:round;stroke-linejoin:round" id="rect1446" width="1.4086961" height="4.5881696" x="127.64219" y="120.63477" rx="3.672668" ry="0.74310249"/>
        <rect ry="0.74310249" rx="3.672668" y="172.30359" x="127.64219" height="4.5881696" width="1.4086961" id="rect1448" style="fill:#a05a2c;fill-opacity:1;stroke-width:0.300127;stroke-linecap:round;stroke-linejoin:round"/>
      </g>
      <g style="fill:#d38d5f;stroke:#784421" id="g1533" transform="matrix(1.0705041,0,0,1.0705041,-2.9090729,-53.543658)">
        <text xml:space="preserve" style="font-style:italic;font-variant:normal;font-weight:bold;font-stretch:normal;font-size:5.9876px;line-height:1.25;font-family:'Book Antiqua';-inkscape-font-specification:'Book Antiqua, Bold Italic';font-variant-ligatures:normal;font-variant-caps:normal;font-variant-numeric:normal;font-variant-east-asian:normal;text-align:start;letter-spacing:0px;word-spacing:0px;writing-mode:lr-tb;direction:ltr;text-anchor:start;fill:#d38d5f;fill-opacity:1;stroke:#784421;stroke-width:0.102362;stroke-miterlimit:4;stroke-dasharray:none;stroke-opacity:1" x="105.16389" y="166.84293" id="text1407"><tspan sodipodi:role="line" id="tspan1405" x="105.16389" y="166.84293" style="font-style:italic;font-variant:normal;font-weight:bold;font-stretch:normal;font-size:5.9876px;font-family:'Book Antiqua';-inkscape-font-specification:'Book Antiqua, Bold Italic';font-variant-ligatures:normal;font-variant-caps:normal;font-variant-numeric:normal;font-variant-east-asian:normal;fill:#d38d5f;fill-opacity:1;stroke:#784421;stroke-width:0.102362;stroke-miterlimit:4;stroke-dasharray:none;stroke-opacity:1">EURO</tspan></text>
        <text id="text1502" y="174.52121" x="93.152931" style="font-style:italic;font-variant:normal;font-weight:bold;font-stretch:normal;font-size:9.36925px;line-height:1.25;font-family:'Book Antiqua';-inkscape-font-specification:'Book Antiqua, Bold Italic';font-variant-ligatures:normal;font-variant-caps:normal;font-variant-numeric:normal;font-variant-east-asian:normal;text-align:start;letter-spacing:0px;word-spacing:0px;writing-mode:lr-tb;direction:ltr;text-anchor:start;fill:#d38d5f;fill-opacity:1;stroke:#784421;stroke-width:0.160173;stroke-miterlimit:4;stroke-dasharray:none;stroke-opacity:1" xml:space="preserve"><tspan style="font-style:italic;font-variant:normal;font-weight:bold;font-stretch:normal;font-size:9.36925px;font-family:'Book Antiqua';-inkscape-font-specification:'Book Antiqua, Bold Italic';font-variant-ligatures:normal;font-variant-caps:normal;font-variant-numeric:normal;font-variant-east-asian:normal;fill:#d38d5f;fill-opacity:1;stroke:#784421;stroke-width:0.160173;stroke-miterlimit:4;stroke-dasharray:none;stroke-opacity:1" y="174.52121" x="93.152931" id="tspan1500" sodipodi:role="line"><tspan id="tspan1504" style="font-size:16.2785px;fill:#d38d5f;fill-opacity:1;stroke:#784421;stroke-width:0.160173;stroke-opacity:1">C</tspan>ENT</tspan></text>
      </g>
    </g>
  </g>
</svg>