<?xml version="1.0" encoding="UTF-8" standalone="no"?>
<svg
   xmlns:dc="http://purl.org/dc/elements/1.1/"
   xmlns:cc="http://creativecommons.org/ns#"
   xmlns:rdf="http://www.w3.org/1999/02/22-rdf-syntax-ns#"
   xmlns:svg="http://www.w3.org/2000/svg"
   xmlns="http://www.w3.org/2000/svg"
   xmlns:sodipodi="http://sodipodi.sourceforge.net/DTD/sodipodi-0.dtd"
   xmlns:inkscape="http://www.inkscape.org/namespaces/inkscape"
   width="512"
   height="512"
   viewBox="0 0 135.46666 135.46666"
   version="1.1"
   id="svg8"
   inkscape:version="1.0 (4035a4fb49, 2020-05-01)"
   sodipodi:docname="lama_coin.svg">
  <defs
     id="defs2" />
  <sodipodi:namedview
     inkscape:snap-global="true"
     id="base"
     pagecolor="#ffffff"
     bordercolor="#666666"
     borderopacity="1.0"
     inkscape:pageopacity="0.0"
     inkscape:pageshadow="2"
     inkscape:zoom="0.49497475"
     inkscape:cx="11.569544"
     inkscape:cy="280.64528"
     inkscape:document-units="mm"
     inkscape:current-layer="layer1"
     inkscape:document-rotation="0"
     showgrid="false"
     inkscape:window-width="1920"
     inkscape:window-height="1027"
     inkscape:window-x="1912"
     inkscape:window-y="-8"
     inkscape:window-maximized="1"
     units="px"
     inkscape:snap-bbox="true"
     inkscape:bbox-paths="true"
     inkscape:bbox-nodes="true"
     inkscape:snap-bbox-edge-midpoints="true"
     inkscape:snap-bbox-midpoints="true"
     inkscape:object-paths="true"
     inkscape:snap-intersection-paths="true"
     inkscape:snap-smooth-nodes="true"
     inkscape:snap-midpoints="true"
     inkscape:snap-object-midpoints="true"
     inkscape:snap-center="true"
     inkscape:snap-text-baseline="true"
     inkscape:snap-others="false" />
  <metadata
     id="metadata5">
    <rdf:RDF>
      <cc:Work
         rdf:about="">
        <dc:format>image/svg+xml</dc:format>
        <dc:type
           rdf:resource="http://purl.org/dc/dcmitype/StillImage" />
        <dc:title></dc:title>
      </cc:Work>
    </rdf:RDF>
  </metadata>
  <g
     inkscape:groupmode="layer"
     id="layer1"
     inkscape:label="Background">
    <path
       transform="scale(0.26458333)"
       d="M 256 0 A 255.99999 255.99999 0 0 0 0 256 A 255.99999 255.99999 0 0 0 256 512 A 255.99999 255.99999 0 0 0 512 256 A 255.99999 255.99999 0 0 0 256 0 z M 255.74805 31 A 225 225 0 0 1 256 31 A 225 225 0 0 1 481 256 A 225 225 0 0 1 256 481 A 225 225 0 0 1 31 256 A 225 225 0 0 1 255.74805 31 z "
       style="fill:#d4aa00;fill-opacity:1;stroke:none;stroke-width:43.231"
       id="path864" />
    <circle
       r="59.53125"
       cy="67.73333"
       cx="67.73333"
       id="circle867"
       style="fill:#806600;fill-opacity:1;stroke:none;stroke-width:10.0531" />
  </g>
  <g
     inkscape:groupmode="layer"
     id="layer6"
     inkscape:label="Lama_Head">
    <g
       inkscape:groupmode="layer"
       id="layer2"
       inkscape:label="Ears"
       style="display:inline">
      <path
         style="fill:#d4aa00;stroke:#554400;stroke-width:0.792759;stroke-linecap:round;stroke-linejoin:round;stroke-miterlimit:4;stroke-dasharray:none;stroke-opacity:1"
         d="m 41.464709,37.917453 c 0,0 2.735835,-4.822187 -0.727793,-11.279392 0,0 -1.581291,-3.301156 1.993805,-9.431874 0,0 11.472737,7.851956 6.416788,18.933323 l -2.333515,6.258921 z"
         id="path847"
         sodipodi:nodetypes="cccccc" />
      <path
         style="fill:#ffcc00;stroke:#554400;stroke-width:0.792759;stroke-linecap:round;stroke-linejoin:round;stroke-miterlimit:4;stroke-dasharray:none;stroke-opacity:1;fill-opacity:1"
         d="m 43.945716,36.549931 c 1.215372,-2.667736 0.583378,-5.438079 0.583378,-5.438079 -2.576588,-7.079762 -1.312602,-9.850104 -1.312602,-9.850104 0,0 7.290633,4.299463 4.27651,14.611291 l -1.602691,3.344629 z"
         id="path849"
         sodipodi:nodetypes="cccccc" />
      <path
         style="fill:#d4aa00;stroke:#554400;stroke-width:0.792759;stroke-linecap:round;stroke-linejoin:round;stroke-miterlimit:4;stroke-dasharray:none;stroke-opacity:1"
         d="m 79.616082,40.78587 c 8.387725,-26.191587 -7.493951,-28.585831 -7.493951,-28.585831 -1.581292,4.280619 0.618765,10.810378 -1.203158,14.764509 -4.49937,9.08859 -2.028176,14.691957 -2.028176,14.691957 l 5.293893,3.845302 z"
         id="path851"
         sodipodi:nodetypes="cccccc" />
      <path
         style="fill:#ffcc00;stroke:#554400;stroke-width:0.792759;stroke-linecap:round;stroke-linejoin:round;stroke-miterlimit:4;stroke-dasharray:none;stroke-opacity:1;fill-opacity:1"
         d="m 75.205091,16.567558 c 0,0 4.32616,5.844922 4.594109,6.900204 0.267949,1.055282 1.634777,17.971084 -5.408256,17.971084 -0.436739,-0.123493 -6.199459,1.865124 -1.180578,-15.692671 0,0 1.777596,-5.971943 1.994725,-9.178617 z"
         id="path853"
         sodipodi:nodetypes="czccc" />
    </g>
    <g
       inkscape:groupmode="layer"
       id="layer4"
       inkscape:label="Head">
      <path
         style="fill:#d4aa00;stroke:#554400;stroke-width:0.528505;stroke-linecap:round;stroke-linejoin:round;stroke-miterlimit:4;stroke-dasharray:none;stroke-opacity:1"
         d="m 56.634199,96.522697 c 0,0 -24.087671,7.727563 -28.935141,-1.132686 C 20.96834,83.087547 32.17731,72.05615 32.17731,72.05615 c 0,0 -2.213938,-8.544747 4.427554,-17.114227 0,0 8.36176,-18.032875 45.211843,-3.975955 0,0 15.398714,47.421235 -17.288696,43.46213 z"
         id="path881"
         sodipodi:nodetypes="ccccccc" />
    </g>
    <g
       inkscape:groupmode="layer"
       id="layer3"
       inkscape:label="Wool">
      <g
         id="g876"
         style="fill:#ffcc00;stroke:#554400;stroke-width:1;stroke-linecap:round;stroke-linejoin:round;stroke-miterlimit:4;stroke-dasharray:none;fill-opacity:1"
         transform="matrix(0.51447572,0,0,0.54291914,16.089382,8.2821838)">
        <path
           sodipodi:nodetypes="ccccccccccccccccccccccccccccc"
           id="path868"
           d="m 64.255951,51.310267 c 0,0 3.756139,0.519718 5.976749,3.330916 0,0 13.890384,-15.686649 31.19609,-1.721816 0,0 -0.43432,3.942226 1.40316,8.619442 0,0 -2.13816,1.553504 -2.07134,2.572469 0.13363,-1.386461 2.12563,-2.53906 2.12563,-2.53906 2.98503,-1.723411 8.91595,-1.770661 12.87488,2.03793 0,0 7.93159,-6.157767 12.5618,-1.952782 0,0 -1.37017,-1.559151 -4.44122,-1.511905 0,0 3.82701,-10.347098 3.59077,-13.134672 0,0 12.47321,-0.377976 13.70164,15.922247 0,0 26.00298,3.082537 19.85578,42.371154 0,0 17.90706,20.17885 3.4745,33.67596 0,0 12.56167,33.54233 0,44.50038 0,25.28413 -79.459747,35.48354 -79.459747,8.90935 0,0 -9.449405,-10.96131 -6.236607,-17.3869 0,0 -5.291667,-5.10268 0,-12.47322 l 15.343411,-3.85804 c 0,0 -2.179859,2.29957 -3.547077,7.97083 0,0 3.474504,-18.70887 22.25019,-13.22984 0,0 -0.0287,-10.6322 10.17669,-14.60095 0,0 -10.39435,-16.15849 6.4256,-34.58483 0,0 -15.78051,-9.732882 -1.7009,-25.607882 0,0 -12.85119,16.867187 -26.08035,-0.09449 0,0 -10.205362,17.103418 -30.805064,0.944936 0,0 -9.543899,13.796131 -21.733631,8.220982 0,0 -10.772322,4.630209 -12.662203,-10.394345 0,0 -3.533733,-13.418714 10.564735,-19.565913 0,0 2.49432,-7.962233 17.216514,-6.419951 z"
           style="display:inline;fill:#ffcc00;stroke:#554400;stroke-width:1;stroke-linecap:round;stroke-linejoin:round;stroke-miterlimit:4;stroke-dasharray:none;stroke-opacity:1;fill-opacity:1" />
        <path
           id="path872"
           d="m 36.191219,76.067707 c 0,0 -8.693452,12.851191 -1.086681,17.103424 0,0 3.307292,-3.449033 4.77195,-7.228795 0,0 -2.976565,-3.071059 -3.685269,-9.874629 z"
           style="fill:#ffcc00;stroke:#554400;stroke-width:1;stroke-linecap:round;stroke-linejoin:round;stroke-miterlimit:4;stroke-dasharray:none;stroke-opacity:1;fill-opacity:1" />
      </g>
    </g>
    <g
       inkscape:groupmode="layer"
       id="layer5"
       inkscape:label="Eys Mouth">
      <g
         id="g975"
         style="stroke-linecap:round;stroke-linejoin:round"
         transform="matrix(0.51447572,0,0,0.54291914,16.089382,8.2821838)">
        <g
           style="stroke:#000000;stroke-linecap:round;stroke-linejoin:round"
           id="g914">
          <path
             sodipodi:nodetypes="cc"
             style="fill:#554400;stroke:#554400;stroke-width:1.5;stroke-linecap:round;stroke-linejoin:round;stroke-miterlimit:4;stroke-dasharray:none;stroke-opacity:1"
             d="m 49.439871,97.988936 c 0,0 5.980888,-0.943549 9.949638,-6.140722"
             id="path894" />
          <path
             sodipodi:nodetypes="cc"
             style="fill:#554400;stroke:#554400;stroke-width:1.5;stroke-linecap:round;stroke-linejoin:round;stroke-miterlimit:4;stroke-dasharray:none;stroke-opacity:1"
             d="m 53.908854,98.699031 c 0,0 6.661829,-1.417411 9.165923,-6.661831"
             id="path896" />
          <path
             style="fill:#554400;stroke:#554400;stroke-width:1.5;stroke-linecap:round;stroke-linejoin:round;stroke-miterlimit:4;stroke-dasharray:none;stroke-opacity:1"
             d="m 57.972097,101.01414 c 0,0 8.976934,-1.464662 9.354912,-6.378353"
             id="path898" />
        </g>
        <g
           style="stroke:#000000;stroke-linecap:round;stroke-linejoin:round"
           id="g909">
          <path
             sodipodi:nodetypes="cc"
             style="fill:#554400;stroke:#554400;stroke-width:1.5;stroke-linecap:round;stroke-linejoin:round;stroke-miterlimit:4;stroke-dasharray:none;stroke-opacity:1"
             d="m 93.360093,97.58441 c 0,0 4.661006,-1.333971 7.701197,-6.211642"
             id="path900" />
          <path
             sodipodi:nodetypes="cc"
             style="fill:#554400;stroke:#554400;stroke-width:1.5;stroke-linecap:round;stroke-linejoin:round;stroke-miterlimit:4;stroke-dasharray:none;stroke-opacity:1"
             d="m 95.619029,98.379504 c 0,0 7.613821,-2.463152 10.854471,-6.839691"
             id="path902" />
          <path
             sodipodi:nodetypes="cc"
             style="fill:#554400;stroke:#554400;stroke-width:1.5;stroke-linecap:round;stroke-linejoin:round;stroke-miterlimit:4;stroke-dasharray:none;stroke-opacity:1"
             d="m 97.997762,100.51529 c 0,0 8.575958,0.0783 11.816608,-6.536643"
             id="path904" />
        </g>
        <g
           id="g952"
           style="stroke-linecap:round;stroke-linejoin:round">
          <ellipse
             style="fill:#554400;stroke:#554400;stroke-width:1.5;stroke-linecap:round;stroke-linejoin:round;stroke-miterlimit:4;stroke-dasharray:none;paint-order:stroke fill markers"
             id="path890"
             cx="33.833092"
             cy="136.2319"
             rx="7.6853075"
             ry="8.2522717"
             transform="rotate(-27.177056)" />
          <path
             id="path916"
             style="fill:#ffffff;stroke:none;stroke-width:6.08035;stroke-linecap:round;stroke-linejoin:round;stroke-miterlimit:4;stroke-dasharray:none;paint-order:stroke fill markers"
             d="m 350.17773,369.04297 a 11.995561,10.922274 0 0 0 -1.73828,5.66015 11.995561,10.922274 0 0 0 11.9961,10.92188 11.995561,10.922274 0 0 0 10.30859,-5.33984 31.189688,29.046831 62.822944 0 0 -20.56641,-11.24219 z"
             transform="scale(0.26458333)" />
          <path
             id="path918"
             style="fill:#ffffff;stroke:none;stroke-width:5.66929;stroke-linecap:round;stroke-linejoin:round;stroke-miterlimit:4;stroke-dasharray:none;paint-order:stroke fill markers"
             d="m 334.23438,412.77344 a 11.237948,9.2176418 0 0 0 -9.01563,3.71679 31.189688,29.046831 62.822944 0 0 16.39063,12.45508 11.237948,9.2176418 0 0 0 3.86328,-6.95312 11.237948,9.2176418 0 0 0 -11.23828,-9.21875 z"
             transform="scale(0.26458333)" />
        </g>
        <g
           id="g957"
           style="stroke-linecap:round;stroke-linejoin:round">
          <circle
             style="fill:#554400;stroke:#554400;stroke-width:1.5;stroke-linecap:round;stroke-linejoin:round;stroke-miterlimit:4;stroke-dasharray:none;paint-order:stroke fill markers"
             id="path892"
             cx="50.412571"
             cy="106.35306"
             r="8.2682295" />
          <path
             id="path930"
             style="fill:#ffffff;stroke:none;stroke-width:6.10991;stroke-linecap:round;stroke-linejoin:round;stroke-miterlimit:4;stroke-dasharray:none;paint-order:stroke fill markers"
             d="m 196.35938,371.26367 a 11.294643,9.6875002 0 0 0 -2.69922,6.28125 11.294643,9.6875002 0 0 0 11.29492,9.6875 11.294643,9.6875002 0 0 0 9.85156,-4.95117 31.250001,31.250001 0 0 0 -18.44726,-11.01758 z"
             transform="scale(0.26458333)" />
          <path
             id="path932"
             style="fill:#ffffff;stroke:none;stroke-width:5.70826;stroke-linecap:round;stroke-linejoin:round;stroke-miterlimit:4;stroke-dasharray:none;paint-order:stroke fill markers"
             d="m 170.84766,411.69727 a 7.5446426,9.0624998 0 0 0 -7.16993,6.24218 31.250001,31.250001 0 0 0 10.7461,10.80078 7.5446426,9.0624998 0 0 0 3.96875,-7.98046 7.5446426,9.0624998 0 0 0 -7.54492,-9.0625 z"
             transform="scale(0.26458333)" />
        </g>
      </g>
      <g
         id="g947"
         style="stroke:#000000;stroke-linecap:round;stroke-linejoin:round"
         transform="matrix(0.51447572,0,0,0.54291914,16.089382,8.2821838)">
        <path
           id="path883"
           d="m 31.537804,127.6212 c 0,0 1.00226,5.41221 4.810852,7.88445 0,0 7.951268,-3.67496 7.283094,-11.35895"
           style="fill:none;stroke:#554400;stroke-width:2;stroke-linecap:round;stroke-linejoin:round;stroke-miterlimit:4;stroke-dasharray:none;stroke-opacity:1" />
        <path
           id="path885"
           d="m 36.348656,135.50565 -0.668176,9.75534 c 0,0 9.020349,13.76438 22.985181,3.34087"
           style="fill:none;stroke:#554400;stroke-width:2;stroke-linecap:round;stroke-linejoin:round;stroke-miterlimit:4;stroke-dasharray:none;stroke-opacity:1" />
        <path
           id="path887"
           d="m 35.68048,145.26099 c 0,0 -5.144936,4.00904 -9.287614,4.40994"
           style="fill:none;stroke:#554400;stroke-width:2;stroke-linecap:round;stroke-linejoin:round;stroke-miterlimit:4;stroke-dasharray:none;stroke-opacity:1" />
      </g>
    </g>
  </g>
</svg>
