<?xml version="1.0" standalone="no"?>
<!DOCTYPE svg PUBLIC "-//W3C//DTD SVG 20010904//EN"
 "http://www.w3.org/TR/2001/REC-SVG-20010904/DTD/svg10.dtd">
<svg version="1.0" xmlns="http://www.w3.org/2000/svg"
 width="160.000000pt" height="154.000000pt" viewBox="0 0 160.000000 154.000000"
 preserveAspectRatio="xMidYMid meet">

<g transform="translate(0.000000,154.000000) scale(0.100000,-0.100000)"
fill="#000000" stroke="none">
<path d="M720 1534 c-121 -21 -155 -30 -221 -55 -236 -91 -417 -295 -476 -537
-22 -92 -22 -267 1 -351 75 -278 286 -486 571 -562 96 -25 277 -30 370 -10
305 67 542 290 612 579 22 92 22 267 -1 351 -75 278 -289 489 -570 561 -76 19
-236 33 -286 24z m150 -774 c0 -264 -2 -480 -5 -480 -3 0 -77 72 -165 160
l-159 160 -65 0 c-118 0 -146 31 -146 160 0 130 27 159 148 161 l67 0 155 159
c85 87 158 159 163 159 4 1 7 -215 7 -479z m354 236 c43 -63 75 -165 75 -236
0 -71 -32 -173 -75 -236 -22 -32 -45 -59 -50 -61 -18 -6 -85 64 -78 81 3 9 9
16 13 16 4 0 21 26 37 58 25 50 29 68 29 142 0 74 -4 92 -29 143 -16 31 -33
57 -37 57 -4 0 -10 7 -13 16 -7 17 60 87 78 81 5 -2 28 -29 50 -61z m-167
-135 c30 -58 31 -138 2 -199 -27 -54 -40 -60 -70 -30 -48 46 -51 53 -34 84 19
36 19 52 0 87 -16 31 -13 38 30 84 28 31 45 24 72 -26z"/>
</g>
</svg>
