<?xml version="1.0" standalone="no"?>
<!DOCTYPE svg PUBLIC "-//W3C//DTD SVG 20010904//EN"
 "http://www.w3.org/TR/2001/REC-SVG-20010904/DTD/svg10.dtd">
<svg version="1.0" xmlns="http://www.w3.org/2000/svg"
 width="161.000000pt" height="159.000000pt" viewBox="0 0 161.000000 159.000000"
 preserveAspectRatio="xMidYMid meet">

<g transform="translate(0.000000,159.000000) scale(0.100000,-0.100000)"
fill="#000000" stroke="none">
<path d="M720 1584 c-121 -21 -155 -30 -221 -55 -236 -91 -417 -295 -476 -537
-22 -92 -22 -267 1 -351 10 -36 31 -94 47 -129 28 -63 114 -192 127 -192 3 0
81 74 172 165 l166 165 -62 0 c-116 0 -144 31 -144 160 0 129 28 160 146 160
l65 0 159 160 c88 88 162 160 165 160 3 0 5 -70 5 -156 0 -86 4 -154 9 -152 5
2 105 98 224 214 l215 210 -61 42 c-81 54 -156 87 -252 112 -76 19 -235 33
-285 24z"/>
<path d="M1112 1138 l-241 -233 0 -287 c-1 -159 -3 -288 -7 -288 -3 0 -68 63
-144 140 -76 77 -143 140 -147 140 -5 0 -82 -74 -172 -164 -187 -187 -180
-167 -75 -242 138 -99 286 -146 464 -147 128 -1 198 11 311 54 235 90 417 295
476 537 22 92 22 267 -1 351 -34 126 -115 270 -193 344 l-30 28 -241 -233z
m112 -92 c43 -63 75 -165 75 -236 0 -71 -32 -173 -75 -236 -22 -32 -45 -59
-50 -61 -18 -6 -85 64 -78 81 3 9 9 16 13 16 4 0 21 26 37 58 25 50 29 68 29
142 0 74 -4 92 -29 143 -16 31 -33 57 -37 57 -4 0 -10 7 -13 16 -7 17 60 87
78 81 5 -2 28 -29 50 -61z m-167 -135 c30 -58 31 -138 2 -199 -27 -54 -40 -60
-70 -30 -48 46 -51 53 -34 84 19 36 19 52 0 87 -16 31 -13 38 30 84 28 31 45
24 72 -26z"/>
</g>
</svg>
