<?xml version="1.0" standalone="no"?>
<!DOCTYPE svg PUBLIC "-//W3C//DTD SVG 20010904//EN"
 "http://www.w3.org/TR/2001/REC-SVG-20010904/DTD/svg10.dtd">
<svg version="1.0" xmlns="http://www.w3.org/2000/svg"
 width="163.000000pt" height="161.000000pt" viewBox="0 0 163.000000 161.000000"
 preserveAspectRatio="xMidYMid meet">

<g transform="translate(0.000000,161.000000) scale(0.100000,-0.100000)"
fill="#000000" stroke="none">
<path d="M750 1605 c-8 -2 -49 -9 -90 -15 -77 -13 -175 -45 -197 -64 -6 -6
-40 -27 -74 -46 -37 -20 -102 -73 -155 -126 -81 -80 -98 -103 -142 -195 -29
-58 -58 -139 -68 -184 -24 -108 -24 -276 0 -375 21 -85 79 -219 102 -237 14
-10 21 -29 23 -61 1 -7 11 -16 24 -21 13 -5 54 -41 93 -81 39 -41 97 -87 134
-108 36 -19 67 -39 70 -43 17 -24 80 -29 350 -29 286 0 320 3 357 35 6 5 40
26 74 45 38 21 101 72 156 127 81 81 98 104 145 200 l53 108 0 255 0 255 -42
89 c-24 49 -43 99 -43 112 0 28 -18 41 -26 19 -5 -13 -9 -14 -15 -4 -4 7 -3
21 2 31 5 10 6 17 1 16 -5 -2 -37 27 -73 63 -35 36 -74 69 -86 73 -24 8 -129
68 -151 86 -18 16 -87 39 -166 56 -69 14 -227 26 -256 19z m140 -443 l0 -128
-219 -212 c-121 -117 -226 -212 -235 -212 -28 0 -63 22 -79 50 -13 21 -17 52
-17 120 0 140 25 170 146 170 62 0 68 2 104 38 61 58 167 169 240 251 25 28
48 51 53 51 4 0 7 -58 7 -128z m424 -273 c20 -89 20 -130 1 -213 -19 -83 -90
-216 -114 -216 -5 0 -25 16 -45 35 -28 26 -36 40 -31 55 3 11 10 20 14 20 4 0
20 24 35 54 34 68 44 176 23 253 l-14 53 41 34 c40 34 41 34 57 16 9 -11 24
-52 33 -91z m-206 -133 c-6 -68 -37 -136 -63 -136 -14 0 -47 29 -74 63 -13 16
-9 23 34 67 26 26 53 46 60 44 6 -3 18 2 25 11 21 25 23 18 18 -49z m-222
-484 c-6 -5 -106 94 -106 105 0 4 -18 24 -40 43 l-40 35 93 93 92 92 3 -181
c1 -100 0 -184 -2 -187z"/>
</g>
</svg>
